<?xml version="1.0" encoding="UTF-8" standalone="no"?>
<!DOCTYPE svg PUBLIC "-//W3C//DTD SVG 1.1//EN"
 "http://www.w3.org/Graphics/SVG/1.1/DTD/svg11.dtd">
<!-- Generated by graphviz version 2.40.1 (20161225.0304)
 -->
<!-- Title: protodot Pages: 1 -->
<svg width="1339pt" height="636pt"
 viewBox="0.00 0.00 1339.00 635.86" xmlns="http://www.w3.org/2000/svg" xmlns:xlink="http://www.w3.org/1999/xlink">
<g id="graph0" class="graph" transform="scale(1 1) rotate(0) translate(4 631.8564)">
<title>protodot</title>
<g id="a_graph0"><a xlink:title="magda">
<text text-anchor="middle" x="665.5" y="-6.8" font-family="Times,serif" font-size="14.00" fill="#000000">magda</text>
</a>
</g>
<g id="clust1" class="cluster">
<title>cluster_b5eb5ae3708a</title>
<g id="a_clust1"><a xlink:title="entry.proto">
<polygon fill="#caff70" stroke="#000000" points="291,-385.8564 291,-587.8564 678,-587.8564 678,-385.8564 291,-385.8564"/>
<text text-anchor="middle" x="484.5" y="-572.6564" font-family="Times,serif" font-size="14.00" fill="#000000">entry.proto</text>
</a>
</g>
</g>
<g id="clust2" class="cluster">
<title>cluster_8b180d234311</title>
<g id="a_clust2"><a xlink:title="file.proto">
<polygon fill="#caff70" stroke="#000000" points="957,-295.8564 957,-469.8564 1190,-469.8564 1190,-295.8564 957,-295.8564"/>
<text text-anchor="middle" x="1073.5" y="-454.6564" font-family="Times,serif" font-size="14.00" fill="#000000">file.proto</text>
</a>
</g>
</g>
<g id="clust3" class="cluster">
<title>cluster_5627932c6abb</title>
<g id="a_clust3"><a xlink:title="timestamp.proto">
<polygon fill="#caff70" stroke="#000000" points="1210,-267.8564 1210,-357.8564 1323,-357.8564 1323,-267.8564 1210,-267.8564"/>
<text text-anchor="middle" x="1266.5" y="-342.6564" font-family="Times,serif" font-size="14.00" fill="#000000">timestamp.proto</text>
</a>
</g>
</g>
<g id="clust4" class="cluster">
<title>cluster_f56b993e78fb</title>
<g id="a_clust4"><a xlink:title="entity.proto">
<polygon fill="#caff70" stroke="#000000" points="698,-261.8564 698,-435.8564 937,-435.8564 937,-261.8564 698,-261.8564"/>
<text text-anchor="middle" x="817.5" y="-420.6564" font-family="Times,serif" font-size="14.00" fill="#000000">entity.proto</text>
</a>
</g>
</g>
<g id="clust5" class="cluster">
<title>cluster_9d1e3c2635ff</title>
<g id="a_clust5"><a xlink:title="magda">
<polygon fill="#caff70" stroke="#000000" points="1012.5,-59.8564 1012.5,-219.8564 1134.5,-219.8564 1134.5,-59.8564 1012.5,-59.8564"/>
<text text-anchor="middle" x="1073.5" y="-204.6564" font-family="Times,serif" font-size="14.00" fill="#000000">magda</text>
</a>
</g>
</g>
<!-- Node_Ja_104 -->
<g id="node1" class="node">
<title>Node_Ja_104</title>
<g id="a_node1"><a xlink:title="magda.Source">
<polygon fill="#fffaf0" stroke="transparent" points="578,-397.8564 578,-455.8564 662,-455.8564 662,-397.8564 578,-397.8564"/>
<polygon fill="#e31a1c" stroke="transparent" points="579,-440.8564 579,-454.8564 661,-454.8564 661,-440.8564 579,-440.8564"/>
<text text-anchor="start" x="627.3154" y="-445.8564" font-family="Ubuntu" font-weight="bold" font-size="10.00" fill="#000000">Source</text>
<text text-anchor="start" x="597.7192" y="-430.8564" font-family="Ubuntu" font-size="10.00" fill="#000000">1</text>
<text text-anchor="start" x="606.5493" y="-430.8564" font-family="Ubuntu" font-size="10.00" fill="#000000">entity</text>
<polygon fill="#fb9a99" stroke="transparent" points="632,-426.8564 632,-440.8564 661,-440.8564 661,-426.8564 632,-426.8564"/>
<text text-anchor="start" x="633.9951" y="-431.8564" font-family="Ubuntu" font-weight="bold" font-size="10.00" fill="#000000">Entity</text>
<text text-anchor="start" x="597.7192" y="-416.8564" font-family="Ubuntu" font-size="10.00" fill="#000000">2</text>
<text text-anchor="start" x="607" y="-416.8564" font-family="Ubuntu" font-size="10.00" fill="#000000">url</text>
<polygon fill="#a6cee3" stroke="transparent" points="632,-412.8564 632,-426.8564 661,-426.8564 661,-412.8564 632,-412.8564"/>
<text text-anchor="start" x="634.5469" y="-417.8564" font-family="Ubuntu" font-style="italic" font-size="10.00" fill="#000000">string</text>
<text text-anchor="start" x="580.5542" y="-402.8564" font-family="Ubuntu" font-size="10.00" fill="#000000">[...]</text>
<text text-anchor="start" x="597.7192" y="-402.8564" font-family="Ubuntu" font-size="10.00" fill="#000000">4</text>
<text text-anchor="start" x="607" y="-402.8564" font-family="Ubuntu" font-size="10.00" fill="#000000">titles</text>
<polygon fill="#a6cee3" stroke="transparent" points="632,-398.8564 632,-412.8564 661,-412.8564 661,-398.8564 632,-398.8564"/>
<text text-anchor="start" x="634.5469" y="-403.8564" font-family="Ubuntu" font-style="italic" font-size="10.00" fill="#000000">string</text>
<polygon fill="none" stroke="#000000" points="578,-397.8564 578,-455.8564 662,-455.8564 662,-397.8564 578,-397.8564"/>
</a>
</g>
</g>
<!-- Node_Ja_102 -->
<g id="node8" class="node">
<title>Node_Ja_102</title>
<g id="a_node8"><a xlink:title="magda.Entity">
<polygon fill="#fffaf0" stroke="transparent" points="714,-273.8564 714,-401.8564 921,-401.8564 921,-273.8564 714,-273.8564"/>
<polygon fill="#e31a1c" stroke="transparent" points="715.5,-386.8564 715.5,-400.8564 920.5,-400.8564 920.5,-386.8564 715.5,-386.8564"/>
<text text-anchor="start" x="893.4902" y="-391.8564" font-family="Ubuntu" font-weight="bold" font-size="10.00" fill="#000000">Entity</text>
<text text-anchor="start" x="734.2192" y="-376.8564" font-family="Ubuntu" font-size="10.00" fill="#000000">1</text>
<text text-anchor="start" x="743.5" y="-376.8564" font-family="Ubuntu" font-size="10.00" fill="#000000">id</text>
<polygon fill="#a6cee3" stroke="transparent" points="795.5,-372.8564 795.5,-386.8564 920.5,-386.8564 920.5,-372.8564 795.5,-372.8564"/>
<text text-anchor="start" x="894.0469" y="-377.8564" font-family="Ubuntu" font-style="italic" font-size="10.00" fill="#000000">string</text>
<text text-anchor="start" x="734.2192" y="-362.8564" font-family="Ubuntu" font-size="10.00" fill="#000000">2</text>
<text text-anchor="start" x="743.5" y="-362.8564" font-family="Ubuntu" font-size="10.00" fill="#000000">kind</text>
<polygon fill="#b2df8a" stroke="transparent" points="795.5,-358.8564 795.5,-372.8564 920.5,-372.8564 920.5,-358.8564 795.5,-358.8564"/>
<text text-anchor="start" x="898.4854" y="-363.8564" font-family="Ubuntu" text-decoration="underline" font-size="10.00" fill="#000000">Kind</text>
<text text-anchor="start" x="717.0542" y="-348.8564" font-family="Ubuntu" font-size="10.00" fill="#000000">[...]</text>
<text text-anchor="start" x="734.2192" y="-348.8564" font-family="Ubuntu" font-size="10.00" fill="#000000">3</text>
<text text-anchor="start" x="743.5" y="-348.8564" font-family="Ubuntu" font-size="10.00" fill="#000000">names</text>
<polygon fill="#a6cee3" stroke="transparent" points="795.5,-344.8564 795.5,-358.8564 920.5,-358.8564 920.5,-344.8564 795.5,-344.8564"/>
<text text-anchor="start" x="894.0469" y="-349.8564" font-family="Ubuntu" font-style="italic" font-size="10.00" fill="#000000">string</text>
<text text-anchor="start" x="717.0542" y="-334.8564" font-family="Ubuntu" font-size="10.00" fill="#000000">[...]</text>
<text text-anchor="start" x="734.2192" y="-334.8564" font-family="Ubuntu" font-size="10.00" fill="#000000">4</text>
<text text-anchor="start" x="743.5" y="-334.8564" font-family="Ubuntu" font-size="10.00" fill="#000000">urls</text>
<polygon fill="#a6cee3" stroke="transparent" points="795.5,-330.8564 795.5,-344.8564 920.5,-344.8564 920.5,-330.8564 795.5,-330.8564"/>
<text text-anchor="start" x="894.0469" y="-335.8564" font-family="Ubuntu" font-style="italic" font-size="10.00" fill="#000000">string</text>
<text text-anchor="start" x="734.2192" y="-320.8564" font-family="Ubuntu" font-size="10.00" fill="#000000">5</text>
<text text-anchor="start" x="743.5" y="-320.8564" font-family="Ubuntu" font-size="10.00" fill="#000000">description</text>
<polygon fill="#a6cee3" stroke="transparent" points="795.5,-316.8564 795.5,-330.8564 920.5,-330.8564 920.5,-316.8564 795.5,-316.8564"/>
<text text-anchor="start" x="894.0469" y="-321.8564" font-family="Ubuntu" font-style="italic" font-size="10.00" fill="#000000">string</text>
<text text-anchor="start" x="734.2192" y="-306.8564" font-family="Ubuntu" font-size="10.00" fill="#000000">6</text>
<text text-anchor="start" x="743.5" y="-306.8564" font-family="Ubuntu" font-size="10.00" fill="#000000">created_at</text>
<polygon fill="#fb9a99" stroke="transparent" points="795.5,-302.8564 795.5,-316.8564 920.5,-316.8564 920.5,-302.8564 795.5,-302.8564"/>
<text text-anchor="start" x="797.3164" y="-307.8564" font-family="Ubuntu" font-weight="bold" font-size="10.00" fill="#000000">google.protobuf.Timestamp</text>
<text text-anchor="start" x="734.2192" y="-292.8564" font-family="Ubuntu" font-size="10.00" fill="#000000">7</text>
<text text-anchor="start" x="743.4756" y="-292.8564" font-family="Ubuntu" font-size="10.00" fill="#000000">updated_at</text>
<polygon fill="#fb9a99" stroke="transparent" points="795.5,-288.8564 795.5,-302.8564 920.5,-302.8564 920.5,-288.8564 795.5,-288.8564"/>
<text text-anchor="start" x="797.3164" y="-293.8564" font-family="Ubuntu" font-weight="bold" font-size="10.00" fill="#000000">google.protobuf.Timestamp</text>
<text text-anchor="start" x="717.0542" y="-278.8564" font-family="Ubuntu" font-size="10.00" fill="#000000">[...]</text>
<text text-anchor="start" x="734.2192" y="-278.8564" font-family="Ubuntu" font-size="10.00" fill="#000000">8</text>
<text text-anchor="start" x="743.5" y="-278.8564" font-family="Ubuntu" font-size="10.00" fill="#000000">files</text>
<polygon fill="#fb9a99" stroke="transparent" points="795.5,-274.8564 795.5,-288.8564 920.5,-288.8564 920.5,-274.8564 795.5,-274.8564"/>
<text text-anchor="start" x="902.3867" y="-279.8564" font-family="Ubuntu" font-weight="bold" font-size="10.00" fill="#000000">File</text>
<polygon fill="none" stroke="#000000" points="714,-273.8564 714,-401.8564 921,-401.8564 921,-273.8564 714,-273.8564"/>
</a>
</g>
</g>
<!-- Node_Ja_104&#45;&gt;Node_Ja_102 -->
<g id="edge15" class="edge">
<title>Node_Ja_104:e&#45;&gt;Node_Ja_102:header</title>
<g id="a_edge15"><a xlink:title="Ja_104 &#45;&#45;&gt; Ja_102">
<path fill="none" stroke="#000000" d="M661,-433.8564C687.1729,-433.8564 686.3035,-403.5042 705.5045,-395.6791"/>
<polygon fill="#000000" stroke="#000000" points="706.2901,-399.0936 715.5,-393.8564 705.0343,-392.2072 706.2901,-399.0936"/>
</a>
</g>
</g>
<!-- Node_Ja_105 -->
<g id="node2" class="node">
<title>Node_Ja_105</title>
<g id="a_node2"><a xlink:title="magda.Entry">
<polygon fill="#fffaf0" stroke="transparent" points="307,-397.8564 307,-553.8564 526,-553.8564 526,-397.8564 307,-397.8564"/>
<polygon fill="#e31a1c" stroke="transparent" points="308.5,-538.8564 308.5,-552.8564 525.5,-552.8564 525.5,-538.8564 308.5,-538.8564"/>
<text text-anchor="start" x="500.1602" y="-543.8564" font-family="Ubuntu" font-weight="bold" font-size="10.00" fill="#000000">Entry</text>
<text text-anchor="start" x="332.9385" y="-528.8564" font-family="Ubuntu" font-size="10.00" fill="#000000">1</text>
<text text-anchor="start" x="342.5" y="-528.8564" font-family="Ubuntu" font-size="10.00" fill="#000000">id</text>
<polygon fill="#a6cee3" stroke="transparent" points="400.5,-524.8564 400.5,-538.8564 525.5,-538.8564 525.5,-524.8564 400.5,-524.8564"/>
<text text-anchor="start" x="499.0469" y="-529.8564" font-family="Ubuntu" font-style="italic" font-size="10.00" fill="#000000">string</text>
<text text-anchor="start" x="332.9385" y="-514.8564" font-family="Ubuntu" font-size="10.00" fill="#000000">2</text>
<text text-anchor="start" x="342.5" y="-514.8564" font-family="Ubuntu" font-size="10.00" fill="#000000">kind</text>
<polygon fill="#b2df8a" stroke="transparent" points="400.5,-510.8564 400.5,-524.8564 525.5,-524.8564 525.5,-510.8564 400.5,-510.8564"/>
<text text-anchor="start" x="503.4854" y="-515.8564" font-family="Ubuntu" text-decoration="underline" font-size="10.00" fill="#000000">Kind</text>
<text text-anchor="start" x="332.9385" y="-500.8564" font-family="Ubuntu" font-size="10.00" fill="#000000">3</text>
<text text-anchor="start" x="342.5" y="-500.8564" font-family="Ubuntu" font-size="10.00" fill="#000000">source</text>
<polygon fill="#fb9a99" stroke="transparent" points="400.5,-496.8564 400.5,-510.8564 525.5,-510.8564 525.5,-496.8564 400.5,-496.8564"/>
<text text-anchor="start" x="491.8154" y="-501.8564" font-family="Ubuntu" font-weight="bold" font-size="10.00" fill="#000000">Source</text>
<text text-anchor="start" x="310.0542" y="-486.8564" font-family="Ubuntu" font-size="10.00" fill="#000000">[...]</text>
<text text-anchor="start" x="332.9385" y="-486.8564" font-family="Ubuntu" font-size="10.00" fill="#000000">4</text>
<text text-anchor="start" x="342.5" y="-486.8564" font-family="Ubuntu" font-size="10.00" fill="#000000">titles</text>
<polygon fill="#a6cee3" stroke="transparent" points="400.5,-482.8564 400.5,-496.8564 525.5,-496.8564 525.5,-482.8564 400.5,-482.8564"/>
<text text-anchor="start" x="499.0469" y="-487.8564" font-family="Ubuntu" font-style="italic" font-size="10.00" fill="#000000">string</text>
<text text-anchor="start" x="310.0542" y="-472.8564" font-family="Ubuntu" font-size="10.00" fill="#000000">[...]</text>
<text text-anchor="start" x="332.9385" y="-472.8564" font-family="Ubuntu" font-size="10.00" fill="#000000">5</text>
<text text-anchor="start" x="342.5" y="-472.8564" font-family="Ubuntu" font-size="10.00" fill="#000000">files</text>
<polygon fill="#fb9a99" stroke="transparent" points="400.5,-468.8564 400.5,-482.8564 525.5,-482.8564 525.5,-468.8564 400.5,-468.8564"/>
<text text-anchor="start" x="507.3867" y="-473.8564" font-family="Ubuntu" font-weight="bold" font-size="10.00" fill="#000000">File</text>
<text text-anchor="start" x="332.9385" y="-458.8564" font-family="Ubuntu" font-size="10.00" fill="#000000">6</text>
<text text-anchor="start" x="342.5" y="-458.8564" font-family="Ubuntu" font-size="10.00" fill="#000000">description</text>
<polygon fill="#a6cee3" stroke="transparent" points="400.5,-454.8564 400.5,-468.8564 525.5,-468.8564 525.5,-454.8564 400.5,-454.8564"/>
<text text-anchor="start" x="499.0469" y="-459.8564" font-family="Ubuntu" font-style="italic" font-size="10.00" fill="#000000">string</text>
<text text-anchor="start" x="310.0542" y="-444.8564" font-family="Ubuntu" font-size="10.00" fill="#000000">[...]</text>
<text text-anchor="start" x="332.9385" y="-444.8564" font-family="Ubuntu" font-size="10.00" fill="#000000">7</text>
<text text-anchor="start" x="342.5" y="-444.8564" font-family="Ubuntu" font-size="10.00" fill="#000000">creators</text>
<polygon fill="#fb9a99" stroke="transparent" points="400.5,-440.8564 400.5,-454.8564 525.5,-454.8564 525.5,-440.8564 400.5,-440.8564"/>
<text text-anchor="start" x="498.4902" y="-445.8564" font-family="Ubuntu" font-weight="bold" font-size="10.00" fill="#000000">Entity</text>
<text text-anchor="start" x="332.9385" y="-430.8564" font-family="Ubuntu" font-size="10.00" fill="#000000">9</text>
<text text-anchor="start" x="342.1431" y="-430.8564" font-family="Ubuntu" font-size="10.00" fill="#000000">published_at</text>
<polygon fill="#fb9a99" stroke="transparent" points="400.5,-426.8564 400.5,-440.8564 525.5,-440.8564 525.5,-426.8564 400.5,-426.8564"/>
<text text-anchor="start" x="402.3164" y="-431.8564" font-family="Ubuntu" font-weight="bold" font-size="10.00" fill="#000000">google.protobuf.Timestamp</text>
<text text-anchor="start" x="327.4385" y="-416.8564" font-family="Ubuntu" font-size="10.00" fill="#000000">10</text>
<text text-anchor="start" x="342.5" y="-416.8564" font-family="Ubuntu" font-size="10.00" fill="#000000">created_at</text>
<polygon fill="#fb9a99" stroke="transparent" points="400.5,-412.8564 400.5,-426.8564 525.5,-426.8564 525.5,-412.8564 400.5,-412.8564"/>
<text text-anchor="start" x="402.3164" y="-417.8564" font-family="Ubuntu" font-weight="bold" font-size="10.00" fill="#000000">google.protobuf.Timestamp</text>
<text text-anchor="start" x="328.1143" y="-402.8564" font-family="Ubuntu" font-size="10.00" fill="#000000">11</text>
<text text-anchor="start" x="342.5" y="-402.8564" font-family="Ubuntu" font-size="10.00" fill="#000000">updated_at</text>
<polygon fill="#fb9a99" stroke="transparent" points="400.5,-398.8564 400.5,-412.8564 525.5,-412.8564 525.5,-398.8564 400.5,-398.8564"/>
<text text-anchor="start" x="402.3164" y="-403.8564" font-family="Ubuntu" font-weight="bold" font-size="10.00" fill="#000000">google.protobuf.Timestamp</text>
<polygon fill="none" stroke="#000000" points="307,-397.8564 307,-553.8564 526,-553.8564 526,-397.8564 307,-397.8564"/>
</a>
</g>
</g>
<!-- Node_Ja_105&#45;&gt;Node_Ja_104 -->
<g id="edge16" class="edge">
<title>Node_Ja_105:e&#45;&gt;Node_Ja_104:header</title>
<g id="a_edge16"><a xlink:title="Ja_105 &#45;&#45;&gt; Ja_104">
<path fill="none" stroke="#000000" d="M525.5,-503.8564C556.0222,-503.8564 547.416,-459.8253 569.0732,-449.8495"/>
<polygon fill="#000000" stroke="#000000" points="569.8847,-453.2565 579,-447.8564 568.5067,-446.3934 569.8847,-453.2565"/>
</a>
</g>
</g>
<!-- Node_Ja_101 -->
<g id="node3" class="node">
<title>Node_Ja_101</title>
<g id="a_node3"><a xlink:title="magda.File">
<polygon fill="#fffaf0" stroke="transparent" points="973,-307.8564 973,-435.8564 1174,-435.8564 1174,-307.8564 973,-307.8564"/>
<polygon fill="#e31a1c" stroke="transparent" points="974.5,-420.8564 974.5,-434.8564 1173.5,-434.8564 1173.5,-420.8564 974.5,-420.8564"/>
<text text-anchor="start" x="1155.3867" y="-425.8564" font-family="Ubuntu" font-weight="bold" font-size="10.00" fill="#000000">File</text>
<text text-anchor="start" x="980.2192" y="-410.8564" font-family="Ubuntu" font-size="10.00" fill="#000000">1</text>
<text text-anchor="start" x="989.5" y="-410.8564" font-family="Ubuntu" font-size="10.00" fill="#000000">path</text>
<polygon fill="#a6cee3" stroke="transparent" points="1048.5,-406.8564 1048.5,-420.8564 1173.5,-420.8564 1173.5,-406.8564 1048.5,-406.8564"/>
<text text-anchor="start" x="1147.0469" y="-411.8564" font-family="Ubuntu" font-style="italic" font-size="10.00" fill="#000000">string</text>
<text text-anchor="start" x="980.2192" y="-396.8564" font-family="Ubuntu" font-size="10.00" fill="#000000">2</text>
<text text-anchor="start" x="989.5" y="-396.8564" font-family="Ubuntu" font-size="10.00" fill="#000000">source_url</text>
<polygon fill="#a6cee3" stroke="transparent" points="1048.5,-392.8564 1048.5,-406.8564 1173.5,-406.8564 1173.5,-392.8564 1048.5,-392.8564"/>
<text text-anchor="start" x="1147.0469" y="-397.8564" font-family="Ubuntu" font-style="italic" font-size="10.00" fill="#000000">string</text>
<text text-anchor="start" x="980.2192" y="-382.8564" font-family="Ubuntu" font-size="10.00" fill="#000000">3</text>
<text text-anchor="start" x="989.3672" y="-382.8564" font-family="Ubuntu" font-size="10.00" fill="#000000">content_type</text>
<polygon fill="#a6cee3" stroke="transparent" points="1048.5,-378.8564 1048.5,-392.8564 1173.5,-392.8564 1173.5,-378.8564 1048.5,-378.8564"/>
<text text-anchor="start" x="1147.0469" y="-383.8564" font-family="Ubuntu" font-style="italic" font-size="10.00" fill="#000000">string</text>
<text text-anchor="start" x="980.2192" y="-368.8564" font-family="Ubuntu" font-size="10.00" fill="#000000">4</text>
<text text-anchor="start" x="989.5" y="-368.8564" font-family="Ubuntu" font-size="10.00" fill="#000000">filename</text>
<polygon fill="#a6cee3" stroke="transparent" points="1048.5,-364.8564 1048.5,-378.8564 1173.5,-378.8564 1173.5,-364.8564 1048.5,-364.8564"/>
<text text-anchor="start" x="1147.0469" y="-369.8564" font-family="Ubuntu" font-style="italic" font-size="10.00" fill="#000000">string</text>
<text text-anchor="start" x="980.2192" y="-354.8564" font-family="Ubuntu" font-size="10.00" fill="#000000">5</text>
<text text-anchor="start" x="989.5" y="-354.8564" font-family="Ubuntu" font-size="10.00" fill="#000000">width</text>
<polygon fill="#a6cee3" stroke="transparent" points="1048.5,-350.8564 1048.5,-364.8564 1173.5,-364.8564 1173.5,-350.8564 1048.5,-350.8564"/>
<text text-anchor="start" x="1149.8154" y="-355.8564" font-family="Ubuntu" font-style="italic" font-size="10.00" fill="#000000">int64</text>
<text text-anchor="start" x="980.2192" y="-340.8564" font-family="Ubuntu" font-size="10.00" fill="#000000">6</text>
<text text-anchor="start" x="989.5" y="-340.8564" font-family="Ubuntu" font-size="10.00" fill="#000000">hieght</text>
<polygon fill="#a6cee3" stroke="transparent" points="1048.5,-336.8564 1048.5,-350.8564 1173.5,-350.8564 1173.5,-336.8564 1048.5,-336.8564"/>
<text text-anchor="start" x="1149.8154" y="-341.8564" font-family="Ubuntu" font-style="italic" font-size="10.00" fill="#000000">int64</text>
<text text-anchor="start" x="980.2192" y="-326.8564" font-family="Ubuntu" font-size="10.00" fill="#000000">7</text>
<text text-anchor="start" x="989.5" y="-326.8564" font-family="Ubuntu" font-size="10.00" fill="#000000">created_at</text>
<polygon fill="#fb9a99" stroke="transparent" points="1048.5,-322.8564 1048.5,-336.8564 1173.5,-336.8564 1173.5,-322.8564 1048.5,-322.8564"/>
<text text-anchor="start" x="1050.3164" y="-327.8564" font-family="Ubuntu" font-weight="bold" font-size="10.00" fill="#000000">google.protobuf.Timestamp</text>
<text text-anchor="start" x="980.2192" y="-312.8564" font-family="Ubuntu" font-size="10.00" fill="#000000">8</text>
<text text-anchor="start" x="989.5" y="-312.8564" font-family="Ubuntu" font-size="10.00" fill="#000000">updated_at</text>
<polygon fill="#fb9a99" stroke="transparent" points="1048.5,-308.8564 1048.5,-322.8564 1173.5,-322.8564 1173.5,-308.8564 1048.5,-308.8564"/>
<text text-anchor="start" x="1050.3164" y="-313.8564" font-family="Ubuntu" font-weight="bold" font-size="10.00" fill="#000000">google.protobuf.Timestamp</text>
<polygon fill="none" stroke="#000000" points="973,-307.8564 973,-435.8564 1174,-435.8564 1174,-307.8564 973,-307.8564"/>
</a>
</g>
</g>
<!-- Node_Ja_105&#45;&gt;Node_Ja_101 -->
<g id="edge7" class="edge">
<title>Node_Ja_105:e&#45;&gt;Node_Ja_101:header</title>
<g id="a_edge7"><a xlink:title="Ja_105 &#45;&#45;&gt; Ja_101">
<path fill="none" stroke="#000000" d="M525.5,-475.8564C546.1044,-475.8564 549.6033,-485.9381 570,-488.8564 617.5161,-495.6549 630.2096,-493.3374 678,-488.8564 794.6415,-477.9198 823.441,-468.6522 937,-439.8564 950.1193,-436.5297 954.9093,-431.1705 964.5027,-428.9129"/>
<polygon fill="#000000" stroke="#000000" points="964.9232,-432.388 974.5,-427.8564 964.1875,-425.4268 964.9232,-432.388"/>
</a>
</g>
</g>
<!-- Node_Ja_100 -->
<g id="node7" class="node">
<title>Node_Ja_100</title>
<g id="a_node7"><a xlink:title="google.protobuf.Timestamp">
<polygon fill="#fffaf0" stroke="transparent" points="1226,-279.8564 1226,-323.8564 1307,-323.8564 1307,-279.8564 1226,-279.8564"/>
<polygon fill="#e31a1c" stroke="transparent" points="1227.5,-308.8564 1227.5,-322.8564 1306.5,-322.8564 1306.5,-308.8564 1227.5,-308.8564"/>
<text text-anchor="start" x="1255.4131" y="-313.8564" font-family="Ubuntu" font-weight="bold" font-size="10.00" fill="#000000">Timestamp</text>
<text text-anchor="start" x="1233.2192" y="-298.8564" font-family="Ubuntu" font-size="10.00" fill="#000000">1</text>
<text text-anchor="start" x="1242.377" y="-298.8564" font-family="Ubuntu" font-size="10.00" fill="#000000">seconds</text>
<polygon fill="#a6cee3" stroke="transparent" points="1281.5,-294.8564 1281.5,-308.8564 1306.5,-308.8564 1306.5,-294.8564 1281.5,-294.8564"/>
<text text-anchor="start" x="1283.1577" y="-299.8564" font-family="Ubuntu" font-style="italic" font-size="10.00" fill="#000000">int64</text>
<text text-anchor="start" x="1233.2192" y="-284.8564" font-family="Ubuntu" font-size="10.00" fill="#000000">2</text>
<text text-anchor="start" x="1242.5" y="-284.8564" font-family="Ubuntu" font-size="10.00" fill="#000000">nanos</text>
<polygon fill="#a6cee3" stroke="transparent" points="1281.5,-280.8564 1281.5,-294.8564 1306.5,-294.8564 1306.5,-280.8564 1281.5,-280.8564"/>
<text text-anchor="start" x="1283.1577" y="-285.8564" font-family="Ubuntu" font-style="italic" font-size="10.00" fill="#000000">int32</text>
<polygon fill="none" stroke="#000000" points="1226,-279.8564 1226,-323.8564 1307,-323.8564 1307,-279.8564 1226,-279.8564"/>
</a>
</g>
</g>
<!-- Node_Ja_105&#45;&gt;Node_Ja_100 -->
<g id="edge8" class="edge">
<title>Node_Ja_105:e&#45;&gt;Node_Ja_100:header</title>
<g id="a_edge8"><a xlink:title="Ja_105 &#45;&#45;&gt; Ja_100">
<path fill="none" stroke="#000000" d="M525.5,-433.8564C601.8827,-433.8564 532.4401,-334.3664 570,-267.8564 666.4371,-97.0884 763.0279,-84.7812 957,-55.8564 1059.4231,-40.5832 1111.7229,11.9407 1190,-55.8564 1231.1956,-91.5366 1177.2761,-287.2105 1217.4346,-313.0411"/>
<polygon fill="#000000" stroke="#000000" points="1216.9268,-316.5333 1227.5,-315.8564 1218.8124,-309.792 1216.9268,-316.5333"/>
</a>
</g>
</g>
<!-- Node_Ja_105&#45;&gt;Node_Ja_100 -->
<g id="edge9" class="edge">
<title>Node_Ja_105:e&#45;&gt;Node_Ja_100:header</title>
<g id="a_edge9"><a xlink:title="Ja_105 &#45;&#45;&gt; Ja_100">
<path fill="none" stroke="#000000" d="M525.5,-405.8564C559.7806,-405.8564 539.6627,-452.8936 570,-468.8564 630.9665,-500.9357 1135.9539,-516.5765 1190,-473.8564 1243.6349,-431.4613 1164.5443,-327.6097 1217.4001,-316.7745"/>
<polygon fill="#000000" stroke="#000000" points="1217.858,-320.2474 1227.5,-315.8564 1217.2242,-313.2762 1217.858,-320.2474"/>
</a>
</g>
</g>
<!-- Node_Ja_105&#45;&gt;Node_Ja_100 -->
<g id="edge17" class="edge">
<title>Node_Ja_105:e&#45;&gt;Node_Ja_100:header</title>
<g id="a_edge17"><a xlink:title="Ja_105 &#45;&#45;&gt; Ja_100">
<path fill="none" stroke="#000000" d="M525.5,-419.8564C563.1186,-419.8564 538.423,-471.41 570,-491.8564 801.3198,-641.6384 979.6975,-677.9472 1190,-499.8564 1250.829,-448.3445 1153.5426,-327.3883 1217.3885,-316.6251"/>
<polygon fill="#000000" stroke="#000000" points="1217.7941,-320.1045 1227.5,-315.8564 1217.2634,-313.1246 1217.7941,-320.1045"/>
</a>
</g>
</g>
<!-- Node_Ja_105&#45;&gt;Node_Ja_102 -->
<g id="edge4" class="edge">
<title>Node_Ja_105:e&#45;&gt;Node_Ja_102:header</title>
<g id="a_edge4"><a xlink:title="Ja_105 &#45;&#45;&gt; Ja_102">
<path fill="none" stroke="#000000" d="M525.5,-447.8564C547.3694,-447.8564 548.6599,-464.074 570,-468.8564 616.8382,-479.3531 637.1688,-494.0915 678,-468.8564 706.2345,-451.4065 684.3605,-405.5483 705.5658,-395.7255"/>
<polygon fill="#000000" stroke="#000000" points="706.3196,-399.1452 715.5,-393.8564 705.0252,-392.2659 706.3196,-399.1452"/>
</a>
</g>
</g>
<!-- Node_Ja_106 -->
<g id="node10" class="node">
<title>Node_Ja_106</title>
<g id="a_node10"><a xlink:title="Kind">
<polygon fill="#b2df8a" stroke="transparent" points="1047,-71.8564 1047,-115.8564 1100,-115.8564 1100,-71.8564 1047,-71.8564"/>
<polygon fill="#33a02c" stroke="transparent" points="1048.5,-100.8564 1048.5,-114.8564 1099.5,-114.8564 1099.5,-100.8564 1048.5,-100.8564"/>
<text text-anchor="start" x="1050.0962" y="-105.8564" font-family="Ubuntu" font-size="10.00" fill="#000000">enum </text>
<text text-anchor="start" x="1077.8892" y="-105.8564" font-family="Ubuntu" font-weight="bold" font-size="10.00" fill="#000000">Kind</text>
<polygon fill="#b2df8a" stroke="transparent" points="1048.5,-86.8564 1048.5,-100.8564 1088.5,-100.8564 1088.5,-86.8564 1048.5,-86.8564"/>
<text text-anchor="start" x="1050.5" y="-90.8564" font-family="Ubuntu" font-size="10.00" fill="#000000">QUOTE</text>
<polygon fill="#b2df8a" stroke="transparent" points="1088.5,-86.8564 1088.5,-100.8564 1099.5,-100.8564 1099.5,-86.8564 1088.5,-86.8564"/>
<text text-anchor="start" x="1090.5" y="-90.8564" font-family="Ubuntu" font-size="10.00" fill="#000000">0</text>
<polygon fill="#b2df8a" stroke="transparent" points="1048.5,-72.8564 1048.5,-86.8564 1088.5,-86.8564 1088.5,-72.8564 1048.5,-72.8564"/>
<text text-anchor="start" x="1050.5" y="-76.8564" font-family="Ubuntu" font-size="10.00" fill="#000000">IMAGE</text>
<polygon fill="#b2df8a" stroke="transparent" points="1088.5,-72.8564 1088.5,-86.8564 1099.5,-86.8564 1099.5,-72.8564 1088.5,-72.8564"/>
<text text-anchor="start" x="1090.5" y="-76.8564" font-family="Ubuntu" font-size="10.00" fill="#000000">1</text>
<polygon fill="none" stroke="#000000" points="1047,-71.8564 1047,-115.8564 1100,-115.8564 1100,-71.8564 1047,-71.8564"/>
</a>
</g>
</g>
<!-- Node_Ja_105&#45;&gt;Node_Ja_106 -->
<g id="edge14" class="edge">
<title>Node_Ja_105:e&#45;&gt;Node_Ja_106</title>
<g id="a_edge14"><a xlink:title="Ja_105 &#45;&#45;&gt; Ja_106">
<path fill="none" stroke="#008000" d="M525.5,-517.8564C587.832,-517.8564 537.0964,-437.7963 570,-384.8564 612.3037,-316.7923 632.8597,-304.5368 698,-257.8564 802.53,-182.9488 837.4311,-176.195 957,-128.8564 980.3283,-119.6205 1007.0949,-111.419 1029.0842,-105.281"/>
<polygon fill="#008000" stroke="#008000" points="1030.104,-108.6306 1038.8218,-102.6097 1028.2521,-101.88 1030.104,-108.6306"/>
</a>
</g>
</g>
<!-- Node_Ja_101&#45;&gt;Node_Ja_100 -->
<g id="edge6" class="edge">
<title>Node_Ja_101:e&#45;&gt;Node_Ja_100:header</title>
<g id="a_edge6"><a xlink:title="Ja_101 &#45;&#45;&gt; Ja_100">
<path fill="none" stroke="#000000" d="M1173.5,-315.8564C1193.75,-315.8564 1201.1855,-315.8564 1217.431,-315.8564"/>
<polygon fill="#000000" stroke="#000000" points="1217.5,-319.3565 1227.5,-315.8564 1217.5,-312.3565 1217.5,-319.3565"/>
</a>
</g>
</g>
<!-- Node_Ja_101&#45;&gt;Node_Ja_100 -->
<g id="edge11" class="edge">
<title>Node_Ja_101:e&#45;&gt;Node_Ja_100:header</title>
<g id="a_edge11"><a xlink:title="Ja_101 &#45;&#45;&gt; Ja_100">
<path fill="none" stroke="#000000" d="M1173.5,-329.8564C1194.4195,-329.8564 1200.8299,-319.8896 1217.2153,-316.775"/>
<polygon fill="#000000" stroke="#000000" points="1217.851,-320.2322 1227.5,-315.8564 1217.2283,-313.26 1217.851,-320.2322"/>
</a>
</g>
</g>
<!-- Node_Ja_110 -->
<g id="node4" class="node">
<title>Node_Ja_110</title>
<g id="a_node4"><a xlink:title="magda.EntryResponse">
<polygon fill="#fffaf0" stroke="transparent" points="181,-537.8564 181,-567.8564 255,-567.8564 255,-537.8564 181,-537.8564"/>
<polygon fill="#e31a1c" stroke="transparent" points="182,-552.8564 182,-566.8564 254,-566.8564 254,-552.8564 182,-552.8564"/>
<text text-anchor="start" x="183.8154" y="-557.8564" font-family="Ubuntu" font-weight="bold" font-size="10.00" fill="#000000">EntryResponse</text>
<text text-anchor="start" x="191.4385" y="-542.8564" font-family="Ubuntu" font-size="10.00" fill="#000000">1</text>
<text text-anchor="start" x="201" y="-542.8564" font-family="Ubuntu" font-size="10.00" fill="#000000">entry</text>
<polygon fill="#fb9a99" stroke="transparent" points="226,-538.8564 226,-552.8564 254,-552.8564 254,-538.8564 226,-538.8564"/>
<text text-anchor="start" x="228.6602" y="-543.8564" font-family="Ubuntu" font-weight="bold" font-size="10.00" fill="#000000">Entry</text>
<polygon fill="none" stroke="#000000" points="181,-537.8564 181,-567.8564 255,-567.8564 255,-537.8564 181,-537.8564"/>
</a>
</g>
</g>
<!-- Node_Ja_110&#45;&gt;Node_Ja_105 -->
<g id="edge10" class="edge">
<title>Node_Ja_110:e&#45;&gt;Node_Ja_105:header</title>
<g id="a_edge10"><a xlink:title="Ja_110 &#45;&#45;&gt; Ja_105">
<path fill="none" stroke="#000000" d="M254,-545.8564C274.4375,-545.8564 281.9419,-545.8564 298.3378,-545.8564"/>
<polygon fill="#000000" stroke="#000000" points="298.5,-549.3565 308.5,-545.8564 298.5,-542.3565 298.5,-549.3565"/>
</a>
</g>
</g>
<!-- Node_Ja_107 -->
<g id="node5" class="node">
<title>Node_Ja_107</title>
<g id="a_node5"><a xlink:title="MagdaService">
<polygon fill="#ffd700" stroke="transparent" points="8,-572.8564 8,-616.8564 129,-616.8564 129,-572.8564 8,-572.8564"/>
<polygon fill="#ff7f50" stroke="transparent" points="9.5,-601.8564 9.5,-615.8564 128.5,-615.8564 128.5,-601.8564 9.5,-601.8564"/>
<text text-anchor="start" x="62.5791" y="-606.8564" font-family="Ubuntu" font-weight="bold" font-size="10.00" fill="#000000">MagdaService</text>
<text text-anchor="start" x="11.271" y="-592.8564" font-family="Ubuntu" font-weight="bold" font-size="10.00" fill="#000000">GetEntry</text>
<text text-anchor="start" x="65.9141" y="-591.8564" font-family="Ubuntu" font-size="10.00" fill="#000000">EntryRequest</text>
<polygon fill="#ff7f50" stroke="transparent" points="52.5,-573.8564 52.5,-587.8564 56.5,-587.8564 56.5,-573.8564 52.5,-573.8564"/>
<polygon fill="#ff7f50" stroke="transparent" points="56.5,-573.8564 56.5,-587.8564 128.5,-587.8564 128.5,-573.8564 56.5,-573.8564"/>
<text text-anchor="start" x="58.3154" y="-577.8564" font-family="Ubuntu" font-size="10.00" fill="#000000">EntryResponse</text>
<polygon fill="none" stroke="#000000" points="8,-572.8564 8,-616.8564 129,-616.8564 129,-572.8564 8,-572.8564"/>
</a>
</g>
</g>
<!-- Node_Ja_107&#45;&gt;Node_Ja_110 -->
<g id="edge1" class="edge">
<title>Node_Ja_107:e&#45;&gt;Node_Ja_110:header</title>
<g id="a_edge1"><a xlink:title="Ja_107 &#45;&#45;&gt; Ja_110">
<path fill="none" stroke="#000000" d="M128.5,-580.8564C150.2523,-580.8564 155.2303,-565.6281 172.0027,-561.1072"/>
<polygon fill="#000000" stroke="#000000" points="172.5119,-564.5708 182,-559.8564 171.6428,-557.625 172.5119,-564.5708"/>
</a>
</g>
</g>
<!-- Node_Ja_109 -->
<g id="node6" class="node">
<title>Node_Ja_109</title>
<g id="a_node6"><a xlink:title="magda.EntryRequest">
<polygon fill="#fffaf0" stroke="transparent" points="185,-593.8564 185,-623.8564 251,-623.8564 251,-593.8564 185,-593.8564"/>
<polygon fill="#e31a1c" stroke="transparent" points="186,-608.8564 186,-622.8564 250,-622.8564 250,-608.8564 186,-608.8564"/>
<text text-anchor="start" x="187.707" y="-613.8564" font-family="Ubuntu" font-weight="bold" font-size="10.00" fill="#000000">EntryRequest</text>
<text text-anchor="start" x="200.4385" y="-598.8564" font-family="Ubuntu" font-size="10.00" fill="#000000">1</text>
<text text-anchor="start" x="210" y="-598.8564" font-family="Ubuntu" font-size="10.00" fill="#000000">id</text>
<polygon fill="#a6cee3" stroke="transparent" points="220,-594.8564 220,-608.8564 250,-608.8564 250,-594.8564 220,-594.8564"/>
<text text-anchor="start" x="223.5469" y="-599.8564" font-family="Ubuntu" font-style="italic" font-size="10.00" fill="#000000">string</text>
<polygon fill="none" stroke="#000000" points="185,-593.8564 185,-623.8564 251,-623.8564 251,-593.8564 185,-593.8564"/>
</a>
</g>
</g>
<!-- Node_Ja_107&#45;&gt;Node_Ja_109 -->
<g id="edge5" class="edge">
<title>Node_Ja_107:e&#45;&gt;Node_Ja_109:header</title>
<g id="a_edge5"><a xlink:title="Ja_107 &#45;&#45;&gt; Ja_109">
<path fill="none" stroke="#000000" d="M128.5,-594.8564C151.8806,-594.8564 157.4483,-610.3654 175.819,-614.7274"/>
<polygon fill="#000000" stroke="#000000" points="175.6751,-618.2328 186,-615.8564 176.4467,-611.2754 175.6751,-618.2328"/>
</a>
</g>
</g>
<!-- Node_Ja_102&#45;&gt;Node_Ja_101 -->
<g id="edge3" class="edge">
<title>Node_Ja_102:e&#45;&gt;Node_Ja_101:header</title>
<g id="a_edge3"><a xlink:title="Ja_102 &#45;&#45;&gt; Ja_101">
<path fill="none" stroke="#000000" d="M920.5,-281.8564C985.9015,-281.8564 914.0837,-412.3243 964.4768,-426.5942"/>
<polygon fill="#000000" stroke="#000000" points="964.141,-430.0795 974.5,-427.8564 965.0157,-423.1343 964.141,-430.0795"/>
</a>
</g>
</g>
<!-- Node_Ja_102&#45;&gt;Node_Ja_100 -->
<g id="edge12" class="edge">
<title>Node_Ja_102:e&#45;&gt;Node_Ja_100:header</title>
<g id="a_edge12"><a xlink:title="Ja_102 &#45;&#45;&gt; Ja_100">
<path fill="none" stroke="#000000" d="M920.5,-309.8564C938.5876,-309.8564 939.3849,-295.9637 957,-291.8564 1057.8503,-268.3412 1090.6117,-262.7751 1190,-291.8564 1205.1338,-296.2846 1207.3956,-308.8956 1217.703,-313.8361"/>
<polygon fill="#000000" stroke="#000000" points="1216.9992,-317.2645 1227.5,-315.8564 1218.413,-310.4088 1216.9992,-317.2645"/>
</a>
</g>
</g>
<!-- Node_Ja_102&#45;&gt;Node_Ja_100 -->
<g id="edge13" class="edge">
<title>Node_Ja_102:e&#45;&gt;Node_Ja_100:header</title>
<g id="a_edge13"><a xlink:title="Ja_102 &#45;&#45;&gt; Ja_100">
<path fill="none" stroke="#000000" d="M920.5,-295.8564C940.9457,-295.8564 937.639,-274.4272 957,-267.8564 1055.062,-234.5758 1096.9254,-222.4596 1190,-267.8564 1210.5301,-277.8699 1203.8395,-305.1575 1217.509,-313.4404"/>
<polygon fill="#000000" stroke="#000000" points="1216.9575,-316.9078 1227.5,-315.8564 1218.6028,-310.1039 1216.9575,-316.9078"/>
</a>
</g>
</g>
<!-- Node_Ja_103 -->
<g id="node9" class="node">
<title>Node_Ja_103</title>
<g id="a_node9"><a xlink:title="Kind">
<polygon fill="#b2df8a" stroke="transparent" points="1028.5,-141.8564 1028.5,-185.8564 1118.5,-185.8564 1118.5,-141.8564 1028.5,-141.8564"/>
<polygon fill="#33a02c" stroke="transparent" points="1029.5,-170.8564 1029.5,-184.8564 1117.5,-184.8564 1117.5,-170.8564 1029.5,-170.8564"/>
<text text-anchor="start" x="1067.6924" y="-175.8564" font-family="Ubuntu" font-size="10.00" fill="#000000">enum </text>
<text text-anchor="start" x="1095.4854" y="-175.8564" font-family="Ubuntu" font-weight="bold" font-size="10.00" fill="#000000">Kind</text>
<polygon fill="#b2df8a" stroke="transparent" points="1029.5,-156.8564 1029.5,-170.8564 1108.5,-170.8564 1108.5,-156.8564 1029.5,-156.8564"/>
<text text-anchor="start" x="1031.5" y="-160.8564" font-family="Ubuntu" font-size="10.00" fill="#000000">PERSON</text>
<polygon fill="#b2df8a" stroke="transparent" points="1108.5,-156.8564 1108.5,-170.8564 1117.5,-170.8564 1117.5,-156.8564 1108.5,-156.8564"/>
<text text-anchor="start" x="1110.2192" y="-160.8564" font-family="Ubuntu" font-size="10.00" fill="#000000">0</text>
<polygon fill="#b2df8a" stroke="transparent" points="1029.5,-142.8564 1029.5,-156.8564 1108.5,-156.8564 1108.5,-142.8564 1029.5,-142.8564"/>
<text text-anchor="start" x="1031.312" y="-146.8564" font-family="Ubuntu" font-size="10.00" fill="#000000">ORGANIZATION</text>
<polygon fill="#b2df8a" stroke="transparent" points="1108.5,-142.8564 1108.5,-156.8564 1117.5,-156.8564 1117.5,-142.8564 1108.5,-142.8564"/>
<text text-anchor="start" x="1110.2192" y="-146.8564" font-family="Ubuntu" font-size="10.00" fill="#000000">1</text>
<polygon fill="none" stroke="#000000" points="1028.5,-141.8564 1028.5,-185.8564 1118.5,-185.8564 1118.5,-141.8564 1028.5,-141.8564"/>
</a>
</g>
</g>
<!-- Node_Ja_102&#45;&gt;Node_Ja_103 -->
<g id="edge2" class="edge">
<title>Node_Ja_102:e&#45;&gt;Node_Ja_103</title>
<g id="a_edge2"><a xlink:title="Ja_102 &#45;&#45;&gt; Ja_103">
<path fill="none" stroke="#008000" d="M920.5,-365.8564C985.6627,-365.8564 916.3615,-274.7944 957,-223.8564 970.902,-206.431 991.2286,-193.555 1011.0254,-184.2985"/>
<polygon fill="#008000" stroke="#008000" points="1012.6332,-187.4145 1020.3635,-180.1693 1009.8023,-181.0125 1012.6332,-187.4145"/>
</a>
</g>
</g>
</g>
</svg>
