<?xml version="1.0" encoding="UTF-8" standalone="no"?>
<!DOCTYPE svg PUBLIC "-//W3C//DTD SVG 1.1//EN"
 "http://www.w3.org/Graphics/SVG/1.1/DTD/svg11.dtd">
<!-- Generated by graphviz version 2.40.1 (20161225.0304)
 -->
<!-- Title: protodot Pages: 1 -->
<svg width="1339pt" height="602pt"
 viewBox="0.00 0.00 1339.00 601.82" xmlns="http://www.w3.org/2000/svg" xmlns:xlink="http://www.w3.org/1999/xlink">
<g id="graph0" class="graph" transform="scale(1 1) rotate(0) translate(4 597.8233)">
<title>protodot</title>
<g id="a_graph0"><a xlink:title="magda">
<text text-anchor="middle" x="665.5" y="-6.8" font-family="Times,serif" font-size="14.00" fill="#000000">magda</text>
</a>
</g>
<g id="clust1" class="cluster">
<title>cluster_9d1e3c2635ff</title>
<g id="a_clust1"><a xlink:title="magda">
<polygon fill="#caff70" stroke="#000000" points="1012.5,-361.6547 1012.5,-521.6547 1134.5,-521.6547 1134.5,-361.6547 1012.5,-361.6547"/>
<text text-anchor="middle" x="1073.5" y="-506.4547" font-family="Times,serif" font-size="14.00" fill="#000000">magda</text>
</a>
</g>
</g>
<g id="clust2" class="cluster">
<title>cluster_5627932c6abb</title>
<g id="a_clust2"><a xlink:title="timestamp.proto">
<polygon fill="#caff70" stroke="#000000" points="1210,-97.6547 1210,-187.6547 1323,-187.6547 1323,-97.6547 1210,-97.6547"/>
<text text-anchor="middle" x="1266.5" y="-172.4547" font-family="Times,serif" font-size="14.00" fill="#000000">timestamp.proto</text>
</a>
</g>
</g>
<g id="clust3" class="cluster">
<title>cluster_f56b993e78fb</title>
<g id="a_clust3"><a xlink:title="entity.proto">
<polygon fill="#caff70" stroke="#000000" points="698,-269.6547 698,-443.6547 937,-443.6547 937,-269.6547 698,-269.6547"/>
<text text-anchor="middle" x="817.5" y="-428.4547" font-family="Times,serif" font-size="14.00" fill="#000000">entity.proto</text>
</a>
</g>
</g>
<g id="clust4" class="cluster">
<title>cluster_8b180d234311</title>
<g id="a_clust4"><a xlink:title="file.proto">
<polygon fill="#caff70" stroke="#000000" points="957,-111.6547 957,-285.6547 1190,-285.6547 1190,-111.6547 957,-111.6547"/>
<text text-anchor="middle" x="1073.5" y="-270.4547" font-family="Times,serif" font-size="14.00" fill="#000000">file.proto</text>
</a>
</g>
</g>
<g id="clust5" class="cluster">
<title>cluster_b5eb5ae3708a</title>
<g id="a_clust5"><a xlink:title="entry.proto">
<polygon fill="#caff70" stroke="#000000" points="291,-171.6547 291,-373.6547 678,-373.6547 678,-171.6547 291,-171.6547"/>
<text text-anchor="middle" x="484.5" y="-358.4547" font-family="Times,serif" font-size="14.00" fill="#000000">entry.proto</text>
</a>
</g>
</g>
<!-- Node_Ja_106 -->
<g id="node1" class="node">
<title>Node_Ja_106</title>
<g id="a_node1"><a xlink:title="Kind">
<polygon fill="#b2df8a" stroke="transparent" points="1047,-443.6547 1047,-487.6547 1100,-487.6547 1100,-443.6547 1047,-443.6547"/>
<polygon fill="#33a02c" stroke="transparent" points="1048.5,-472.6547 1048.5,-486.6547 1099.5,-486.6547 1099.5,-472.6547 1048.5,-472.6547"/>
<text text-anchor="start" x="1050.0962" y="-477.6547" font-family="Ubuntu" font-size="10.00" fill="#000000">enum </text>
<text text-anchor="start" x="1077.8892" y="-477.6547" font-family="Ubuntu" font-weight="bold" font-size="10.00" fill="#000000">Kind</text>
<polygon fill="#b2df8a" stroke="transparent" points="1048.5,-458.6547 1048.5,-472.6547 1088.5,-472.6547 1088.5,-458.6547 1048.5,-458.6547"/>
<text text-anchor="start" x="1050.5" y="-462.6547" font-family="Ubuntu" font-size="10.00" fill="#000000">QUOTE</text>
<polygon fill="#b2df8a" stroke="transparent" points="1088.5,-458.6547 1088.5,-472.6547 1099.5,-472.6547 1099.5,-458.6547 1088.5,-458.6547"/>
<text text-anchor="start" x="1090.5" y="-462.6547" font-family="Ubuntu" font-size="10.00" fill="#000000">0</text>
<polygon fill="#b2df8a" stroke="transparent" points="1048.5,-444.6547 1048.5,-458.6547 1088.5,-458.6547 1088.5,-444.6547 1048.5,-444.6547"/>
<text text-anchor="start" x="1050.5" y="-448.6547" font-family="Ubuntu" font-size="10.00" fill="#000000">IMAGE</text>
<polygon fill="#b2df8a" stroke="transparent" points="1088.5,-444.6547 1088.5,-458.6547 1099.5,-458.6547 1099.5,-444.6547 1088.5,-444.6547"/>
<text text-anchor="start" x="1090.5" y="-448.6547" font-family="Ubuntu" font-size="10.00" fill="#000000">1</text>
<polygon fill="none" stroke="#000000" points="1047,-443.6547 1047,-487.6547 1100,-487.6547 1100,-443.6547 1047,-443.6547"/>
</a>
</g>
</g>
<!-- Node_Ja_103 -->
<g id="node2" class="node">
<title>Node_Ja_103</title>
<g id="a_node2"><a xlink:title="Kind">
<polygon fill="#b2df8a" stroke="transparent" points="1028.5,-373.6547 1028.5,-417.6547 1118.5,-417.6547 1118.5,-373.6547 1028.5,-373.6547"/>
<polygon fill="#33a02c" stroke="transparent" points="1029.5,-402.6547 1029.5,-416.6547 1117.5,-416.6547 1117.5,-402.6547 1029.5,-402.6547"/>
<text text-anchor="start" x="1067.6924" y="-407.6547" font-family="Ubuntu" font-size="10.00" fill="#000000">enum </text>
<text text-anchor="start" x="1095.4854" y="-407.6547" font-family="Ubuntu" font-weight="bold" font-size="10.00" fill="#000000">Kind</text>
<polygon fill="#b2df8a" stroke="transparent" points="1029.5,-388.6547 1029.5,-402.6547 1108.5,-402.6547 1108.5,-388.6547 1029.5,-388.6547"/>
<text text-anchor="start" x="1031.5" y="-392.6547" font-family="Ubuntu" font-size="10.00" fill="#000000">PERSON</text>
<polygon fill="#b2df8a" stroke="transparent" points="1108.5,-388.6547 1108.5,-402.6547 1117.5,-402.6547 1117.5,-388.6547 1108.5,-388.6547"/>
<text text-anchor="start" x="1110.2192" y="-392.6547" font-family="Ubuntu" font-size="10.00" fill="#000000">0</text>
<polygon fill="#b2df8a" stroke="transparent" points="1029.5,-374.6547 1029.5,-388.6547 1108.5,-388.6547 1108.5,-374.6547 1029.5,-374.6547"/>
<text text-anchor="start" x="1031.312" y="-378.6547" font-family="Ubuntu" font-size="10.00" fill="#000000">ORGANIZATION</text>
<polygon fill="#b2df8a" stroke="transparent" points="1108.5,-374.6547 1108.5,-388.6547 1117.5,-388.6547 1117.5,-374.6547 1108.5,-374.6547"/>
<text text-anchor="start" x="1110.2192" y="-378.6547" font-family="Ubuntu" font-size="10.00" fill="#000000">1</text>
<polygon fill="none" stroke="#000000" points="1028.5,-373.6547 1028.5,-417.6547 1118.5,-417.6547 1118.5,-373.6547 1028.5,-373.6547"/>
</a>
</g>
</g>
<!-- Node_Ja_109 -->
<g id="node3" class="node">
<title>Node_Ja_109</title>
<g id="a_node3"><a xlink:title="magda.EntryRequest">
<polygon fill="#fffaf0" stroke="transparent" points="185,-379.6547 185,-409.6547 251,-409.6547 251,-379.6547 185,-379.6547"/>
<polygon fill="#e31a1c" stroke="transparent" points="186,-394.6547 186,-408.6547 250,-408.6547 250,-394.6547 186,-394.6547"/>
<text text-anchor="start" x="187.707" y="-399.6547" font-family="Ubuntu" font-weight="bold" font-size="10.00" fill="#000000">EntryRequest</text>
<text text-anchor="start" x="200.4385" y="-384.6547" font-family="Ubuntu" font-size="10.00" fill="#000000">1</text>
<text text-anchor="start" x="210" y="-384.6547" font-family="Ubuntu" font-size="10.00" fill="#000000">id</text>
<polygon fill="#a6cee3" stroke="transparent" points="220,-380.6547 220,-394.6547 250,-394.6547 250,-380.6547 220,-380.6547"/>
<text text-anchor="start" x="223.5469" y="-385.6547" font-family="Ubuntu" font-style="italic" font-size="10.00" fill="#000000">string</text>
<polygon fill="none" stroke="#000000" points="185,-379.6547 185,-409.6547 251,-409.6547 251,-379.6547 185,-379.6547"/>
</a>
</g>
</g>
<!-- Node_Ja_110 -->
<g id="node4" class="node">
<title>Node_Ja_110</title>
<g id="a_node4"><a xlink:title="magda.EntryResponse">
<polygon fill="#fffaf0" stroke="transparent" points="181,-323.6547 181,-353.6547 255,-353.6547 255,-323.6547 181,-323.6547"/>
<polygon fill="#e31a1c" stroke="transparent" points="182,-338.6547 182,-352.6547 254,-352.6547 254,-338.6547 182,-338.6547"/>
<text text-anchor="start" x="183.8154" y="-343.6547" font-family="Ubuntu" font-weight="bold" font-size="10.00" fill="#000000">EntryResponse</text>
<text text-anchor="start" x="191.4385" y="-328.6547" font-family="Ubuntu" font-size="10.00" fill="#000000">1</text>
<text text-anchor="start" x="201" y="-328.6547" font-family="Ubuntu" font-size="10.00" fill="#000000">entry</text>
<polygon fill="#fb9a99" stroke="transparent" points="226,-324.6547 226,-338.6547 254,-338.6547 254,-324.6547 226,-324.6547"/>
<text text-anchor="start" x="228.6602" y="-329.6547" font-family="Ubuntu" font-weight="bold" font-size="10.00" fill="#000000">Entry</text>
<polygon fill="none" stroke="#000000" points="181,-323.6547 181,-353.6547 255,-353.6547 255,-323.6547 181,-323.6547"/>
</a>
</g>
</g>
<!-- Node_Ja_105 -->
<g id="node9" class="node">
<title>Node_Ja_105</title>
<g id="a_node9"><a xlink:title="magda.Entry">
<polygon fill="#fffaf0" stroke="transparent" points="307,-183.6547 307,-339.6547 526,-339.6547 526,-183.6547 307,-183.6547"/>
<polygon fill="#e31a1c" stroke="transparent" points="308.5,-324.6547 308.5,-338.6547 525.5,-338.6547 525.5,-324.6547 308.5,-324.6547"/>
<text text-anchor="start" x="500.1602" y="-329.6547" font-family="Ubuntu" font-weight="bold" font-size="10.00" fill="#000000">Entry</text>
<text text-anchor="start" x="332.9385" y="-314.6547" font-family="Ubuntu" font-size="10.00" fill="#000000">1</text>
<text text-anchor="start" x="342.5" y="-314.6547" font-family="Ubuntu" font-size="10.00" fill="#000000">id</text>
<polygon fill="#a6cee3" stroke="transparent" points="400.5,-310.6547 400.5,-324.6547 525.5,-324.6547 525.5,-310.6547 400.5,-310.6547"/>
<text text-anchor="start" x="499.0469" y="-315.6547" font-family="Ubuntu" font-style="italic" font-size="10.00" fill="#000000">string</text>
<text text-anchor="start" x="332.9385" y="-300.6547" font-family="Ubuntu" font-size="10.00" fill="#000000">2</text>
<text text-anchor="start" x="342.5" y="-300.6547" font-family="Ubuntu" font-size="10.00" fill="#000000">kind</text>
<polygon fill="#b2df8a" stroke="transparent" points="400.5,-296.6547 400.5,-310.6547 525.5,-310.6547 525.5,-296.6547 400.5,-296.6547"/>
<text text-anchor="start" x="503.4854" y="-301.6547" font-family="Ubuntu" text-decoration="underline" font-size="10.00" fill="#000000">Kind</text>
<text text-anchor="start" x="332.9385" y="-286.6547" font-family="Ubuntu" font-size="10.00" fill="#000000">3</text>
<text text-anchor="start" x="342.5" y="-286.6547" font-family="Ubuntu" font-size="10.00" fill="#000000">source</text>
<polygon fill="#fb9a99" stroke="transparent" points="400.5,-282.6547 400.5,-296.6547 525.5,-296.6547 525.5,-282.6547 400.5,-282.6547"/>
<text text-anchor="start" x="491.8154" y="-287.6547" font-family="Ubuntu" font-weight="bold" font-size="10.00" fill="#000000">Source</text>
<text text-anchor="start" x="310.0542" y="-272.6547" font-family="Ubuntu" font-size="10.00" fill="#000000">[...]</text>
<text text-anchor="start" x="332.9385" y="-272.6547" font-family="Ubuntu" font-size="10.00" fill="#000000">4</text>
<text text-anchor="start" x="342.5" y="-272.6547" font-family="Ubuntu" font-size="10.00" fill="#000000">titles</text>
<polygon fill="#a6cee3" stroke="transparent" points="400.5,-268.6547 400.5,-282.6547 525.5,-282.6547 525.5,-268.6547 400.5,-268.6547"/>
<text text-anchor="start" x="499.0469" y="-273.6547" font-family="Ubuntu" font-style="italic" font-size="10.00" fill="#000000">string</text>
<text text-anchor="start" x="310.0542" y="-258.6547" font-family="Ubuntu" font-size="10.00" fill="#000000">[...]</text>
<text text-anchor="start" x="332.9385" y="-258.6547" font-family="Ubuntu" font-size="10.00" fill="#000000">5</text>
<text text-anchor="start" x="342.5" y="-258.6547" font-family="Ubuntu" font-size="10.00" fill="#000000">files</text>
<polygon fill="#fb9a99" stroke="transparent" points="400.5,-254.6547 400.5,-268.6547 525.5,-268.6547 525.5,-254.6547 400.5,-254.6547"/>
<text text-anchor="start" x="507.3867" y="-259.6547" font-family="Ubuntu" font-weight="bold" font-size="10.00" fill="#000000">File</text>
<text text-anchor="start" x="332.9385" y="-244.6547" font-family="Ubuntu" font-size="10.00" fill="#000000">6</text>
<text text-anchor="start" x="342.5" y="-244.6547" font-family="Ubuntu" font-size="10.00" fill="#000000">description</text>
<polygon fill="#a6cee3" stroke="transparent" points="400.5,-240.6547 400.5,-254.6547 525.5,-254.6547 525.5,-240.6547 400.5,-240.6547"/>
<text text-anchor="start" x="499.0469" y="-245.6547" font-family="Ubuntu" font-style="italic" font-size="10.00" fill="#000000">string</text>
<text text-anchor="start" x="310.0542" y="-230.6547" font-family="Ubuntu" font-size="10.00" fill="#000000">[...]</text>
<text text-anchor="start" x="332.9385" y="-230.6547" font-family="Ubuntu" font-size="10.00" fill="#000000">7</text>
<text text-anchor="start" x="342.5" y="-230.6547" font-family="Ubuntu" font-size="10.00" fill="#000000">creators</text>
<polygon fill="#fb9a99" stroke="transparent" points="400.5,-226.6547 400.5,-240.6547 525.5,-240.6547 525.5,-226.6547 400.5,-226.6547"/>
<text text-anchor="start" x="498.4902" y="-231.6547" font-family="Ubuntu" font-weight="bold" font-size="10.00" fill="#000000">Entity</text>
<text text-anchor="start" x="332.9385" y="-216.6547" font-family="Ubuntu" font-size="10.00" fill="#000000">9</text>
<text text-anchor="start" x="342.1431" y="-216.6547" font-family="Ubuntu" font-size="10.00" fill="#000000">published_at</text>
<polygon fill="#fb9a99" stroke="transparent" points="400.5,-212.6547 400.5,-226.6547 525.5,-226.6547 525.5,-212.6547 400.5,-212.6547"/>
<text text-anchor="start" x="402.3164" y="-217.6547" font-family="Ubuntu" font-weight="bold" font-size="10.00" fill="#000000">google.protobuf.Timestamp</text>
<text text-anchor="start" x="327.4385" y="-202.6547" font-family="Ubuntu" font-size="10.00" fill="#000000">10</text>
<text text-anchor="start" x="342.5" y="-202.6547" font-family="Ubuntu" font-size="10.00" fill="#000000">created_at</text>
<polygon fill="#fb9a99" stroke="transparent" points="400.5,-198.6547 400.5,-212.6547 525.5,-212.6547 525.5,-198.6547 400.5,-198.6547"/>
<text text-anchor="start" x="402.3164" y="-203.6547" font-family="Ubuntu" font-weight="bold" font-size="10.00" fill="#000000">google.protobuf.Timestamp</text>
<text text-anchor="start" x="328.1143" y="-188.6547" font-family="Ubuntu" font-size="10.00" fill="#000000">11</text>
<text text-anchor="start" x="342.5" y="-188.6547" font-family="Ubuntu" font-size="10.00" fill="#000000">updated_at</text>
<polygon fill="#fb9a99" stroke="transparent" points="400.5,-184.6547 400.5,-198.6547 525.5,-198.6547 525.5,-184.6547 400.5,-184.6547"/>
<text text-anchor="start" x="402.3164" y="-189.6547" font-family="Ubuntu" font-weight="bold" font-size="10.00" fill="#000000">google.protobuf.Timestamp</text>
<polygon fill="none" stroke="#000000" points="307,-183.6547 307,-339.6547 526,-339.6547 526,-183.6547 307,-183.6547"/>
</a>
</g>
</g>
<!-- Node_Ja_110&#45;&gt;Node_Ja_105 -->
<g id="edge2" class="edge">
<title>Node_Ja_110:e&#45;&gt;Node_Ja_105:header</title>
<g id="a_edge2"><a xlink:title="Ja_110 &#45;&#45;&gt; Ja_105">
<path fill="none" stroke="#000000" d="M254,-331.6547C274.4375,-331.6547 281.9419,-331.6547 298.3378,-331.6547"/>
<polygon fill="#000000" stroke="#000000" points="298.5,-335.1548 308.5,-331.6547 298.5,-328.1548 298.5,-335.1548"/>
</a>
</g>
</g>
<!-- Node_Ja_107 -->
<g id="node5" class="node">
<title>Node_Ja_107</title>
<g id="a_node5"><a xlink:title="MagdaService">
<polygon fill="#ffd700" stroke="transparent" points="8,-358.6547 8,-402.6547 129,-402.6547 129,-358.6547 8,-358.6547"/>
<polygon fill="#ff7f50" stroke="transparent" points="9.5,-387.6547 9.5,-401.6547 128.5,-401.6547 128.5,-387.6547 9.5,-387.6547"/>
<text text-anchor="start" x="62.5791" y="-392.6547" font-family="Ubuntu" font-weight="bold" font-size="10.00" fill="#000000">MagdaService</text>
<text text-anchor="start" x="11.271" y="-378.6547" font-family="Ubuntu" font-weight="bold" font-size="10.00" fill="#000000">GetEntry</text>
<text text-anchor="start" x="65.9141" y="-377.6547" font-family="Ubuntu" font-size="10.00" fill="#000000">EntryRequest</text>
<polygon fill="#ff7f50" stroke="transparent" points="52.5,-359.6547 52.5,-373.6547 56.5,-373.6547 56.5,-359.6547 52.5,-359.6547"/>
<polygon fill="#ff7f50" stroke="transparent" points="56.5,-359.6547 56.5,-373.6547 128.5,-373.6547 128.5,-359.6547 56.5,-359.6547"/>
<text text-anchor="start" x="58.3154" y="-363.6547" font-family="Ubuntu" font-size="10.00" fill="#000000">EntryResponse</text>
<polygon fill="none" stroke="#000000" points="8,-358.6547 8,-402.6547 129,-402.6547 129,-358.6547 8,-358.6547"/>
</a>
</g>
</g>
<!-- Node_Ja_107&#45;&gt;Node_Ja_109 -->
<g id="edge12" class="edge">
<title>Node_Ja_107:e&#45;&gt;Node_Ja_109:header</title>
<g id="a_edge12"><a xlink:title="Ja_107 &#45;&#45;&gt; Ja_109">
<path fill="none" stroke="#000000" d="M128.5,-380.6547C151.8806,-380.6547 157.4483,-396.1637 175.819,-400.5256"/>
<polygon fill="#000000" stroke="#000000" points="175.6751,-404.0311 186,-401.6547 176.4467,-397.0737 175.6751,-404.0311"/>
</a>
</g>
</g>
<!-- Node_Ja_107&#45;&gt;Node_Ja_110 -->
<g id="edge1" class="edge">
<title>Node_Ja_107:e&#45;&gt;Node_Ja_110:header</title>
<g id="a_edge1"><a xlink:title="Ja_107 &#45;&#45;&gt; Ja_110">
<path fill="none" stroke="#000000" d="M128.5,-366.6547C150.2523,-366.6547 155.2303,-351.4264 172.0027,-346.9055"/>
<polygon fill="#000000" stroke="#000000" points="172.5119,-350.3691 182,-345.6547 171.6428,-343.4233 172.5119,-350.3691"/>
</a>
</g>
</g>
<!-- Node_Ja_100 -->
<g id="node6" class="node">
<title>Node_Ja_100</title>
<g id="a_node6"><a xlink:title="google.protobuf.Timestamp">
<polygon fill="#fffaf0" stroke="transparent" points="1226,-109.6547 1226,-153.6547 1307,-153.6547 1307,-109.6547 1226,-109.6547"/>
<polygon fill="#e31a1c" stroke="transparent" points="1227.5,-138.6547 1227.5,-152.6547 1306.5,-152.6547 1306.5,-138.6547 1227.5,-138.6547"/>
<text text-anchor="start" x="1255.4131" y="-143.6547" font-family="Ubuntu" font-weight="bold" font-size="10.00" fill="#000000">Timestamp</text>
<text text-anchor="start" x="1233.2192" y="-128.6547" font-family="Ubuntu" font-size="10.00" fill="#000000">1</text>
<text text-anchor="start" x="1242.377" y="-128.6547" font-family="Ubuntu" font-size="10.00" fill="#000000">seconds</text>
<polygon fill="#a6cee3" stroke="transparent" points="1281.5,-124.6547 1281.5,-138.6547 1306.5,-138.6547 1306.5,-124.6547 1281.5,-124.6547"/>
<text text-anchor="start" x="1283.1577" y="-129.6547" font-family="Ubuntu" font-style="italic" font-size="10.00" fill="#000000">int64</text>
<text text-anchor="start" x="1233.2192" y="-114.6547" font-family="Ubuntu" font-size="10.00" fill="#000000">2</text>
<text text-anchor="start" x="1242.5" y="-114.6547" font-family="Ubuntu" font-size="10.00" fill="#000000">nanos</text>
<polygon fill="#a6cee3" stroke="transparent" points="1281.5,-110.6547 1281.5,-124.6547 1306.5,-124.6547 1306.5,-110.6547 1281.5,-110.6547"/>
<text text-anchor="start" x="1283.1577" y="-115.6547" font-family="Ubuntu" font-style="italic" font-size="10.00" fill="#000000">int32</text>
<polygon fill="none" stroke="#000000" points="1226,-109.6547 1226,-153.6547 1307,-153.6547 1307,-109.6547 1226,-109.6547"/>
</a>
</g>
</g>
<!-- Node_Ja_102 -->
<g id="node7" class="node">
<title>Node_Ja_102</title>
<g id="a_node7"><a xlink:title="magda.Entity">
<polygon fill="#fffaf0" stroke="transparent" points="714,-281.6547 714,-409.6547 921,-409.6547 921,-281.6547 714,-281.6547"/>
<polygon fill="#e31a1c" stroke="transparent" points="715.5,-394.6547 715.5,-408.6547 920.5,-408.6547 920.5,-394.6547 715.5,-394.6547"/>
<text text-anchor="start" x="893.4902" y="-399.6547" font-family="Ubuntu" font-weight="bold" font-size="10.00" fill="#000000">Entity</text>
<text text-anchor="start" x="734.2192" y="-384.6547" font-family="Ubuntu" font-size="10.00" fill="#000000">1</text>
<text text-anchor="start" x="743.5" y="-384.6547" font-family="Ubuntu" font-size="10.00" fill="#000000">id</text>
<polygon fill="#a6cee3" stroke="transparent" points="795.5,-380.6547 795.5,-394.6547 920.5,-394.6547 920.5,-380.6547 795.5,-380.6547"/>
<text text-anchor="start" x="894.0469" y="-385.6547" font-family="Ubuntu" font-style="italic" font-size="10.00" fill="#000000">string</text>
<text text-anchor="start" x="734.2192" y="-370.6547" font-family="Ubuntu" font-size="10.00" fill="#000000">2</text>
<text text-anchor="start" x="743.5" y="-370.6547" font-family="Ubuntu" font-size="10.00" fill="#000000">kind</text>
<polygon fill="#b2df8a" stroke="transparent" points="795.5,-366.6547 795.5,-380.6547 920.5,-380.6547 920.5,-366.6547 795.5,-366.6547"/>
<text text-anchor="start" x="898.4854" y="-371.6547" font-family="Ubuntu" text-decoration="underline" font-size="10.00" fill="#000000">Kind</text>
<text text-anchor="start" x="717.0542" y="-356.6547" font-family="Ubuntu" font-size="10.00" fill="#000000">[...]</text>
<text text-anchor="start" x="734.2192" y="-356.6547" font-family="Ubuntu" font-size="10.00" fill="#000000">3</text>
<text text-anchor="start" x="743.5" y="-356.6547" font-family="Ubuntu" font-size="10.00" fill="#000000">names</text>
<polygon fill="#a6cee3" stroke="transparent" points="795.5,-352.6547 795.5,-366.6547 920.5,-366.6547 920.5,-352.6547 795.5,-352.6547"/>
<text text-anchor="start" x="894.0469" y="-357.6547" font-family="Ubuntu" font-style="italic" font-size="10.00" fill="#000000">string</text>
<text text-anchor="start" x="717.0542" y="-342.6547" font-family="Ubuntu" font-size="10.00" fill="#000000">[...]</text>
<text text-anchor="start" x="734.2192" y="-342.6547" font-family="Ubuntu" font-size="10.00" fill="#000000">4</text>
<text text-anchor="start" x="743.5" y="-342.6547" font-family="Ubuntu" font-size="10.00" fill="#000000">urls</text>
<polygon fill="#a6cee3" stroke="transparent" points="795.5,-338.6547 795.5,-352.6547 920.5,-352.6547 920.5,-338.6547 795.5,-338.6547"/>
<text text-anchor="start" x="894.0469" y="-343.6547" font-family="Ubuntu" font-style="italic" font-size="10.00" fill="#000000">string</text>
<text text-anchor="start" x="734.2192" y="-328.6547" font-family="Ubuntu" font-size="10.00" fill="#000000">5</text>
<text text-anchor="start" x="743.5" y="-328.6547" font-family="Ubuntu" font-size="10.00" fill="#000000">description</text>
<polygon fill="#a6cee3" stroke="transparent" points="795.5,-324.6547 795.5,-338.6547 920.5,-338.6547 920.5,-324.6547 795.5,-324.6547"/>
<text text-anchor="start" x="894.0469" y="-329.6547" font-family="Ubuntu" font-style="italic" font-size="10.00" fill="#000000">string</text>
<text text-anchor="start" x="734.2192" y="-314.6547" font-family="Ubuntu" font-size="10.00" fill="#000000">6</text>
<text text-anchor="start" x="743.5" y="-314.6547" font-family="Ubuntu" font-size="10.00" fill="#000000">created_at</text>
<polygon fill="#fb9a99" stroke="transparent" points="795.5,-310.6547 795.5,-324.6547 920.5,-324.6547 920.5,-310.6547 795.5,-310.6547"/>
<text text-anchor="start" x="797.3164" y="-315.6547" font-family="Ubuntu" font-weight="bold" font-size="10.00" fill="#000000">google.protobuf.Timestamp</text>
<text text-anchor="start" x="734.2192" y="-300.6547" font-family="Ubuntu" font-size="10.00" fill="#000000">7</text>
<text text-anchor="start" x="743.4756" y="-300.6547" font-family="Ubuntu" font-size="10.00" fill="#000000">updated_at</text>
<polygon fill="#fb9a99" stroke="transparent" points="795.5,-296.6547 795.5,-310.6547 920.5,-310.6547 920.5,-296.6547 795.5,-296.6547"/>
<text text-anchor="start" x="797.3164" y="-301.6547" font-family="Ubuntu" font-weight="bold" font-size="10.00" fill="#000000">google.protobuf.Timestamp</text>
<text text-anchor="start" x="717.0542" y="-286.6547" font-family="Ubuntu" font-size="10.00" fill="#000000">[...]</text>
<text text-anchor="start" x="734.2192" y="-286.6547" font-family="Ubuntu" font-size="10.00" fill="#000000">8</text>
<text text-anchor="start" x="743.5" y="-286.6547" font-family="Ubuntu" font-size="10.00" fill="#000000">files</text>
<polygon fill="#fb9a99" stroke="transparent" points="795.5,-282.6547 795.5,-296.6547 920.5,-296.6547 920.5,-282.6547 795.5,-282.6547"/>
<text text-anchor="start" x="902.3867" y="-287.6547" font-family="Ubuntu" font-weight="bold" font-size="10.00" fill="#000000">File</text>
<polygon fill="none" stroke="#000000" points="714,-281.6547 714,-409.6547 921,-409.6547 921,-281.6547 714,-281.6547"/>
</a>
</g>
</g>
<!-- Node_Ja_102&#45;&gt;Node_Ja_103 -->
<g id="edge17" class="edge">
<title>Node_Ja_102:e&#45;&gt;Node_Ja_103</title>
<g id="a_edge17"><a xlink:title="Ja_102 &#45;&#45;&gt; Ja_103">
<path fill="none" stroke="#008000" d="M920.5,-373.6547C950.2562,-373.6547 982.9392,-377.782 1010.4313,-382.4613"/>
<polygon fill="#008000" stroke="#008000" points="1009.8541,-385.9135 1020.31,-384.2036 1011.0699,-379.0199 1009.8541,-385.9135"/>
</a>
</g>
</g>
<!-- Node_Ja_102&#45;&gt;Node_Ja_100 -->
<g id="edge3" class="edge">
<title>Node_Ja_102:e&#45;&gt;Node_Ja_100:header</title>
<g id="a_edge3"><a xlink:title="Ja_102 &#45;&#45;&gt; Ja_100">
<path fill="none" stroke="#000000" d="M920.5,-303.6547C1040.4393,-303.6547 1097.0386,-365.4413 1190,-289.6547 1238.2555,-250.3145 1170.2777,-157.4251 1217.3231,-146.6747"/>
<polygon fill="#000000" stroke="#000000" points="1217.8989,-150.1346 1227.5,-145.6547 1217.2008,-143.1695 1217.8989,-150.1346"/>
</a>
</g>
</g>
<!-- Node_Ja_102&#45;&gt;Node_Ja_100 -->
<g id="edge14" class="edge">
<title>Node_Ja_102:e&#45;&gt;Node_Ja_100:header</title>
<g id="a_edge14"><a xlink:title="Ja_102 &#45;&#45;&gt; Ja_100">
<path fill="none" stroke="#000000" d="M920.5,-317.6547C936.8193,-317.6547 940.705,-320.7645 957,-321.6547 1060.4014,-327.3036 1109.5063,-386.8046 1190,-321.6547 1249.2529,-273.6967 1156.9659,-157.2719 1217.4339,-146.4625"/>
<polygon fill="#000000" stroke="#000000" points="1217.812,-149.9435 1227.5,-145.6547 1217.252,-142.9659 1217.812,-149.9435"/>
</a>
</g>
</g>
<!-- Node_Ja_101 -->
<g id="node8" class="node">
<title>Node_Ja_101</title>
<g id="a_node8"><a xlink:title="magda.File">
<polygon fill="#fffaf0" stroke="transparent" points="973,-123.6547 973,-251.6547 1174,-251.6547 1174,-123.6547 973,-123.6547"/>
<polygon fill="#e31a1c" stroke="transparent" points="974.5,-236.6547 974.5,-250.6547 1173.5,-250.6547 1173.5,-236.6547 974.5,-236.6547"/>
<text text-anchor="start" x="1155.3867" y="-241.6547" font-family="Ubuntu" font-weight="bold" font-size="10.00" fill="#000000">File</text>
<text text-anchor="start" x="980.2192" y="-226.6547" font-family="Ubuntu" font-size="10.00" fill="#000000">1</text>
<text text-anchor="start" x="989.5" y="-226.6547" font-family="Ubuntu" font-size="10.00" fill="#000000">path</text>
<polygon fill="#a6cee3" stroke="transparent" points="1048.5,-222.6547 1048.5,-236.6547 1173.5,-236.6547 1173.5,-222.6547 1048.5,-222.6547"/>
<text text-anchor="start" x="1147.0469" y="-227.6547" font-family="Ubuntu" font-style="italic" font-size="10.00" fill="#000000">string</text>
<text text-anchor="start" x="980.2192" y="-212.6547" font-family="Ubuntu" font-size="10.00" fill="#000000">2</text>
<text text-anchor="start" x="989.5" y="-212.6547" font-family="Ubuntu" font-size="10.00" fill="#000000">source_url</text>
<polygon fill="#a6cee3" stroke="transparent" points="1048.5,-208.6547 1048.5,-222.6547 1173.5,-222.6547 1173.5,-208.6547 1048.5,-208.6547"/>
<text text-anchor="start" x="1147.0469" y="-213.6547" font-family="Ubuntu" font-style="italic" font-size="10.00" fill="#000000">string</text>
<text text-anchor="start" x="980.2192" y="-198.6547" font-family="Ubuntu" font-size="10.00" fill="#000000">3</text>
<text text-anchor="start" x="989.3672" y="-198.6547" font-family="Ubuntu" font-size="10.00" fill="#000000">content_type</text>
<polygon fill="#a6cee3" stroke="transparent" points="1048.5,-194.6547 1048.5,-208.6547 1173.5,-208.6547 1173.5,-194.6547 1048.5,-194.6547"/>
<text text-anchor="start" x="1147.0469" y="-199.6547" font-family="Ubuntu" font-style="italic" font-size="10.00" fill="#000000">string</text>
<text text-anchor="start" x="980.2192" y="-184.6547" font-family="Ubuntu" font-size="10.00" fill="#000000">4</text>
<text text-anchor="start" x="989.5" y="-184.6547" font-family="Ubuntu" font-size="10.00" fill="#000000">filename</text>
<polygon fill="#a6cee3" stroke="transparent" points="1048.5,-180.6547 1048.5,-194.6547 1173.5,-194.6547 1173.5,-180.6547 1048.5,-180.6547"/>
<text text-anchor="start" x="1147.0469" y="-185.6547" font-family="Ubuntu" font-style="italic" font-size="10.00" fill="#000000">string</text>
<text text-anchor="start" x="980.2192" y="-170.6547" font-family="Ubuntu" font-size="10.00" fill="#000000">5</text>
<text text-anchor="start" x="989.5" y="-170.6547" font-family="Ubuntu" font-size="10.00" fill="#000000">width</text>
<polygon fill="#a6cee3" stroke="transparent" points="1048.5,-166.6547 1048.5,-180.6547 1173.5,-180.6547 1173.5,-166.6547 1048.5,-166.6547"/>
<text text-anchor="start" x="1149.8154" y="-171.6547" font-family="Ubuntu" font-style="italic" font-size="10.00" fill="#000000">int64</text>
<text text-anchor="start" x="980.2192" y="-156.6547" font-family="Ubuntu" font-size="10.00" fill="#000000">6</text>
<text text-anchor="start" x="989.5" y="-156.6547" font-family="Ubuntu" font-size="10.00" fill="#000000">hieght</text>
<polygon fill="#a6cee3" stroke="transparent" points="1048.5,-152.6547 1048.5,-166.6547 1173.5,-166.6547 1173.5,-152.6547 1048.5,-152.6547"/>
<text text-anchor="start" x="1149.8154" y="-157.6547" font-family="Ubuntu" font-style="italic" font-size="10.00" fill="#000000">int64</text>
<text text-anchor="start" x="980.2192" y="-142.6547" font-family="Ubuntu" font-size="10.00" fill="#000000">7</text>
<text text-anchor="start" x="989.5" y="-142.6547" font-family="Ubuntu" font-size="10.00" fill="#000000">created_at</text>
<polygon fill="#fb9a99" stroke="transparent" points="1048.5,-138.6547 1048.5,-152.6547 1173.5,-152.6547 1173.5,-138.6547 1048.5,-138.6547"/>
<text text-anchor="start" x="1050.3164" y="-143.6547" font-family="Ubuntu" font-weight="bold" font-size="10.00" fill="#000000">google.protobuf.Timestamp</text>
<text text-anchor="start" x="980.2192" y="-128.6547" font-family="Ubuntu" font-size="10.00" fill="#000000">8</text>
<text text-anchor="start" x="989.5" y="-128.6547" font-family="Ubuntu" font-size="10.00" fill="#000000">updated_at</text>
<polygon fill="#fb9a99" stroke="transparent" points="1048.5,-124.6547 1048.5,-138.6547 1173.5,-138.6547 1173.5,-124.6547 1048.5,-124.6547"/>
<text text-anchor="start" x="1050.3164" y="-129.6547" font-family="Ubuntu" font-weight="bold" font-size="10.00" fill="#000000">google.protobuf.Timestamp</text>
<polygon fill="none" stroke="#000000" points="973,-123.6547 973,-251.6547 1174,-251.6547 1174,-123.6547 973,-123.6547"/>
</a>
</g>
</g>
<!-- Node_Ja_102&#45;&gt;Node_Ja_101 -->
<g id="edge15" class="edge">
<title>Node_Ja_102:e&#45;&gt;Node_Ja_101:header</title>
<g id="a_edge15"><a xlink:title="Ja_102 &#45;&#45;&gt; Ja_101">
<path fill="none" stroke="#000000" d="M920.5,-289.6547C948.0865,-289.6547 944.6022,-254.4359 964.421,-245.6313"/>
<polygon fill="#000000" stroke="#000000" points="965.3605,-249.0138 974.5,-243.6547 964.0133,-242.1446 965.3605,-249.0138"/>
</a>
</g>
</g>
<!-- Node_Ja_101&#45;&gt;Node_Ja_100 -->
<g id="edge13" class="edge">
<title>Node_Ja_101:e&#45;&gt;Node_Ja_100:header</title>
<g id="a_edge13"><a xlink:title="Ja_101 &#45;&#45;&gt; Ja_100">
<path fill="none" stroke="#000000" d="M1173.5,-145.6547C1193.75,-145.6547 1201.1855,-145.6547 1217.431,-145.6547"/>
<polygon fill="#000000" stroke="#000000" points="1217.5,-149.1548 1227.5,-145.6547 1217.5,-142.1548 1217.5,-149.1548"/>
</a>
</g>
</g>
<!-- Node_Ja_101&#45;&gt;Node_Ja_100 -->
<g id="edge16" class="edge">
<title>Node_Ja_101:e&#45;&gt;Node_Ja_100:header</title>
<g id="a_edge16"><a xlink:title="Ja_101 &#45;&#45;&gt; Ja_100">
<path fill="none" stroke="#000000" d="M1173.5,-131.6547C1194.4195,-131.6547 1200.8299,-141.6215 1217.2153,-144.7361"/>
<polygon fill="#000000" stroke="#000000" points="1217.2283,-148.2511 1227.5,-145.6547 1217.851,-141.2789 1217.2283,-148.2511"/>
</a>
</g>
</g>
<!-- Node_Ja_105&#45;&gt;Node_Ja_106 -->
<g id="edge6" class="edge">
<title>Node_Ja_105:e&#45;&gt;Node_Ja_106</title>
<g id="a_edge6"><a xlink:title="Ja_105 &#45;&#45;&gt; Ja_106">
<path fill="none" stroke="#008000" d="M525.5,-303.6547C554.9182,-303.6547 548.1961,-332.9057 570,-352.6547 622.5084,-400.2145 631.286,-423.8157 698,-447.6547 811.4968,-488.2106 956.6445,-479.6222 1028.7207,-471.6873"/>
<polygon fill="#008000" stroke="#008000" points="1029.2774,-475.1464 1038.8122,-470.5272 1028.4779,-468.1922 1029.2774,-475.1464"/>
</a>
</g>
</g>
<!-- Node_Ja_105&#45;&gt;Node_Ja_100 -->
<g id="edge5" class="edge">
<title>Node_Ja_105:e&#45;&gt;Node_Ja_100:header</title>
<g id="a_edge5"><a xlink:title="Ja_105 &#45;&#45;&gt; Ja_100">
<path fill="none" stroke="#000000" d="M525.5,-191.6547C579.89,-191.6547 525.0891,-108.335 570,-77.6547 683.7659,.0629 1071.3627,-7.5982 1190,-77.6547 1216.1198,-93.0787 1198.6331,-133.9186 1217.4472,-143.5833"/>
<polygon fill="#000000" stroke="#000000" points="1216.9994,-147.0645 1227.5,-145.6547 1218.4121,-140.2085 1216.9994,-147.0645"/>
</a>
</g>
</g>
<!-- Node_Ja_105&#45;&gt;Node_Ja_100 -->
<g id="edge10" class="edge">
<title>Node_Ja_105:e&#45;&gt;Node_Ja_100:header</title>
<g id="a_edge10"><a xlink:title="Ja_105 &#45;&#45;&gt; Ja_100">
<path fill="none" stroke="#000000" d="M525.5,-219.6547C723.6326,-219.6547 760.4625,-132.7456 957,-107.6547 1059.7218,-94.5407 1094.4589,-67.7091 1190,-107.6547 1207.9579,-115.1629 1205.721,-135.9236 1217.4351,-143.1421"/>
<polygon fill="#000000" stroke="#000000" points="1216.95,-146.6283 1227.5,-145.6547 1218.6455,-139.8368 1216.95,-146.6283"/>
</a>
</g>
</g>
<!-- Node_Ja_105&#45;&gt;Node_Ja_100 -->
<g id="edge11" class="edge">
<title>Node_Ja_105:e&#45;&gt;Node_Ja_100:header</title>
<g id="a_edge11"><a xlink:title="Ja_105 &#45;&#45;&gt; Ja_100">
<path fill="none" stroke="#000000" d="M525.5,-205.6547C593.7613,-205.6547 530.7202,-296.8272 570,-352.6547 610.7667,-410.5955 634.6928,-415.8543 698,-447.6547 895.8402,-547.0335 1025.941,-674.3206 1190,-525.6547 1250.1768,-471.1241 1151.7989,-172.9231 1217.6131,-147.3972"/>
<polygon fill="#000000" stroke="#000000" points="1218.2593,-150.8373 1227.5,-145.6547 1217.0443,-143.9435 1218.2593,-150.8373"/>
</a>
</g>
</g>
<!-- Node_Ja_105&#45;&gt;Node_Ja_102 -->
<g id="edge9" class="edge">
<title>Node_Ja_105:e&#45;&gt;Node_Ja_102:header</title>
<g id="a_edge9"><a xlink:title="Ja_105 &#45;&#45;&gt; Ja_102">
<path fill="none" stroke="#000000" d="M525.5,-233.6547C595.0399,-233.6547 627.6327,-220.7074 678,-268.6547 719.7028,-308.3538 662.1931,-390.5116 705.4465,-400.6263"/>
<polygon fill="#000000" stroke="#000000" points="705.1957,-404.1188 715.5,-401.6547 705.9081,-397.1551 705.1957,-404.1188"/>
</a>
</g>
</g>
<!-- Node_Ja_105&#45;&gt;Node_Ja_101 -->
<g id="edge8" class="edge">
<title>Node_Ja_105:e&#45;&gt;Node_Ja_101:header</title>
<g id="a_edge8"><a xlink:title="Ja_105 &#45;&#45;&gt; Ja_101">
<path fill="none" stroke="#000000" d="M525.5,-261.6547C721.8027,-261.6547 773.0461,-244.2647 964.3907,-243.6703"/>
<polygon fill="#000000" stroke="#000000" points="964.5054,-247.1702 974.5,-243.6547 964.4946,-240.1702 964.5054,-247.1702"/>
</a>
</g>
</g>
<!-- Node_Ja_104 -->
<g id="node10" class="node">
<title>Node_Ja_104</title>
<g id="a_node10"><a xlink:title="magda.Source">
<polygon fill="#fffaf0" stroke="transparent" points="578,-281.6547 578,-339.6547 662,-339.6547 662,-281.6547 578,-281.6547"/>
<polygon fill="#e31a1c" stroke="transparent" points="579,-324.6547 579,-338.6547 661,-338.6547 661,-324.6547 579,-324.6547"/>
<text text-anchor="start" x="627.3154" y="-329.6547" font-family="Ubuntu" font-weight="bold" font-size="10.00" fill="#000000">Source</text>
<text text-anchor="start" x="597.7192" y="-314.6547" font-family="Ubuntu" font-size="10.00" fill="#000000">1</text>
<text text-anchor="start" x="606.5493" y="-314.6547" font-family="Ubuntu" font-size="10.00" fill="#000000">entity</text>
<polygon fill="#fb9a99" stroke="transparent" points="632,-310.6547 632,-324.6547 661,-324.6547 661,-310.6547 632,-310.6547"/>
<text text-anchor="start" x="633.9951" y="-315.6547" font-family="Ubuntu" font-weight="bold" font-size="10.00" fill="#000000">Entity</text>
<text text-anchor="start" x="597.7192" y="-300.6547" font-family="Ubuntu" font-size="10.00" fill="#000000">2</text>
<text text-anchor="start" x="607" y="-300.6547" font-family="Ubuntu" font-size="10.00" fill="#000000">url</text>
<polygon fill="#a6cee3" stroke="transparent" points="632,-296.6547 632,-310.6547 661,-310.6547 661,-296.6547 632,-296.6547"/>
<text text-anchor="start" x="634.5469" y="-301.6547" font-family="Ubuntu" font-style="italic" font-size="10.00" fill="#000000">string</text>
<text text-anchor="start" x="580.5542" y="-286.6547" font-family="Ubuntu" font-size="10.00" fill="#000000">[...]</text>
<text text-anchor="start" x="597.7192" y="-286.6547" font-family="Ubuntu" font-size="10.00" fill="#000000">4</text>
<text text-anchor="start" x="607" y="-286.6547" font-family="Ubuntu" font-size="10.00" fill="#000000">titles</text>
<polygon fill="#a6cee3" stroke="transparent" points="632,-282.6547 632,-296.6547 661,-296.6547 661,-282.6547 632,-282.6547"/>
<text text-anchor="start" x="634.5469" y="-287.6547" font-family="Ubuntu" font-style="italic" font-size="10.00" fill="#000000">string</text>
<polygon fill="none" stroke="#000000" points="578,-281.6547 578,-339.6547 662,-339.6547 662,-281.6547 578,-281.6547"/>
</a>
</g>
</g>
<!-- Node_Ja_105&#45;&gt;Node_Ja_104 -->
<g id="edge7" class="edge">
<title>Node_Ja_105:e&#45;&gt;Node_Ja_104:header</title>
<g id="a_edge7"><a xlink:title="Ja_105 &#45;&#45;&gt; Ja_104">
<path fill="none" stroke="#000000" d="M525.5,-289.6547C551.8328,-289.6547 549.9466,-321.5245 569.0042,-329.7409"/>
<polygon fill="#000000" stroke="#000000" points="568.5202,-333.2117 579,-331.6547 569.8366,-326.3366 568.5202,-333.2117"/>
</a>
</g>
</g>
<!-- Node_Ja_104&#45;&gt;Node_Ja_102 -->
<g id="edge4" class="edge">
<title>Node_Ja_104:e&#45;&gt;Node_Ja_102:header</title>
<g id="a_edge4"><a xlink:title="Ja_104 &#45;&#45;&gt; Ja_102">
<path fill="none" stroke="#000000" d="M661,-317.6547C701.5044,-317.6547 676.5597,-387.239 705.3038,-399.7424"/>
<polygon fill="#000000" stroke="#000000" points="705.0262,-403.2513 715.5,-401.6547 706.3166,-396.3713 705.0262,-403.2513"/>
</a>
</g>
</g>
</g>
</svg>
