<?xml version="1.0" encoding="UTF-8" standalone="no"?>
<!DOCTYPE svg PUBLIC "-//W3C//DTD SVG 1.1//EN"
 "http://www.w3.org/Graphics/SVG/1.1/DTD/svg11.dtd">
<!-- Generated by graphviz version 2.40.1 (20161225.0304)
 -->
<!-- Title: protodot Pages: 1 -->
<svg width="1339pt" height="673pt"
 viewBox="0.00 0.00 1339.00 673.10" xmlns="http://www.w3.org/2000/svg" xmlns:xlink="http://www.w3.org/1999/xlink">
<g id="graph0" class="graph" transform="scale(1 1) rotate(0) translate(4 669.1013)">
<title>protodot</title>
<g id="a_graph0"><a xlink:title="magda">
<text text-anchor="middle" x="665.5" y="-6.8" font-family="Times,serif" font-size="14.00" fill="#000000">magda</text>
</a>
</g>
<g id="clust1" class="cluster">
<title>cluster_8b180d234311</title>
<g id="a_clust1"><a xlink:title="file.proto">
<polygon fill="#caff70" stroke="#000000" points="957,-483.1013 957,-657.1013 1190,-657.1013 1190,-483.1013 957,-483.1013"/>
<text text-anchor="middle" x="1073.5" y="-641.9013" font-family="Times,serif" font-size="14.00" fill="#000000">file.proto</text>
</a>
</g>
</g>
<g id="clust2" class="cluster">
<title>cluster_9d1e3c2635ff</title>
<g id="a_clust2"><a xlink:title="magda">
<polygon fill="#caff70" stroke="#000000" points="1012.5,-247.1013 1012.5,-407.1013 1134.5,-407.1013 1134.5,-247.1013 1012.5,-247.1013"/>
<text text-anchor="middle" x="1073.5" y="-391.9013" font-family="Times,serif" font-size="14.00" fill="#000000">magda</text>
</a>
</g>
</g>
<g id="clust3" class="cluster">
<title>cluster_b5eb5ae3708a</title>
<g id="a_clust3"><a xlink:title="entry.proto">
<polygon fill="#caff70" stroke="#000000" points="291,-211.1013 291,-427.1013 678,-427.1013 678,-211.1013 291,-211.1013"/>
<text text-anchor="middle" x="484.5" y="-411.9013" font-family="Times,serif" font-size="14.00" fill="#000000">entry.proto</text>
</a>
</g>
</g>
<g id="clust4" class="cluster">
<title>cluster_5627932c6abb</title>
<g id="a_clust4"><a xlink:title="timestamp.proto">
<polygon fill="#caff70" stroke="#000000" points="1210,-195.1013 1210,-285.1013 1323,-285.1013 1323,-195.1013 1210,-195.1013"/>
<text text-anchor="middle" x="1266.5" y="-269.9013" font-family="Times,serif" font-size="14.00" fill="#000000">timestamp.proto</text>
</a>
</g>
</g>
<g id="clust5" class="cluster">
<title>cluster_f56b993e78fb</title>
<g id="a_clust5"><a xlink:title="entity.proto">
<polygon fill="#caff70" stroke="#000000" points="698,-357.1013 698,-531.1013 937,-531.1013 937,-357.1013 698,-357.1013"/>
<text text-anchor="middle" x="817.5" y="-515.9013" font-family="Times,serif" font-size="14.00" fill="#000000">entity.proto</text>
</a>
</g>
</g>
<!-- Node_Ja_109 -->
<g id="node1" class="node">
<title>Node_Ja_109</title>
<g id="a_node1"><a xlink:title="magda.EntryRequest">
<polygon fill="#fffaf0" stroke="transparent" points="185,-433.1013 185,-463.1013 251,-463.1013 251,-433.1013 185,-433.1013"/>
<polygon fill="#e31a1c" stroke="transparent" points="186,-448.1013 186,-462.1013 250,-462.1013 250,-448.1013 186,-448.1013"/>
<text text-anchor="start" x="187.707" y="-453.1013" font-family="Ubuntu" font-weight="bold" font-size="10.00" fill="#000000">EntryRequest</text>
<text text-anchor="start" x="200.4385" y="-438.1013" font-family="Ubuntu" font-size="10.00" fill="#000000">1</text>
<text text-anchor="start" x="210" y="-438.1013" font-family="Ubuntu" font-size="10.00" fill="#000000">id</text>
<polygon fill="#a6cee3" stroke="transparent" points="220,-434.1013 220,-448.1013 250,-448.1013 250,-434.1013 220,-434.1013"/>
<text text-anchor="start" x="223.5469" y="-439.1013" font-family="Ubuntu" font-style="italic" font-size="10.00" fill="#000000">string</text>
<polygon fill="none" stroke="#000000" points="185,-433.1013 185,-463.1013 251,-463.1013 251,-433.1013 185,-433.1013"/>
</a>
</g>
</g>
<!-- Node_Ja_107 -->
<g id="node2" class="node">
<title>Node_Ja_107</title>
<g id="a_node2"><a xlink:title="MagdaService">
<polygon fill="#ffd700" stroke="transparent" points="8,-412.1013 8,-456.1013 129,-456.1013 129,-412.1013 8,-412.1013"/>
<polygon fill="#ff7f50" stroke="transparent" points="9.5,-441.1013 9.5,-455.1013 128.5,-455.1013 128.5,-441.1013 9.5,-441.1013"/>
<text text-anchor="start" x="62.5791" y="-446.1013" font-family="Ubuntu" font-weight="bold" font-size="10.00" fill="#000000">MagdaService</text>
<text text-anchor="start" x="11.271" y="-432.1013" font-family="Ubuntu" font-weight="bold" font-size="10.00" fill="#000000">GetEntry</text>
<text text-anchor="start" x="65.9141" y="-431.1013" font-family="Ubuntu" font-size="10.00" fill="#000000">EntryRequest</text>
<polygon fill="#ff7f50" stroke="transparent" points="52.5,-413.1013 52.5,-427.1013 56.5,-427.1013 56.5,-413.1013 52.5,-413.1013"/>
<polygon fill="#ff7f50" stroke="transparent" points="56.5,-413.1013 56.5,-427.1013 128.5,-427.1013 128.5,-413.1013 56.5,-413.1013"/>
<text text-anchor="start" x="58.3154" y="-417.1013" font-family="Ubuntu" font-size="10.00" fill="#000000">EntryResponse</text>
<polygon fill="none" stroke="#000000" points="8,-412.1013 8,-456.1013 129,-456.1013 129,-412.1013 8,-412.1013"/>
</a>
</g>
</g>
<!-- Node_Ja_107&#45;&gt;Node_Ja_109 -->
<g id="edge7" class="edge">
<title>Node_Ja_107:e&#45;&gt;Node_Ja_109:header</title>
<g id="a_edge7"><a xlink:title="Ja_107 &#45;&#45;&gt; Ja_109">
<path fill="none" stroke="#000000" d="M128.5,-434.1013C151.8806,-434.1013 157.4483,-449.6104 175.819,-453.9723"/>
<polygon fill="#000000" stroke="#000000" points="175.6751,-457.4777 186,-455.1013 176.4467,-450.5204 175.6751,-457.4777"/>
</a>
</g>
</g>
<!-- Node_Ja_110 -->
<g id="node3" class="node">
<title>Node_Ja_110</title>
<g id="a_node3"><a xlink:title="magda.EntryResponse">
<polygon fill="#fffaf0" stroke="transparent" points="181,-377.1013 181,-407.1013 255,-407.1013 255,-377.1013 181,-377.1013"/>
<polygon fill="#e31a1c" stroke="transparent" points="182,-392.1013 182,-406.1013 254,-406.1013 254,-392.1013 182,-392.1013"/>
<text text-anchor="start" x="183.8154" y="-397.1013" font-family="Ubuntu" font-weight="bold" font-size="10.00" fill="#000000">EntryResponse</text>
<text text-anchor="start" x="191.4385" y="-382.1013" font-family="Ubuntu" font-size="10.00" fill="#000000">1</text>
<text text-anchor="start" x="201" y="-382.1013" font-family="Ubuntu" font-size="10.00" fill="#000000">entry</text>
<polygon fill="#fb9a99" stroke="transparent" points="226,-378.1013 226,-392.1013 254,-392.1013 254,-378.1013 226,-378.1013"/>
<text text-anchor="start" x="228.6602" y="-383.1013" font-family="Ubuntu" font-weight="bold" font-size="10.00" fill="#000000">Entry</text>
<polygon fill="none" stroke="#000000" points="181,-377.1013 181,-407.1013 255,-407.1013 255,-377.1013 181,-377.1013"/>
</a>
</g>
</g>
<!-- Node_Ja_107&#45;&gt;Node_Ja_110 -->
<g id="edge17" class="edge">
<title>Node_Ja_107:e&#45;&gt;Node_Ja_110:header</title>
<g id="a_edge17"><a xlink:title="Ja_107 &#45;&#45;&gt; Ja_110">
<path fill="none" stroke="#000000" d="M128.5,-420.1013C150.2523,-420.1013 155.2303,-404.873 172.0027,-400.3521"/>
<polygon fill="#000000" stroke="#000000" points="172.5119,-403.8158 182,-399.1013 171.6428,-396.8699 172.5119,-403.8158"/>
</a>
</g>
</g>
<!-- Node_Ja_105 -->
<g id="node8" class="node">
<title>Node_Ja_105</title>
<g id="a_node8"><a xlink:title="magda.Entry">
<polygon fill="#fffaf0" stroke="transparent" points="307,-223.1013 307,-393.1013 526,-393.1013 526,-223.1013 307,-223.1013"/>
<polygon fill="#e31a1c" stroke="transparent" points="308.5,-378.1013 308.5,-392.1013 525.5,-392.1013 525.5,-378.1013 308.5,-378.1013"/>
<text text-anchor="start" x="500.1602" y="-383.1013" font-family="Ubuntu" font-weight="bold" font-size="10.00" fill="#000000">Entry</text>
<text text-anchor="start" x="332.9385" y="-368.1013" font-family="Ubuntu" font-size="10.00" fill="#000000">1</text>
<text text-anchor="start" x="342.5" y="-368.1013" font-family="Ubuntu" font-size="10.00" fill="#000000">id</text>
<polygon fill="#a6cee3" stroke="transparent" points="400.5,-364.1013 400.5,-378.1013 525.5,-378.1013 525.5,-364.1013 400.5,-364.1013"/>
<text text-anchor="start" x="499.0469" y="-369.1013" font-family="Ubuntu" font-style="italic" font-size="10.00" fill="#000000">string</text>
<text text-anchor="start" x="332.9385" y="-354.1013" font-family="Ubuntu" font-size="10.00" fill="#000000">2</text>
<text text-anchor="start" x="342.5" y="-354.1013" font-family="Ubuntu" font-size="10.00" fill="#000000">kind</text>
<polygon fill="#b2df8a" stroke="transparent" points="400.5,-350.1013 400.5,-364.1013 525.5,-364.1013 525.5,-350.1013 400.5,-350.1013"/>
<text text-anchor="start" x="503.4854" y="-355.1013" font-family="Ubuntu" text-decoration="underline" font-size="10.00" fill="#000000">Kind</text>
<text text-anchor="start" x="332.9385" y="-340.1013" font-family="Ubuntu" font-size="10.00" fill="#000000">3</text>
<text text-anchor="start" x="342.5" y="-340.1013" font-family="Ubuntu" font-size="10.00" fill="#000000">source</text>
<polygon fill="#fb9a99" stroke="transparent" points="400.5,-336.1013 400.5,-350.1013 525.5,-350.1013 525.5,-336.1013 400.5,-336.1013"/>
<text text-anchor="start" x="491.8154" y="-341.1013" font-family="Ubuntu" font-weight="bold" font-size="10.00" fill="#000000">Source</text>
<text text-anchor="start" x="310.0542" y="-326.1013" font-family="Ubuntu" font-size="10.00" fill="#000000">[...]</text>
<text text-anchor="start" x="332.9385" y="-326.1013" font-family="Ubuntu" font-size="10.00" fill="#000000">4</text>
<text text-anchor="start" x="342.5" y="-326.1013" font-family="Ubuntu" font-size="10.00" fill="#000000">titles</text>
<polygon fill="#a6cee3" stroke="transparent" points="400.5,-322.1013 400.5,-336.1013 525.5,-336.1013 525.5,-322.1013 400.5,-322.1013"/>
<text text-anchor="start" x="499.0469" y="-327.1013" font-family="Ubuntu" font-style="italic" font-size="10.00" fill="#000000">string</text>
<text text-anchor="start" x="310.0542" y="-312.1013" font-family="Ubuntu" font-size="10.00" fill="#000000">[...]</text>
<text text-anchor="start" x="332.9385" y="-312.1013" font-family="Ubuntu" font-size="10.00" fill="#000000">5</text>
<text text-anchor="start" x="342.5" y="-312.1013" font-family="Ubuntu" font-size="10.00" fill="#000000">files</text>
<polygon fill="#fb9a99" stroke="transparent" points="400.5,-308.1013 400.5,-322.1013 525.5,-322.1013 525.5,-308.1013 400.5,-308.1013"/>
<text text-anchor="start" x="507.3867" y="-313.1013" font-family="Ubuntu" font-weight="bold" font-size="10.00" fill="#000000">File</text>
<text text-anchor="start" x="332.9385" y="-298.1013" font-family="Ubuntu" font-size="10.00" fill="#000000">6</text>
<text text-anchor="start" x="342.5" y="-298.1013" font-family="Ubuntu" font-size="10.00" fill="#000000">description</text>
<polygon fill="#a6cee3" stroke="transparent" points="400.5,-294.1013 400.5,-308.1013 525.5,-308.1013 525.5,-294.1013 400.5,-294.1013"/>
<text text-anchor="start" x="499.0469" y="-299.1013" font-family="Ubuntu" font-style="italic" font-size="10.00" fill="#000000">string</text>
<text text-anchor="start" x="310.0542" y="-284.1013" font-family="Ubuntu" font-size="10.00" fill="#000000">[...]</text>
<text text-anchor="start" x="332.9385" y="-284.1013" font-family="Ubuntu" font-size="10.00" fill="#000000">7</text>
<text text-anchor="start" x="342.5" y="-284.1013" font-family="Ubuntu" font-size="10.00" fill="#000000">creators</text>
<polygon fill="#fb9a99" stroke="transparent" points="400.5,-280.1013 400.5,-294.1013 525.5,-294.1013 525.5,-280.1013 400.5,-280.1013"/>
<text text-anchor="start" x="498.4902" y="-285.1013" font-family="Ubuntu" font-weight="bold" font-size="10.00" fill="#000000">Entity</text>
<text text-anchor="start" x="332.9385" y="-270.1013" font-family="Ubuntu" font-size="10.00" fill="#000000">8</text>
<text text-anchor="start" x="342.5" y="-270.1013" font-family="Ubuntu" font-size="10.00" fill="#000000">found_at</text>
<polygon fill="#fb9a99" stroke="transparent" points="400.5,-266.1013 400.5,-280.1013 525.5,-280.1013 525.5,-266.1013 400.5,-266.1013"/>
<text text-anchor="start" x="402.3164" y="-271.1013" font-family="Ubuntu" font-weight="bold" font-size="10.00" fill="#000000">google.protobuf.Timestamp</text>
<text text-anchor="start" x="332.9385" y="-256.1013" font-family="Ubuntu" font-size="10.00" fill="#000000">9</text>
<text text-anchor="start" x="342.1431" y="-256.1013" font-family="Ubuntu" font-size="10.00" fill="#000000">published_at</text>
<polygon fill="#fb9a99" stroke="transparent" points="400.5,-252.1013 400.5,-266.1013 525.5,-266.1013 525.5,-252.1013 400.5,-252.1013"/>
<text text-anchor="start" x="402.3164" y="-257.1013" font-family="Ubuntu" font-weight="bold" font-size="10.00" fill="#000000">google.protobuf.Timestamp</text>
<text text-anchor="start" x="327.4385" y="-242.1013" font-family="Ubuntu" font-size="10.00" fill="#000000">10</text>
<text text-anchor="start" x="342.5" y="-242.1013" font-family="Ubuntu" font-size="10.00" fill="#000000">created_at</text>
<polygon fill="#fb9a99" stroke="transparent" points="400.5,-238.1013 400.5,-252.1013 525.5,-252.1013 525.5,-238.1013 400.5,-238.1013"/>
<text text-anchor="start" x="402.3164" y="-243.1013" font-family="Ubuntu" font-weight="bold" font-size="10.00" fill="#000000">google.protobuf.Timestamp</text>
<text text-anchor="start" x="328.1143" y="-228.1013" font-family="Ubuntu" font-size="10.00" fill="#000000">11</text>
<text text-anchor="start" x="342.5" y="-228.1013" font-family="Ubuntu" font-size="10.00" fill="#000000">updated_at</text>
<polygon fill="#fb9a99" stroke="transparent" points="400.5,-224.1013 400.5,-238.1013 525.5,-238.1013 525.5,-224.1013 400.5,-224.1013"/>
<text text-anchor="start" x="402.3164" y="-229.1013" font-family="Ubuntu" font-weight="bold" font-size="10.00" fill="#000000">google.protobuf.Timestamp</text>
<polygon fill="none" stroke="#000000" points="307,-223.1013 307,-393.1013 526,-393.1013 526,-223.1013 307,-223.1013"/>
</a>
</g>
</g>
<!-- Node_Ja_110&#45;&gt;Node_Ja_105 -->
<g id="edge13" class="edge">
<title>Node_Ja_110:e&#45;&gt;Node_Ja_105:header</title>
<g id="a_edge13"><a xlink:title="Ja_110 &#45;&#45;&gt; Ja_105">
<path fill="none" stroke="#000000" d="M254,-385.1013C274.4375,-385.1013 281.9419,-385.1013 298.3378,-385.1013"/>
<polygon fill="#000000" stroke="#000000" points="298.5,-388.6014 308.5,-385.1013 298.5,-381.6014 298.5,-388.6014"/>
</a>
</g>
</g>
<!-- Node_Ja_101 -->
<g id="node4" class="node">
<title>Node_Ja_101</title>
<g id="a_node4"><a xlink:title="magda.File">
<polygon fill="#fffaf0" stroke="transparent" points="973,-495.1013 973,-623.1013 1174,-623.1013 1174,-495.1013 973,-495.1013"/>
<polygon fill="#e31a1c" stroke="transparent" points="974.5,-608.1013 974.5,-622.1013 1173.5,-622.1013 1173.5,-608.1013 974.5,-608.1013"/>
<text text-anchor="start" x="1155.3867" y="-613.1013" font-family="Ubuntu" font-weight="bold" font-size="10.00" fill="#000000">File</text>
<text text-anchor="start" x="980.2192" y="-598.1013" font-family="Ubuntu" font-size="10.00" fill="#000000">1</text>
<text text-anchor="start" x="989.5" y="-598.1013" font-family="Ubuntu" font-size="10.00" fill="#000000">path</text>
<polygon fill="#a6cee3" stroke="transparent" points="1048.5,-594.1013 1048.5,-608.1013 1173.5,-608.1013 1173.5,-594.1013 1048.5,-594.1013"/>
<text text-anchor="start" x="1147.0469" y="-599.1013" font-family="Ubuntu" font-style="italic" font-size="10.00" fill="#000000">string</text>
<text text-anchor="start" x="980.2192" y="-584.1013" font-family="Ubuntu" font-size="10.00" fill="#000000">2</text>
<text text-anchor="start" x="989.5" y="-584.1013" font-family="Ubuntu" font-size="10.00" fill="#000000">source_url</text>
<polygon fill="#a6cee3" stroke="transparent" points="1048.5,-580.1013 1048.5,-594.1013 1173.5,-594.1013 1173.5,-580.1013 1048.5,-580.1013"/>
<text text-anchor="start" x="1147.0469" y="-585.1013" font-family="Ubuntu" font-style="italic" font-size="10.00" fill="#000000">string</text>
<text text-anchor="start" x="980.2192" y="-570.1013" font-family="Ubuntu" font-size="10.00" fill="#000000">3</text>
<text text-anchor="start" x="989.3672" y="-570.1013" font-family="Ubuntu" font-size="10.00" fill="#000000">content_type</text>
<polygon fill="#a6cee3" stroke="transparent" points="1048.5,-566.1013 1048.5,-580.1013 1173.5,-580.1013 1173.5,-566.1013 1048.5,-566.1013"/>
<text text-anchor="start" x="1147.0469" y="-571.1013" font-family="Ubuntu" font-style="italic" font-size="10.00" fill="#000000">string</text>
<text text-anchor="start" x="980.2192" y="-556.1013" font-family="Ubuntu" font-size="10.00" fill="#000000">4</text>
<text text-anchor="start" x="989.5" y="-556.1013" font-family="Ubuntu" font-size="10.00" fill="#000000">filename</text>
<polygon fill="#a6cee3" stroke="transparent" points="1048.5,-552.1013 1048.5,-566.1013 1173.5,-566.1013 1173.5,-552.1013 1048.5,-552.1013"/>
<text text-anchor="start" x="1147.0469" y="-557.1013" font-family="Ubuntu" font-style="italic" font-size="10.00" fill="#000000">string</text>
<text text-anchor="start" x="980.2192" y="-542.1013" font-family="Ubuntu" font-size="10.00" fill="#000000">5</text>
<text text-anchor="start" x="989.5" y="-542.1013" font-family="Ubuntu" font-size="10.00" fill="#000000">width</text>
<polygon fill="#a6cee3" stroke="transparent" points="1048.5,-538.1013 1048.5,-552.1013 1173.5,-552.1013 1173.5,-538.1013 1048.5,-538.1013"/>
<text text-anchor="start" x="1149.8154" y="-543.1013" font-family="Ubuntu" font-style="italic" font-size="10.00" fill="#000000">int64</text>
<text text-anchor="start" x="980.2192" y="-528.1013" font-family="Ubuntu" font-size="10.00" fill="#000000">6</text>
<text text-anchor="start" x="989.5" y="-528.1013" font-family="Ubuntu" font-size="10.00" fill="#000000">hieght</text>
<polygon fill="#a6cee3" stroke="transparent" points="1048.5,-524.1013 1048.5,-538.1013 1173.5,-538.1013 1173.5,-524.1013 1048.5,-524.1013"/>
<text text-anchor="start" x="1149.8154" y="-529.1013" font-family="Ubuntu" font-style="italic" font-size="10.00" fill="#000000">int64</text>
<text text-anchor="start" x="980.2192" y="-514.1013" font-family="Ubuntu" font-size="10.00" fill="#000000">7</text>
<text text-anchor="start" x="989.5" y="-514.1013" font-family="Ubuntu" font-size="10.00" fill="#000000">created_at</text>
<polygon fill="#fb9a99" stroke="transparent" points="1048.5,-510.1013 1048.5,-524.1013 1173.5,-524.1013 1173.5,-510.1013 1048.5,-510.1013"/>
<text text-anchor="start" x="1050.3164" y="-515.1013" font-family="Ubuntu" font-weight="bold" font-size="10.00" fill="#000000">google.protobuf.Timestamp</text>
<text text-anchor="start" x="980.2192" y="-500.1013" font-family="Ubuntu" font-size="10.00" fill="#000000">8</text>
<text text-anchor="start" x="989.5" y="-500.1013" font-family="Ubuntu" font-size="10.00" fill="#000000">updated_at</text>
<polygon fill="#fb9a99" stroke="transparent" points="1048.5,-496.1013 1048.5,-510.1013 1173.5,-510.1013 1173.5,-496.1013 1048.5,-496.1013"/>
<text text-anchor="start" x="1050.3164" y="-501.1013" font-family="Ubuntu" font-weight="bold" font-size="10.00" fill="#000000">google.protobuf.Timestamp</text>
<polygon fill="none" stroke="#000000" points="973,-495.1013 973,-623.1013 1174,-623.1013 1174,-495.1013 973,-495.1013"/>
</a>
</g>
</g>
<!-- Node_Ja_100 -->
<g id="node9" class="node">
<title>Node_Ja_100</title>
<g id="a_node9"><a xlink:title="google.protobuf.Timestamp">
<polygon fill="#fffaf0" stroke="transparent" points="1226,-207.1013 1226,-251.1013 1307,-251.1013 1307,-207.1013 1226,-207.1013"/>
<polygon fill="#e31a1c" stroke="transparent" points="1227.5,-236.1013 1227.5,-250.1013 1306.5,-250.1013 1306.5,-236.1013 1227.5,-236.1013"/>
<text text-anchor="start" x="1255.4131" y="-241.1013" font-family="Ubuntu" font-weight="bold" font-size="10.00" fill="#000000">Timestamp</text>
<text text-anchor="start" x="1233.2192" y="-226.1013" font-family="Ubuntu" font-size="10.00" fill="#000000">1</text>
<text text-anchor="start" x="1242.377" y="-226.1013" font-family="Ubuntu" font-size="10.00" fill="#000000">seconds</text>
<polygon fill="#a6cee3" stroke="transparent" points="1281.5,-222.1013 1281.5,-236.1013 1306.5,-236.1013 1306.5,-222.1013 1281.5,-222.1013"/>
<text text-anchor="start" x="1283.1577" y="-227.1013" font-family="Ubuntu" font-style="italic" font-size="10.00" fill="#000000">int64</text>
<text text-anchor="start" x="1233.2192" y="-212.1013" font-family="Ubuntu" font-size="10.00" fill="#000000">2</text>
<text text-anchor="start" x="1242.5" y="-212.1013" font-family="Ubuntu" font-size="10.00" fill="#000000">nanos</text>
<polygon fill="#a6cee3" stroke="transparent" points="1281.5,-208.1013 1281.5,-222.1013 1306.5,-222.1013 1306.5,-208.1013 1281.5,-208.1013"/>
<text text-anchor="start" x="1283.1577" y="-213.1013" font-family="Ubuntu" font-style="italic" font-size="10.00" fill="#000000">int32</text>
<polygon fill="none" stroke="#000000" points="1226,-207.1013 1226,-251.1013 1307,-251.1013 1307,-207.1013 1226,-207.1013"/>
</a>
</g>
</g>
<!-- Node_Ja_101&#45;&gt;Node_Ja_100 -->
<g id="edge8" class="edge">
<title>Node_Ja_101:e&#45;&gt;Node_Ja_100:header</title>
<g id="a_edge8"><a xlink:title="Ja_101 &#45;&#45;&gt; Ja_100">
<path fill="none" stroke="#000000" d="M1173.5,-503.1013C1228.8226,-503.1013 1176.0113,-274.5857 1217.8172,-246.0213"/>
<polygon fill="#000000" stroke="#000000" points="1218.9364,-249.3395 1227.5,-243.1013 1216.9153,-242.6376 1218.9364,-249.3395"/>
</a>
</g>
</g>
<!-- Node_Ja_101&#45;&gt;Node_Ja_100 -->
<g id="edge18" class="edge">
<title>Node_Ja_101:e&#45;&gt;Node_Ja_100:header</title>
<g id="a_edge18"><a xlink:title="Ja_101 &#45;&#45;&gt; Ja_100">
<path fill="none" stroke="#000000" d="M1173.5,-517.1013C1231.8026,-517.1013 1173.4465,-275.2766 1217.6224,-245.9931"/>
<polygon fill="#000000" stroke="#000000" points="1218.8862,-249.2701 1227.5,-243.1013 1216.9194,-242.5521 1218.8862,-249.2701"/>
</a>
</g>
</g>
<!-- Node_Ja_106 -->
<g id="node5" class="node">
<title>Node_Ja_106</title>
<g id="a_node5"><a xlink:title="Kind">
<polygon fill="#b2df8a" stroke="transparent" points="1047,-259.1013 1047,-303.1013 1100,-303.1013 1100,-259.1013 1047,-259.1013"/>
<polygon fill="#33a02c" stroke="transparent" points="1048.5,-288.1013 1048.5,-302.1013 1099.5,-302.1013 1099.5,-288.1013 1048.5,-288.1013"/>
<text text-anchor="start" x="1050.0962" y="-293.1013" font-family="Ubuntu" font-size="10.00" fill="#000000">enum </text>
<text text-anchor="start" x="1077.8892" y="-293.1013" font-family="Ubuntu" font-weight="bold" font-size="10.00" fill="#000000">Kind</text>
<polygon fill="#b2df8a" stroke="transparent" points="1048.5,-274.1013 1048.5,-288.1013 1088.5,-288.1013 1088.5,-274.1013 1048.5,-274.1013"/>
<text text-anchor="start" x="1050.5" y="-278.1013" font-family="Ubuntu" font-size="10.00" fill="#000000">QUOTE</text>
<polygon fill="#b2df8a" stroke="transparent" points="1088.5,-274.1013 1088.5,-288.1013 1099.5,-288.1013 1099.5,-274.1013 1088.5,-274.1013"/>
<text text-anchor="start" x="1090.5" y="-278.1013" font-family="Ubuntu" font-size="10.00" fill="#000000">0</text>
<polygon fill="#b2df8a" stroke="transparent" points="1048.5,-260.1013 1048.5,-274.1013 1088.5,-274.1013 1088.5,-260.1013 1048.5,-260.1013"/>
<text text-anchor="start" x="1050.5" y="-264.1013" font-family="Ubuntu" font-size="10.00" fill="#000000">IMAGE</text>
<polygon fill="#b2df8a" stroke="transparent" points="1088.5,-260.1013 1088.5,-274.1013 1099.5,-274.1013 1099.5,-260.1013 1088.5,-260.1013"/>
<text text-anchor="start" x="1090.5" y="-264.1013" font-family="Ubuntu" font-size="10.00" fill="#000000">1</text>
<polygon fill="none" stroke="#000000" points="1047,-259.1013 1047,-303.1013 1100,-303.1013 1100,-259.1013 1047,-259.1013"/>
</a>
</g>
</g>
<!-- Node_Ja_103 -->
<g id="node6" class="node">
<title>Node_Ja_103</title>
<g id="a_node6"><a xlink:title="Kind">
<polygon fill="#b2df8a" stroke="transparent" points="1028.5,-329.1013 1028.5,-373.1013 1118.5,-373.1013 1118.5,-329.1013 1028.5,-329.1013"/>
<polygon fill="#33a02c" stroke="transparent" points="1029.5,-358.1013 1029.5,-372.1013 1117.5,-372.1013 1117.5,-358.1013 1029.5,-358.1013"/>
<text text-anchor="start" x="1067.6924" y="-363.1013" font-family="Ubuntu" font-size="10.00" fill="#000000">enum </text>
<text text-anchor="start" x="1095.4854" y="-363.1013" font-family="Ubuntu" font-weight="bold" font-size="10.00" fill="#000000">Kind</text>
<polygon fill="#b2df8a" stroke="transparent" points="1029.5,-344.1013 1029.5,-358.1013 1108.5,-358.1013 1108.5,-344.1013 1029.5,-344.1013"/>
<text text-anchor="start" x="1031.5" y="-348.1013" font-family="Ubuntu" font-size="10.00" fill="#000000">PERSON</text>
<polygon fill="#b2df8a" stroke="transparent" points="1108.5,-344.1013 1108.5,-358.1013 1117.5,-358.1013 1117.5,-344.1013 1108.5,-344.1013"/>
<text text-anchor="start" x="1110.2192" y="-348.1013" font-family="Ubuntu" font-size="10.00" fill="#000000">0</text>
<polygon fill="#b2df8a" stroke="transparent" points="1029.5,-330.1013 1029.5,-344.1013 1108.5,-344.1013 1108.5,-330.1013 1029.5,-330.1013"/>
<text text-anchor="start" x="1031.312" y="-334.1013" font-family="Ubuntu" font-size="10.00" fill="#000000">ORGANIZATION</text>
<polygon fill="#b2df8a" stroke="transparent" points="1108.5,-330.1013 1108.5,-344.1013 1117.5,-344.1013 1117.5,-330.1013 1108.5,-330.1013"/>
<text text-anchor="start" x="1110.2192" y="-334.1013" font-family="Ubuntu" font-size="10.00" fill="#000000">1</text>
<polygon fill="none" stroke="#000000" points="1028.5,-329.1013 1028.5,-373.1013 1118.5,-373.1013 1118.5,-329.1013 1028.5,-329.1013"/>
</a>
</g>
</g>
<!-- Node_Ja_104 -->
<g id="node7" class="node">
<title>Node_Ja_104</title>
<g id="a_node7"><a xlink:title="magda.Source">
<polygon fill="#fffaf0" stroke="transparent" points="578,-335.1013 578,-393.1013 662,-393.1013 662,-335.1013 578,-335.1013"/>
<polygon fill="#e31a1c" stroke="transparent" points="579,-378.1013 579,-392.1013 661,-392.1013 661,-378.1013 579,-378.1013"/>
<text text-anchor="start" x="627.3154" y="-383.1013" font-family="Ubuntu" font-weight="bold" font-size="10.00" fill="#000000">Source</text>
<text text-anchor="start" x="597.7192" y="-368.1013" font-family="Ubuntu" font-size="10.00" fill="#000000">1</text>
<text text-anchor="start" x="606.5493" y="-368.1013" font-family="Ubuntu" font-size="10.00" fill="#000000">entity</text>
<polygon fill="#fb9a99" stroke="transparent" points="632,-364.1013 632,-378.1013 661,-378.1013 661,-364.1013 632,-364.1013"/>
<text text-anchor="start" x="633.9951" y="-369.1013" font-family="Ubuntu" font-weight="bold" font-size="10.00" fill="#000000">Entity</text>
<text text-anchor="start" x="597.7192" y="-354.1013" font-family="Ubuntu" font-size="10.00" fill="#000000">2</text>
<text text-anchor="start" x="607" y="-354.1013" font-family="Ubuntu" font-size="10.00" fill="#000000">url</text>
<polygon fill="#a6cee3" stroke="transparent" points="632,-350.1013 632,-364.1013 661,-364.1013 661,-350.1013 632,-350.1013"/>
<text text-anchor="start" x="634.5469" y="-355.1013" font-family="Ubuntu" font-style="italic" font-size="10.00" fill="#000000">string</text>
<text text-anchor="start" x="580.5542" y="-340.1013" font-family="Ubuntu" font-size="10.00" fill="#000000">[...]</text>
<text text-anchor="start" x="597.7192" y="-340.1013" font-family="Ubuntu" font-size="10.00" fill="#000000">4</text>
<text text-anchor="start" x="607" y="-340.1013" font-family="Ubuntu" font-size="10.00" fill="#000000">titles</text>
<polygon fill="#a6cee3" stroke="transparent" points="632,-336.1013 632,-350.1013 661,-350.1013 661,-336.1013 632,-336.1013"/>
<text text-anchor="start" x="634.5469" y="-341.1013" font-family="Ubuntu" font-style="italic" font-size="10.00" fill="#000000">string</text>
<polygon fill="none" stroke="#000000" points="578,-335.1013 578,-393.1013 662,-393.1013 662,-335.1013 578,-335.1013"/>
</a>
</g>
</g>
<!-- Node_Ja_102 -->
<g id="node10" class="node">
<title>Node_Ja_102</title>
<g id="a_node10"><a xlink:title="magda.Entity">
<polygon fill="#fffaf0" stroke="transparent" points="714,-369.1013 714,-497.1013 921,-497.1013 921,-369.1013 714,-369.1013"/>
<polygon fill="#e31a1c" stroke="transparent" points="715.5,-482.1013 715.5,-496.1013 920.5,-496.1013 920.5,-482.1013 715.5,-482.1013"/>
<text text-anchor="start" x="893.4902" y="-487.1013" font-family="Ubuntu" font-weight="bold" font-size="10.00" fill="#000000">Entity</text>
<text text-anchor="start" x="734.2192" y="-472.1013" font-family="Ubuntu" font-size="10.00" fill="#000000">1</text>
<text text-anchor="start" x="743.5" y="-472.1013" font-family="Ubuntu" font-size="10.00" fill="#000000">id</text>
<polygon fill="#a6cee3" stroke="transparent" points="795.5,-468.1013 795.5,-482.1013 920.5,-482.1013 920.5,-468.1013 795.5,-468.1013"/>
<text text-anchor="start" x="894.0469" y="-473.1013" font-family="Ubuntu" font-style="italic" font-size="10.00" fill="#000000">string</text>
<text text-anchor="start" x="734.2192" y="-458.1013" font-family="Ubuntu" font-size="10.00" fill="#000000">2</text>
<text text-anchor="start" x="743.5" y="-458.1013" font-family="Ubuntu" font-size="10.00" fill="#000000">kind</text>
<polygon fill="#b2df8a" stroke="transparent" points="795.5,-454.1013 795.5,-468.1013 920.5,-468.1013 920.5,-454.1013 795.5,-454.1013"/>
<text text-anchor="start" x="898.4854" y="-459.1013" font-family="Ubuntu" text-decoration="underline" font-size="10.00" fill="#000000">Kind</text>
<text text-anchor="start" x="717.0542" y="-444.1013" font-family="Ubuntu" font-size="10.00" fill="#000000">[...]</text>
<text text-anchor="start" x="734.2192" y="-444.1013" font-family="Ubuntu" font-size="10.00" fill="#000000">3</text>
<text text-anchor="start" x="743.5" y="-444.1013" font-family="Ubuntu" font-size="10.00" fill="#000000">names</text>
<polygon fill="#a6cee3" stroke="transparent" points="795.5,-440.1013 795.5,-454.1013 920.5,-454.1013 920.5,-440.1013 795.5,-440.1013"/>
<text text-anchor="start" x="894.0469" y="-445.1013" font-family="Ubuntu" font-style="italic" font-size="10.00" fill="#000000">string</text>
<text text-anchor="start" x="717.0542" y="-430.1013" font-family="Ubuntu" font-size="10.00" fill="#000000">[...]</text>
<text text-anchor="start" x="734.2192" y="-430.1013" font-family="Ubuntu" font-size="10.00" fill="#000000">4</text>
<text text-anchor="start" x="743.5" y="-430.1013" font-family="Ubuntu" font-size="10.00" fill="#000000">urls</text>
<polygon fill="#a6cee3" stroke="transparent" points="795.5,-426.1013 795.5,-440.1013 920.5,-440.1013 920.5,-426.1013 795.5,-426.1013"/>
<text text-anchor="start" x="894.0469" y="-431.1013" font-family="Ubuntu" font-style="italic" font-size="10.00" fill="#000000">string</text>
<text text-anchor="start" x="734.2192" y="-416.1013" font-family="Ubuntu" font-size="10.00" fill="#000000">5</text>
<text text-anchor="start" x="743.5" y="-416.1013" font-family="Ubuntu" font-size="10.00" fill="#000000">description</text>
<polygon fill="#a6cee3" stroke="transparent" points="795.5,-412.1013 795.5,-426.1013 920.5,-426.1013 920.5,-412.1013 795.5,-412.1013"/>
<text text-anchor="start" x="894.0469" y="-417.1013" font-family="Ubuntu" font-style="italic" font-size="10.00" fill="#000000">string</text>
<text text-anchor="start" x="734.2192" y="-402.1013" font-family="Ubuntu" font-size="10.00" fill="#000000">6</text>
<text text-anchor="start" x="743.5" y="-402.1013" font-family="Ubuntu" font-size="10.00" fill="#000000">created_at</text>
<polygon fill="#fb9a99" stroke="transparent" points="795.5,-398.1013 795.5,-412.1013 920.5,-412.1013 920.5,-398.1013 795.5,-398.1013"/>
<text text-anchor="start" x="797.3164" y="-403.1013" font-family="Ubuntu" font-weight="bold" font-size="10.00" fill="#000000">google.protobuf.Timestamp</text>
<text text-anchor="start" x="734.2192" y="-388.1013" font-family="Ubuntu" font-size="10.00" fill="#000000">7</text>
<text text-anchor="start" x="743.4756" y="-388.1013" font-family="Ubuntu" font-size="10.00" fill="#000000">updated_at</text>
<polygon fill="#fb9a99" stroke="transparent" points="795.5,-384.1013 795.5,-398.1013 920.5,-398.1013 920.5,-384.1013 795.5,-384.1013"/>
<text text-anchor="start" x="797.3164" y="-389.1013" font-family="Ubuntu" font-weight="bold" font-size="10.00" fill="#000000">google.protobuf.Timestamp</text>
<text text-anchor="start" x="717.0542" y="-374.1013" font-family="Ubuntu" font-size="10.00" fill="#000000">[...]</text>
<text text-anchor="start" x="734.2192" y="-374.1013" font-family="Ubuntu" font-size="10.00" fill="#000000">8</text>
<text text-anchor="start" x="743.5" y="-374.1013" font-family="Ubuntu" font-size="10.00" fill="#000000">files</text>
<polygon fill="#fb9a99" stroke="transparent" points="795.5,-370.1013 795.5,-384.1013 920.5,-384.1013 920.5,-370.1013 795.5,-370.1013"/>
<text text-anchor="start" x="902.3867" y="-375.1013" font-family="Ubuntu" font-weight="bold" font-size="10.00" fill="#000000">File</text>
<polygon fill="none" stroke="#000000" points="714,-369.1013 714,-497.1013 921,-497.1013 921,-369.1013 714,-369.1013"/>
</a>
</g>
</g>
<!-- Node_Ja_104&#45;&gt;Node_Ja_102 -->
<g id="edge9" class="edge">
<title>Node_Ja_104:e&#45;&gt;Node_Ja_102:header</title>
<g id="a_edge9"><a xlink:title="Ja_104 &#45;&#45;&gt; Ja_102">
<path fill="none" stroke="#000000" d="M661,-371.1013C714.9318,-371.1013 665.3145,-473.9498 705.4937,-487.6094"/>
<polygon fill="#000000" stroke="#000000" points="705.0932,-491.0883 715.5,-489.1013 706.1255,-484.1648 705.0932,-491.0883"/>
</a>
</g>
</g>
<!-- Node_Ja_105&#45;&gt;Node_Ja_101 -->
<g id="edge1" class="edge">
<title>Node_Ja_105:e&#45;&gt;Node_Ja_101:header</title>
<g id="a_edge1"><a xlink:title="Ja_105 &#45;&#45;&gt; Ja_101">
<path fill="none" stroke="#000000" d="M525.5,-315.1013C570.5213,-315.1013 543.9084,-369.4115 570,-406.1013 616.8081,-471.9227 628.537,-493.8903 698,-535.1013 805.0147,-598.5912 844.4093,-614.2583 964.203,-615.0676"/>
<polygon fill="#000000" stroke="#000000" points="964.4885,-618.5684 974.5,-615.1013 964.5116,-611.5685 964.4885,-618.5684"/>
</a>
</g>
</g>
<!-- Node_Ja_105&#45;&gt;Node_Ja_106 -->
<g id="edge16" class="edge">
<title>Node_Ja_105:e&#45;&gt;Node_Ja_106</title>
<g id="a_edge16"><a xlink:title="Ja_105 &#45;&#45;&gt; Ja_106">
<path fill="none" stroke="#008000" d="M525.5,-357.1013C550.6622,-357.1013 546.5759,-331.2908 570,-322.1013 729.2297,-259.6342 938.0706,-268.5499 1028.5181,-276.3403"/>
<polygon fill="#008000" stroke="#008000" points="1028.4209,-279.8456 1038.6944,-277.2558 1029.0483,-272.8737 1028.4209,-279.8456"/>
</a>
</g>
</g>
<!-- Node_Ja_105&#45;&gt;Node_Ja_104 -->
<g id="edge5" class="edge">
<title>Node_Ja_105:e&#45;&gt;Node_Ja_104:header</title>
<g id="a_edge5"><a xlink:title="Ja_105 &#45;&#45;&gt; Ja_104">
<path fill="none" stroke="#000000" d="M525.5,-343.1013C551.8328,-343.1013 549.9466,-374.9711 569.0042,-383.1876"/>
<polygon fill="#000000" stroke="#000000" points="568.5202,-386.6584 579,-385.1013 569.8366,-379.7833 568.5202,-386.6584"/>
</a>
</g>
</g>
<!-- Node_Ja_105&#45;&gt;Node_Ja_100 -->
<g id="edge2" class="edge">
<title>Node_Ja_105:e&#45;&gt;Node_Ja_100:header</title>
<g id="a_edge2"><a xlink:title="Ja_105 &#45;&#45;&gt; Ja_100">
<path fill="none" stroke="#000000" d="M525.5,-259.1013C553.9453,-259.1013 543.8111,-224.2043 570,-213.1013 696.8488,-159.3231 1059.989,-167.4959 1190,-213.1013 1206.2069,-218.7864 1206.7923,-234.7477 1217.524,-240.7658"/>
<polygon fill="#000000" stroke="#000000" points="1216.9654,-244.2295 1227.5,-243.1013 1218.5612,-237.4138 1216.9654,-244.2295"/>
</a>
</g>
</g>
<!-- Node_Ja_105&#45;&gt;Node_Ja_100 -->
<g id="edge6" class="edge">
<title>Node_Ja_105:e&#45;&gt;Node_Ja_100:header</title>
<g id="a_edge6"><a xlink:title="Ja_105 &#45;&#45;&gt; Ja_100">
<path fill="none" stroke="#000000" d="M525.5,-231.1013C571.7228,-231.1013 530.9441,-161.8234 570,-137.1013 802.8306,10.2784 964.9943,21.9687 1190,-137.1013 1227.6172,-163.6952 1185.278,-231.3411 1217.5842,-241.7485"/>
<polygon fill="#000000" stroke="#000000" points="1217.1186,-245.2173 1227.5,-243.1013 1218.065,-238.2815 1217.1186,-245.2173"/>
</a>
</g>
</g>
<!-- Node_Ja_105&#45;&gt;Node_Ja_100 -->
<g id="edge11" class="edge">
<title>Node_Ja_105:e&#45;&gt;Node_Ja_100:header</title>
<g id="a_edge11"><a xlink:title="Ja_105 &#45;&#45;&gt; Ja_100">
<path fill="none" stroke="#000000" d="M525.5,-273.1013C717.7407,-273.1013 764.8751,-249.772 957,-243.1013 1073.7471,-239.0478 1105.4991,-242.8718 1217.4985,-243.0916"/>
<polygon fill="#000000" stroke="#000000" points="1217.4966,-246.5915 1227.5,-243.1013 1217.5035,-239.5915 1217.4966,-246.5915"/>
</a>
</g>
</g>
<!-- Node_Ja_105&#45;&gt;Node_Ja_100 -->
<g id="edge12" class="edge">
<title>Node_Ja_105:e&#45;&gt;Node_Ja_100:header</title>
<g id="a_edge12"><a xlink:title="Ja_105 &#45;&#45;&gt; Ja_100">
<path fill="none" stroke="#000000" d="M525.5,-245.1013C559.7806,-245.1013 540.2638,-199.1577 570,-182.1013 619.5293,-153.6918 640.9539,-173.548 698,-171.1013 916.4699,-161.7312 1002.7163,-61.2221 1190,-174.1013 1216.3901,-190.0071 1198.2091,-231.605 1217.5998,-241.136"/>
<polygon fill="#000000" stroke="#000000" points="1217.0099,-244.5871 1227.5,-243.1013 1218.3729,-237.7211 1217.0099,-244.5871"/>
</a>
</g>
</g>
<!-- Node_Ja_105&#45;&gt;Node_Ja_102 -->
<g id="edge10" class="edge">
<title>Node_Ja_105:e&#45;&gt;Node_Ja_102:header</title>
<g id="a_edge10"><a xlink:title="Ja_105 &#45;&#45;&gt; Ja_102">
<path fill="none" stroke="#000000" d="M525.5,-287.1013C595.0399,-287.1013 628.9439,-272.8134 678,-322.1013 729.0427,-373.3853 648.0889,-478.1991 705.5241,-488.3126"/>
<polygon fill="#000000" stroke="#000000" points="705.2552,-491.8021 715.5,-489.1013 705.807,-484.8239 705.2552,-491.8021"/>
</a>
</g>
</g>
<!-- Node_Ja_102&#45;&gt;Node_Ja_101 -->
<g id="edge15" class="edge">
<title>Node_Ja_102:e&#45;&gt;Node_Ja_101:header</title>
<g id="a_edge15"><a xlink:title="Ja_102 &#45;&#45;&gt; Ja_101">
<path fill="none" stroke="#000000" d="M920.5,-377.1013C970.9199,-377.1013 927.3888,-582.8092 964.5968,-611.7369"/>
<polygon fill="#000000" stroke="#000000" points="963.9056,-615.1985 974.5,-615.1013 966.1574,-608.5705 963.9056,-615.1985"/>
</a>
</g>
</g>
<!-- Node_Ja_102&#45;&gt;Node_Ja_103 -->
<g id="edge3" class="edge">
<title>Node_Ja_102:e&#45;&gt;Node_Ja_103</title>
<g id="a_edge3"><a xlink:title="Ja_102 &#45;&#45;&gt; Ja_103">
<path fill="none" stroke="#008000" d="M920.5,-461.1013C948.0134,-461.1013 936.0974,-428.9918 957,-411.1013 973.0418,-397.3712 992.7647,-385.7103 1011.391,-376.4229"/>
<polygon fill="#008000" stroke="#008000" points="1012.9457,-379.5589 1020.4258,-372.0556 1009.8992,-373.2566 1012.9457,-379.5589"/>
</a>
</g>
</g>
<!-- Node_Ja_102&#45;&gt;Node_Ja_100 -->
<g id="edge4" class="edge">
<title>Node_Ja_102:e&#45;&gt;Node_Ja_100:header</title>
<g id="a_edge4"><a xlink:title="Ja_102 &#45;&#45;&gt; Ja_100">
<path fill="none" stroke="#000000" d="M920.5,-391.1013C938.9979,-391.1013 939.08,-406.5136 957,-411.1013 1057.32,-436.7848 1109.1917,-475.8607 1190,-411.1013 1246.7841,-365.5949 1160.2572,-254.6631 1217.5077,-243.9384"/>
<polygon fill="#000000" stroke="#000000" points="1217.8271,-247.424 1227.5,-243.1013 1217.2427,-240.4484 1217.8271,-247.424"/>
</a>
</g>
</g>
<!-- Node_Ja_102&#45;&gt;Node_Ja_100 -->
<g id="edge14" class="edge">
<title>Node_Ja_102:e&#45;&gt;Node_Ja_100:header</title>
<g id="a_edge14"><a xlink:title="Ja_102 &#45;&#45;&gt; Ja_100">
<path fill="none" stroke="#000000" d="M920.5,-405.1013C943.5994,-405.1013 935.6892,-433.1891 957,-442.1013 1004.7688,-462.0784 1150.1415,-475.1504 1190,-442.1013 1256.4411,-387.0111 1147.1676,-254.5717 1217.4667,-243.8002"/>
<polygon fill="#000000" stroke="#000000" points="1217.7674,-247.2878 1227.5,-243.1013 1217.2809,-240.3047 1217.7674,-247.2878"/>
</a>
</g>
</g>
</g>
</svg>
