<?xml version="1.0" encoding="UTF-8" standalone="no"?>
<!DOCTYPE svg PUBLIC "-//W3C//DTD SVG 1.1//EN"
 "http://www.w3.org/Graphics/SVG/1.1/DTD/svg11.dtd">
<!-- Generated by graphviz version 2.40.1 (20161225.0304)
 -->
<!-- Title: protodot Pages: 1 -->
<svg width="1339pt" height="684pt"
 viewBox="0.00 0.00 1339.00 683.86" xmlns="http://www.w3.org/2000/svg" xmlns:xlink="http://www.w3.org/1999/xlink">
<g id="graph0" class="graph" transform="scale(1 1) rotate(0) translate(4 679.8589)">
<title>protodot</title>
<g id="a_graph0"><a xlink:title="magda">
<text text-anchor="middle" x="665.5" y="-6.8" font-family="Times,serif" font-size="14.00" fill="#000000">magda</text>
</a>
</g>
<g id="clust1" class="cluster">
<title>cluster_5627932c6abb</title>
<g id="a_clust1"><a xlink:title="timestamp.proto">
<polygon fill="#caff70" stroke="#000000" points="1210,-333.9146 1210,-423.9146 1323,-423.9146 1323,-333.9146 1210,-333.9146"/>
<text text-anchor="middle" x="1266.5" y="-408.7146" font-family="Times,serif" font-size="14.00" fill="#000000">timestamp.proto</text>
</a>
</g>
</g>
<g id="clust2" class="cluster">
<title>cluster_8b180d234311</title>
<g id="a_clust2"><a xlink:title="file.proto">
<polygon fill="#caff70" stroke="#000000" points="957,-268.9146 957,-442.9146 1190,-442.9146 1190,-268.9146 957,-268.9146"/>
<text text-anchor="middle" x="1073.5" y="-427.7146" font-family="Times,serif" font-size="14.00" fill="#000000">file.proto</text>
</a>
</g>
</g>
<g id="clust3" class="cluster">
<title>cluster_f56b993e78fb</title>
<g id="a_clust3"><a xlink:title="entity.proto">
<polygon fill="#caff70" stroke="#000000" points="698,-127.9146 698,-301.9146 937,-301.9146 937,-127.9146 698,-127.9146"/>
<text text-anchor="middle" x="817.5" y="-286.7146" font-family="Times,serif" font-size="14.00" fill="#000000">entity.proto</text>
</a>
</g>
</g>
<g id="clust4" class="cluster">
<title>cluster_9d1e3c2635ff</title>
<g id="a_clust4"><a xlink:title="magda">
<polygon fill="#caff70" stroke="#000000" points="1012.5,-100.9146 1012.5,-260.9146 1134.5,-260.9146 1134.5,-100.9146 1012.5,-100.9146"/>
<text text-anchor="middle" x="1073.5" y="-245.7146" font-family="Times,serif" font-size="14.00" fill="#000000">magda</text>
</a>
</g>
</g>
<g id="clust5" class="cluster">
<title>cluster_b5eb5ae3708a</title>
<g id="a_clust5"><a xlink:title="entry.proto">
<polygon fill="#caff70" stroke="#000000" points="291,-358.9146 291,-574.9146 678,-574.9146 678,-358.9146 291,-358.9146"/>
<text text-anchor="middle" x="484.5" y="-559.7146" font-family="Times,serif" font-size="14.00" fill="#000000">entry.proto</text>
</a>
</g>
</g>
<!-- Node_Ja_100 -->
<g id="node1" class="node">
<title>Node_Ja_100</title>
<g id="a_node1"><a xlink:title="google.protobuf.Timestamp">
<polygon fill="#fffaf0" stroke="transparent" points="1226,-345.9146 1226,-389.9146 1307,-389.9146 1307,-345.9146 1226,-345.9146"/>
<polygon fill="#e31a1c" stroke="transparent" points="1227.5,-374.9146 1227.5,-388.9146 1306.5,-388.9146 1306.5,-374.9146 1227.5,-374.9146"/>
<text text-anchor="start" x="1255.4131" y="-379.9146" font-family="Ubuntu" font-weight="bold" font-size="10.00" fill="#000000">Timestamp</text>
<text text-anchor="start" x="1233.2192" y="-364.9146" font-family="Ubuntu" font-size="10.00" fill="#000000">1</text>
<text text-anchor="start" x="1242.377" y="-364.9146" font-family="Ubuntu" font-size="10.00" fill="#000000">seconds</text>
<polygon fill="#a6cee3" stroke="transparent" points="1281.5,-360.9146 1281.5,-374.9146 1306.5,-374.9146 1306.5,-360.9146 1281.5,-360.9146"/>
<text text-anchor="start" x="1283.1577" y="-365.9146" font-family="Ubuntu" font-style="italic" font-size="10.00" fill="#000000">int64</text>
<text text-anchor="start" x="1233.2192" y="-350.9146" font-family="Ubuntu" font-size="10.00" fill="#000000">2</text>
<text text-anchor="start" x="1242.5" y="-350.9146" font-family="Ubuntu" font-size="10.00" fill="#000000">nanos</text>
<polygon fill="#a6cee3" stroke="transparent" points="1281.5,-346.9146 1281.5,-360.9146 1306.5,-360.9146 1306.5,-346.9146 1281.5,-346.9146"/>
<text text-anchor="start" x="1283.1577" y="-351.9146" font-family="Ubuntu" font-style="italic" font-size="10.00" fill="#000000">int32</text>
<polygon fill="none" stroke="#000000" points="1226,-345.9146 1226,-389.9146 1307,-389.9146 1307,-345.9146 1226,-345.9146"/>
</a>
</g>
</g>
<!-- Node_Ja_101 -->
<g id="node2" class="node">
<title>Node_Ja_101</title>
<g id="a_node2"><a xlink:title="magda.File">
<polygon fill="#fffaf0" stroke="transparent" points="973,-280.9146 973,-408.9146 1174,-408.9146 1174,-280.9146 973,-280.9146"/>
<polygon fill="#e31a1c" stroke="transparent" points="974.5,-393.9146 974.5,-407.9146 1173.5,-407.9146 1173.5,-393.9146 974.5,-393.9146"/>
<text text-anchor="start" x="1155.3867" y="-398.9146" font-family="Ubuntu" font-weight="bold" font-size="10.00" fill="#000000">File</text>
<text text-anchor="start" x="980.2192" y="-383.9146" font-family="Ubuntu" font-size="10.00" fill="#000000">1</text>
<text text-anchor="start" x="989.5" y="-383.9146" font-family="Ubuntu" font-size="10.00" fill="#000000">path</text>
<polygon fill="#a6cee3" stroke="transparent" points="1048.5,-379.9146 1048.5,-393.9146 1173.5,-393.9146 1173.5,-379.9146 1048.5,-379.9146"/>
<text text-anchor="start" x="1147.0469" y="-384.9146" font-family="Ubuntu" font-style="italic" font-size="10.00" fill="#000000">string</text>
<text text-anchor="start" x="980.2192" y="-369.9146" font-family="Ubuntu" font-size="10.00" fill="#000000">2</text>
<text text-anchor="start" x="989.5" y="-369.9146" font-family="Ubuntu" font-size="10.00" fill="#000000">source_url</text>
<polygon fill="#a6cee3" stroke="transparent" points="1048.5,-365.9146 1048.5,-379.9146 1173.5,-379.9146 1173.5,-365.9146 1048.5,-365.9146"/>
<text text-anchor="start" x="1147.0469" y="-370.9146" font-family="Ubuntu" font-style="italic" font-size="10.00" fill="#000000">string</text>
<text text-anchor="start" x="980.2192" y="-355.9146" font-family="Ubuntu" font-size="10.00" fill="#000000">3</text>
<text text-anchor="start" x="989.3672" y="-355.9146" font-family="Ubuntu" font-size="10.00" fill="#000000">content_type</text>
<polygon fill="#a6cee3" stroke="transparent" points="1048.5,-351.9146 1048.5,-365.9146 1173.5,-365.9146 1173.5,-351.9146 1048.5,-351.9146"/>
<text text-anchor="start" x="1147.0469" y="-356.9146" font-family="Ubuntu" font-style="italic" font-size="10.00" fill="#000000">string</text>
<text text-anchor="start" x="980.2192" y="-341.9146" font-family="Ubuntu" font-size="10.00" fill="#000000">4</text>
<text text-anchor="start" x="989.5" y="-341.9146" font-family="Ubuntu" font-size="10.00" fill="#000000">filename</text>
<polygon fill="#a6cee3" stroke="transparent" points="1048.5,-337.9146 1048.5,-351.9146 1173.5,-351.9146 1173.5,-337.9146 1048.5,-337.9146"/>
<text text-anchor="start" x="1147.0469" y="-342.9146" font-family="Ubuntu" font-style="italic" font-size="10.00" fill="#000000">string</text>
<text text-anchor="start" x="980.2192" y="-327.9146" font-family="Ubuntu" font-size="10.00" fill="#000000">5</text>
<text text-anchor="start" x="989.5" y="-327.9146" font-family="Ubuntu" font-size="10.00" fill="#000000">width</text>
<polygon fill="#a6cee3" stroke="transparent" points="1048.5,-323.9146 1048.5,-337.9146 1173.5,-337.9146 1173.5,-323.9146 1048.5,-323.9146"/>
<text text-anchor="start" x="1149.8154" y="-328.9146" font-family="Ubuntu" font-style="italic" font-size="10.00" fill="#000000">int64</text>
<text text-anchor="start" x="980.2192" y="-313.9146" font-family="Ubuntu" font-size="10.00" fill="#000000">6</text>
<text text-anchor="start" x="989.5" y="-313.9146" font-family="Ubuntu" font-size="10.00" fill="#000000">hieght</text>
<polygon fill="#a6cee3" stroke="transparent" points="1048.5,-309.9146 1048.5,-323.9146 1173.5,-323.9146 1173.5,-309.9146 1048.5,-309.9146"/>
<text text-anchor="start" x="1149.8154" y="-314.9146" font-family="Ubuntu" font-style="italic" font-size="10.00" fill="#000000">int64</text>
<text text-anchor="start" x="980.2192" y="-299.9146" font-family="Ubuntu" font-size="10.00" fill="#000000">7</text>
<text text-anchor="start" x="989.5" y="-299.9146" font-family="Ubuntu" font-size="10.00" fill="#000000">created_at</text>
<polygon fill="#fb9a99" stroke="transparent" points="1048.5,-295.9146 1048.5,-309.9146 1173.5,-309.9146 1173.5,-295.9146 1048.5,-295.9146"/>
<text text-anchor="start" x="1050.3164" y="-300.9146" font-family="Ubuntu" font-weight="bold" font-size="10.00" fill="#000000">google.protobuf.Timestamp</text>
<text text-anchor="start" x="980.2192" y="-285.9146" font-family="Ubuntu" font-size="10.00" fill="#000000">8</text>
<text text-anchor="start" x="989.5" y="-285.9146" font-family="Ubuntu" font-size="10.00" fill="#000000">updated_at</text>
<polygon fill="#fb9a99" stroke="transparent" points="1048.5,-281.9146 1048.5,-295.9146 1173.5,-295.9146 1173.5,-281.9146 1048.5,-281.9146"/>
<text text-anchor="start" x="1050.3164" y="-286.9146" font-family="Ubuntu" font-weight="bold" font-size="10.00" fill="#000000">google.protobuf.Timestamp</text>
<polygon fill="none" stroke="#000000" points="973,-280.9146 973,-408.9146 1174,-408.9146 1174,-280.9146 973,-280.9146"/>
</a>
</g>
</g>
<!-- Node_Ja_101&#45;&gt;Node_Ja_100 -->
<g id="edge1" class="edge">
<title>Node_Ja_101:e&#45;&gt;Node_Ja_100:header</title>
<g id="a_edge1"><a xlink:title="Ja_101 &#45;&#45;&gt; Ja_100">
<path fill="none" stroke="#000000" d="M1173.5,-288.9146C1217.3751,-288.9146 1185.9263,-367.2826 1217.4436,-380.1398"/>
<polygon fill="#000000" stroke="#000000" points="1217.0439,-383.6233 1227.5,-381.9146 1218.2605,-376.7298 1217.0439,-383.6233"/>
</a>
</g>
</g>
<!-- Node_Ja_101&#45;&gt;Node_Ja_100 -->
<g id="edge6" class="edge">
<title>Node_Ja_101:e&#45;&gt;Node_Ja_100:header</title>
<g id="a_edge6"><a xlink:title="Ja_101 &#45;&#45;&gt; Ja_100">
<path fill="none" stroke="#000000" d="M1173.5,-302.9146C1212.0427,-302.9146 1190.147,-367.7964 1217.3576,-379.9617"/>
<polygon fill="#000000" stroke="#000000" points="1217.0186,-383.4607 1227.5,-381.9146 1218.3421,-376.5869 1217.0186,-383.4607"/>
</a>
</g>
</g>
<!-- Node_Ja_102 -->
<g id="node3" class="node">
<title>Node_Ja_102</title>
<g id="a_node3"><a xlink:title="magda.Entity">
<polygon fill="#fffaf0" stroke="transparent" points="714,-139.9146 714,-267.9146 921,-267.9146 921,-139.9146 714,-139.9146"/>
<polygon fill="#e31a1c" stroke="transparent" points="715.5,-252.9146 715.5,-266.9146 920.5,-266.9146 920.5,-252.9146 715.5,-252.9146"/>
<text text-anchor="start" x="893.4902" y="-257.9146" font-family="Ubuntu" font-weight="bold" font-size="10.00" fill="#000000">Entity</text>
<text text-anchor="start" x="734.2192" y="-242.9146" font-family="Ubuntu" font-size="10.00" fill="#000000">1</text>
<text text-anchor="start" x="743.5" y="-242.9146" font-family="Ubuntu" font-size="10.00" fill="#000000">id</text>
<polygon fill="#a6cee3" stroke="transparent" points="795.5,-238.9146 795.5,-252.9146 920.5,-252.9146 920.5,-238.9146 795.5,-238.9146"/>
<text text-anchor="start" x="894.0469" y="-243.9146" font-family="Ubuntu" font-style="italic" font-size="10.00" fill="#000000">string</text>
<text text-anchor="start" x="734.2192" y="-228.9146" font-family="Ubuntu" font-size="10.00" fill="#000000">2</text>
<text text-anchor="start" x="743.5" y="-228.9146" font-family="Ubuntu" font-size="10.00" fill="#000000">kind</text>
<polygon fill="#b2df8a" stroke="transparent" points="795.5,-224.9146 795.5,-238.9146 920.5,-238.9146 920.5,-224.9146 795.5,-224.9146"/>
<text text-anchor="start" x="898.4854" y="-229.9146" font-family="Ubuntu" text-decoration="underline" font-size="10.00" fill="#000000">Kind</text>
<text text-anchor="start" x="717.0542" y="-214.9146" font-family="Ubuntu" font-size="10.00" fill="#000000">[...]</text>
<text text-anchor="start" x="734.2192" y="-214.9146" font-family="Ubuntu" font-size="10.00" fill="#000000">3</text>
<text text-anchor="start" x="743.5" y="-214.9146" font-family="Ubuntu" font-size="10.00" fill="#000000">names</text>
<polygon fill="#a6cee3" stroke="transparent" points="795.5,-210.9146 795.5,-224.9146 920.5,-224.9146 920.5,-210.9146 795.5,-210.9146"/>
<text text-anchor="start" x="894.0469" y="-215.9146" font-family="Ubuntu" font-style="italic" font-size="10.00" fill="#000000">string</text>
<text text-anchor="start" x="717.0542" y="-200.9146" font-family="Ubuntu" font-size="10.00" fill="#000000">[...]</text>
<text text-anchor="start" x="734.2192" y="-200.9146" font-family="Ubuntu" font-size="10.00" fill="#000000">4</text>
<text text-anchor="start" x="743.5" y="-200.9146" font-family="Ubuntu" font-size="10.00" fill="#000000">urls</text>
<polygon fill="#a6cee3" stroke="transparent" points="795.5,-196.9146 795.5,-210.9146 920.5,-210.9146 920.5,-196.9146 795.5,-196.9146"/>
<text text-anchor="start" x="894.0469" y="-201.9146" font-family="Ubuntu" font-style="italic" font-size="10.00" fill="#000000">string</text>
<text text-anchor="start" x="734.2192" y="-186.9146" font-family="Ubuntu" font-size="10.00" fill="#000000">5</text>
<text text-anchor="start" x="743.5" y="-186.9146" font-family="Ubuntu" font-size="10.00" fill="#000000">description</text>
<polygon fill="#a6cee3" stroke="transparent" points="795.5,-182.9146 795.5,-196.9146 920.5,-196.9146 920.5,-182.9146 795.5,-182.9146"/>
<text text-anchor="start" x="894.0469" y="-187.9146" font-family="Ubuntu" font-style="italic" font-size="10.00" fill="#000000">string</text>
<text text-anchor="start" x="734.2192" y="-172.9146" font-family="Ubuntu" font-size="10.00" fill="#000000">6</text>
<text text-anchor="start" x="743.5" y="-172.9146" font-family="Ubuntu" font-size="10.00" fill="#000000">created_at</text>
<polygon fill="#fb9a99" stroke="transparent" points="795.5,-168.9146 795.5,-182.9146 920.5,-182.9146 920.5,-168.9146 795.5,-168.9146"/>
<text text-anchor="start" x="797.3164" y="-173.9146" font-family="Ubuntu" font-weight="bold" font-size="10.00" fill="#000000">google.protobuf.Timestamp</text>
<text text-anchor="start" x="734.2192" y="-158.9146" font-family="Ubuntu" font-size="10.00" fill="#000000">7</text>
<text text-anchor="start" x="743.4756" y="-158.9146" font-family="Ubuntu" font-size="10.00" fill="#000000">updated_at</text>
<polygon fill="#fb9a99" stroke="transparent" points="795.5,-154.9146 795.5,-168.9146 920.5,-168.9146 920.5,-154.9146 795.5,-154.9146"/>
<text text-anchor="start" x="797.3164" y="-159.9146" font-family="Ubuntu" font-weight="bold" font-size="10.00" fill="#000000">google.protobuf.Timestamp</text>
<text text-anchor="start" x="717.0542" y="-144.9146" font-family="Ubuntu" font-size="10.00" fill="#000000">[...]</text>
<text text-anchor="start" x="734.2192" y="-144.9146" font-family="Ubuntu" font-size="10.00" fill="#000000">8</text>
<text text-anchor="start" x="743.5" y="-144.9146" font-family="Ubuntu" font-size="10.00" fill="#000000">files</text>
<polygon fill="#fb9a99" stroke="transparent" points="795.5,-140.9146 795.5,-154.9146 920.5,-154.9146 920.5,-140.9146 795.5,-140.9146"/>
<text text-anchor="start" x="902.3867" y="-145.9146" font-family="Ubuntu" font-weight="bold" font-size="10.00" fill="#000000">File</text>
<polygon fill="none" stroke="#000000" points="714,-139.9146 714,-267.9146 921,-267.9146 921,-139.9146 714,-139.9146"/>
</a>
</g>
</g>
<!-- Node_Ja_102&#45;&gt;Node_Ja_100 -->
<g id="edge8" class="edge">
<title>Node_Ja_102:e&#45;&gt;Node_Ja_100:header</title>
<g id="a_edge8"><a xlink:title="Ja_102 &#45;&#45;&gt; Ja_100">
<path fill="none" stroke="#000000" d="M920.5,-175.9146C959.1775,-175.9146 924.4164,-117.7534 957,-96.9146 1000.6199,-69.0175 1151.0726,-62.7737 1190,-96.9146 1235.2114,-136.5668 1171.9197,-354.1413 1217.6431,-379.5022"/>
<polygon fill="#000000" stroke="#000000" points="1216.9546,-382.937 1227.5,-381.9146 1218.6187,-376.1376 1216.9546,-382.937"/>
</a>
</g>
</g>
<!-- Node_Ja_102&#45;&gt;Node_Ja_100 -->
<g id="edge12" class="edge">
<title>Node_Ja_102:e&#45;&gt;Node_Ja_100:header</title>
<g id="a_edge12"><a xlink:title="Ja_102 &#45;&#45;&gt; Ja_100">
<path fill="none" stroke="#000000" d="M920.5,-161.9146C964.4893,-161.9146 920.6086,-94.6275 957,-69.9146 1042.6692,-11.7377 1112.5292,-1.1976 1190,-69.9146 1239.4872,-113.81 1166.2072,-354.5056 1217.6978,-379.7693"/>
<polygon fill="#000000" stroke="#000000" points="1216.9829,-383.1957 1227.5,-381.9146 1218.4795,-376.3575 1216.9829,-383.1957"/>
</a>
</g>
</g>
<!-- Node_Ja_102&#45;&gt;Node_Ja_101 -->
<g id="edge9" class="edge">
<title>Node_Ja_102:e&#45;&gt;Node_Ja_101:header</title>
<g id="a_edge9"><a xlink:title="Ja_102 &#45;&#45;&gt; Ja_101">
<path fill="none" stroke="#000000" d="M920.5,-147.9146C974.171,-147.9146 924.5875,-368.4287 964.545,-397.7157"/>
<polygon fill="#000000" stroke="#000000" points="963.9087,-401.1874 974.5,-400.9146 966.0502,-394.523 963.9087,-401.1874"/>
</a>
</g>
</g>
<!-- Node_Ja_103 -->
<g id="node4" class="node">
<title>Node_Ja_103</title>
<g id="a_node4"><a xlink:title="Kind">
<polygon fill="#b2df8a" stroke="transparent" points="1028.5,-112.9146 1028.5,-156.9146 1118.5,-156.9146 1118.5,-112.9146 1028.5,-112.9146"/>
<polygon fill="#33a02c" stroke="transparent" points="1029.5,-141.9146 1029.5,-155.9146 1117.5,-155.9146 1117.5,-141.9146 1029.5,-141.9146"/>
<text text-anchor="start" x="1067.6924" y="-146.9146" font-family="Ubuntu" font-size="10.00" fill="#000000">enum </text>
<text text-anchor="start" x="1095.4854" y="-146.9146" font-family="Ubuntu" font-weight="bold" font-size="10.00" fill="#000000">Kind</text>
<polygon fill="#b2df8a" stroke="transparent" points="1029.5,-127.9146 1029.5,-141.9146 1108.5,-141.9146 1108.5,-127.9146 1029.5,-127.9146"/>
<text text-anchor="start" x="1031.5" y="-131.9146" font-family="Ubuntu" font-size="10.00" fill="#000000">PERSON</text>
<polygon fill="#b2df8a" stroke="transparent" points="1108.5,-127.9146 1108.5,-141.9146 1117.5,-141.9146 1117.5,-127.9146 1108.5,-127.9146"/>
<text text-anchor="start" x="1110.2192" y="-131.9146" font-family="Ubuntu" font-size="10.00" fill="#000000">0</text>
<polygon fill="#b2df8a" stroke="transparent" points="1029.5,-113.9146 1029.5,-127.9146 1108.5,-127.9146 1108.5,-113.9146 1029.5,-113.9146"/>
<text text-anchor="start" x="1031.312" y="-117.9146" font-family="Ubuntu" font-size="10.00" fill="#000000">ORGANIZATION</text>
<polygon fill="#b2df8a" stroke="transparent" points="1108.5,-113.9146 1108.5,-127.9146 1117.5,-127.9146 1117.5,-113.9146 1108.5,-113.9146"/>
<text text-anchor="start" x="1110.2192" y="-117.9146" font-family="Ubuntu" font-size="10.00" fill="#000000">1</text>
<polygon fill="none" stroke="#000000" points="1028.5,-112.9146 1028.5,-156.9146 1118.5,-156.9146 1118.5,-112.9146 1028.5,-112.9146"/>
</a>
</g>
</g>
<!-- Node_Ja_102&#45;&gt;Node_Ja_103 -->
<g id="edge7" class="edge">
<title>Node_Ja_102:e&#45;&gt;Node_Ja_103</title>
<g id="a_edge7"><a xlink:title="Ja_102 &#45;&#45;&gt; Ja_103">
<path fill="none" stroke="#008000" d="M920.5,-231.9146C952.4761,-231.9146 931.8431,-189.6529 957,-169.9146 972.3513,-157.8698 991.7969,-149.9602 1010.3817,-144.7698"/>
<polygon fill="#008000" stroke="#008000" points="1011.4741,-148.103 1020.2899,-142.2266 1009.7337,-141.3228 1011.4741,-148.103"/>
</a>
</g>
</g>
<!-- Node_Ja_106 -->
<g id="node5" class="node">
<title>Node_Ja_106</title>
<g id="a_node5"><a xlink:title="Kind">
<polygon fill="#b2df8a" stroke="transparent" points="1047,-182.9146 1047,-226.9146 1100,-226.9146 1100,-182.9146 1047,-182.9146"/>
<polygon fill="#33a02c" stroke="transparent" points="1048.5,-211.9146 1048.5,-225.9146 1099.5,-225.9146 1099.5,-211.9146 1048.5,-211.9146"/>
<text text-anchor="start" x="1050.0962" y="-216.9146" font-family="Ubuntu" font-size="10.00" fill="#000000">enum </text>
<text text-anchor="start" x="1077.8892" y="-216.9146" font-family="Ubuntu" font-weight="bold" font-size="10.00" fill="#000000">Kind</text>
<polygon fill="#b2df8a" stroke="transparent" points="1048.5,-197.9146 1048.5,-211.9146 1088.5,-211.9146 1088.5,-197.9146 1048.5,-197.9146"/>
<text text-anchor="start" x="1050.5" y="-201.9146" font-family="Ubuntu" font-size="10.00" fill="#000000">QUOTE</text>
<polygon fill="#b2df8a" stroke="transparent" points="1088.5,-197.9146 1088.5,-211.9146 1099.5,-211.9146 1099.5,-197.9146 1088.5,-197.9146"/>
<text text-anchor="start" x="1090.5" y="-201.9146" font-family="Ubuntu" font-size="10.00" fill="#000000">0</text>
<polygon fill="#b2df8a" stroke="transparent" points="1048.5,-183.9146 1048.5,-197.9146 1088.5,-197.9146 1088.5,-183.9146 1048.5,-183.9146"/>
<text text-anchor="start" x="1050.5" y="-187.9146" font-family="Ubuntu" font-size="10.00" fill="#000000">IMAGE</text>
<polygon fill="#b2df8a" stroke="transparent" points="1088.5,-183.9146 1088.5,-197.9146 1099.5,-197.9146 1099.5,-183.9146 1088.5,-183.9146"/>
<text text-anchor="start" x="1090.5" y="-187.9146" font-family="Ubuntu" font-size="10.00" fill="#000000">1</text>
<polygon fill="none" stroke="#000000" points="1047,-182.9146 1047,-226.9146 1100,-226.9146 1100,-182.9146 1047,-182.9146"/>
</a>
</g>
</g>
<!-- Node_Ja_104 -->
<g id="node6" class="node">
<title>Node_Ja_104</title>
<g id="a_node6"><a xlink:title="magda.Source">
<polygon fill="#fffaf0" stroke="transparent" points="578,-370.9146 578,-428.9146 662,-428.9146 662,-370.9146 578,-370.9146"/>
<polygon fill="#e31a1c" stroke="transparent" points="579,-413.9146 579,-427.9146 661,-427.9146 661,-413.9146 579,-413.9146"/>
<text text-anchor="start" x="627.3154" y="-418.9146" font-family="Ubuntu" font-weight="bold" font-size="10.00" fill="#000000">Source</text>
<text text-anchor="start" x="597.7192" y="-403.9146" font-family="Ubuntu" font-size="10.00" fill="#000000">1</text>
<text text-anchor="start" x="606.5493" y="-403.9146" font-family="Ubuntu" font-size="10.00" fill="#000000">entity</text>
<polygon fill="#fb9a99" stroke="transparent" points="632,-399.9146 632,-413.9146 661,-413.9146 661,-399.9146 632,-399.9146"/>
<text text-anchor="start" x="633.9951" y="-404.9146" font-family="Ubuntu" font-weight="bold" font-size="10.00" fill="#000000">Entity</text>
<text text-anchor="start" x="597.7192" y="-389.9146" font-family="Ubuntu" font-size="10.00" fill="#000000">2</text>
<text text-anchor="start" x="607" y="-389.9146" font-family="Ubuntu" font-size="10.00" fill="#000000">url</text>
<polygon fill="#a6cee3" stroke="transparent" points="632,-385.9146 632,-399.9146 661,-399.9146 661,-385.9146 632,-385.9146"/>
<text text-anchor="start" x="634.5469" y="-390.9146" font-family="Ubuntu" font-style="italic" font-size="10.00" fill="#000000">string</text>
<text text-anchor="start" x="580.5542" y="-375.9146" font-family="Ubuntu" font-size="10.00" fill="#000000">[...]</text>
<text text-anchor="start" x="597.7192" y="-375.9146" font-family="Ubuntu" font-size="10.00" fill="#000000">4</text>
<text text-anchor="start" x="607" y="-375.9146" font-family="Ubuntu" font-size="10.00" fill="#000000">titles</text>
<polygon fill="#a6cee3" stroke="transparent" points="632,-371.9146 632,-385.9146 661,-385.9146 661,-371.9146 632,-371.9146"/>
<text text-anchor="start" x="634.5469" y="-376.9146" font-family="Ubuntu" font-style="italic" font-size="10.00" fill="#000000">string</text>
<polygon fill="none" stroke="#000000" points="578,-370.9146 578,-428.9146 662,-428.9146 662,-370.9146 578,-370.9146"/>
</a>
</g>
</g>
<!-- Node_Ja_104&#45;&gt;Node_Ja_102 -->
<g id="edge15" class="edge">
<title>Node_Ja_104:e&#45;&gt;Node_Ja_102:header</title>
<g id="a_edge15"><a xlink:title="Ja_104 &#45;&#45;&gt; Ja_102">
<path fill="none" stroke="#000000" d="M661,-406.9146C726.8684,-406.9146 654.6402,-275.5531 705.4043,-261.1854"/>
<polygon fill="#000000" stroke="#000000" points="706.0154,-264.6362 715.5,-259.9146 705.1411,-257.691 706.0154,-264.6362"/>
</a>
</g>
</g>
<!-- Node_Ja_105 -->
<g id="node7" class="node">
<title>Node_Ja_105</title>
<g id="a_node7"><a xlink:title="magda.Entry">
<polygon fill="#fffaf0" stroke="transparent" points="307,-370.9146 307,-540.9146 526,-540.9146 526,-370.9146 307,-370.9146"/>
<polygon fill="#e31a1c" stroke="transparent" points="308.5,-525.9146 308.5,-539.9146 525.5,-539.9146 525.5,-525.9146 308.5,-525.9146"/>
<text text-anchor="start" x="500.1602" y="-530.9146" font-family="Ubuntu" font-weight="bold" font-size="10.00" fill="#000000">Entry</text>
<text text-anchor="start" x="332.9385" y="-515.9146" font-family="Ubuntu" font-size="10.00" fill="#000000">1</text>
<text text-anchor="start" x="342.5" y="-515.9146" font-family="Ubuntu" font-size="10.00" fill="#000000">id</text>
<polygon fill="#a6cee3" stroke="transparent" points="400.5,-511.9146 400.5,-525.9146 525.5,-525.9146 525.5,-511.9146 400.5,-511.9146"/>
<text text-anchor="start" x="499.0469" y="-516.9146" font-family="Ubuntu" font-style="italic" font-size="10.00" fill="#000000">string</text>
<text text-anchor="start" x="332.9385" y="-501.9146" font-family="Ubuntu" font-size="10.00" fill="#000000">2</text>
<text text-anchor="start" x="342.5" y="-501.9146" font-family="Ubuntu" font-size="10.00" fill="#000000">kind</text>
<polygon fill="#b2df8a" stroke="transparent" points="400.5,-497.9146 400.5,-511.9146 525.5,-511.9146 525.5,-497.9146 400.5,-497.9146"/>
<text text-anchor="start" x="503.4854" y="-502.9146" font-family="Ubuntu" text-decoration="underline" font-size="10.00" fill="#000000">Kind</text>
<text text-anchor="start" x="332.9385" y="-487.9146" font-family="Ubuntu" font-size="10.00" fill="#000000">3</text>
<text text-anchor="start" x="342.5" y="-487.9146" font-family="Ubuntu" font-size="10.00" fill="#000000">source</text>
<polygon fill="#fb9a99" stroke="transparent" points="400.5,-483.9146 400.5,-497.9146 525.5,-497.9146 525.5,-483.9146 400.5,-483.9146"/>
<text text-anchor="start" x="491.8154" y="-488.9146" font-family="Ubuntu" font-weight="bold" font-size="10.00" fill="#000000">Source</text>
<text text-anchor="start" x="310.0542" y="-473.9146" font-family="Ubuntu" font-size="10.00" fill="#000000">[...]</text>
<text text-anchor="start" x="332.9385" y="-473.9146" font-family="Ubuntu" font-size="10.00" fill="#000000">4</text>
<text text-anchor="start" x="342.5" y="-473.9146" font-family="Ubuntu" font-size="10.00" fill="#000000">titles</text>
<polygon fill="#a6cee3" stroke="transparent" points="400.5,-469.9146 400.5,-483.9146 525.5,-483.9146 525.5,-469.9146 400.5,-469.9146"/>
<text text-anchor="start" x="499.0469" y="-474.9146" font-family="Ubuntu" font-style="italic" font-size="10.00" fill="#000000">string</text>
<text text-anchor="start" x="310.0542" y="-459.9146" font-family="Ubuntu" font-size="10.00" fill="#000000">[...]</text>
<text text-anchor="start" x="332.9385" y="-459.9146" font-family="Ubuntu" font-size="10.00" fill="#000000">5</text>
<text text-anchor="start" x="342.5" y="-459.9146" font-family="Ubuntu" font-size="10.00" fill="#000000">files</text>
<polygon fill="#fb9a99" stroke="transparent" points="400.5,-455.9146 400.5,-469.9146 525.5,-469.9146 525.5,-455.9146 400.5,-455.9146"/>
<text text-anchor="start" x="507.3867" y="-460.9146" font-family="Ubuntu" font-weight="bold" font-size="10.00" fill="#000000">File</text>
<text text-anchor="start" x="332.9385" y="-445.9146" font-family="Ubuntu" font-size="10.00" fill="#000000">6</text>
<text text-anchor="start" x="342.5" y="-445.9146" font-family="Ubuntu" font-size="10.00" fill="#000000">description</text>
<polygon fill="#a6cee3" stroke="transparent" points="400.5,-441.9146 400.5,-455.9146 525.5,-455.9146 525.5,-441.9146 400.5,-441.9146"/>
<text text-anchor="start" x="499.0469" y="-446.9146" font-family="Ubuntu" font-style="italic" font-size="10.00" fill="#000000">string</text>
<text text-anchor="start" x="310.0542" y="-431.9146" font-family="Ubuntu" font-size="10.00" fill="#000000">[...]</text>
<text text-anchor="start" x="332.9385" y="-431.9146" font-family="Ubuntu" font-size="10.00" fill="#000000">7</text>
<text text-anchor="start" x="342.5" y="-431.9146" font-family="Ubuntu" font-size="10.00" fill="#000000">creators</text>
<polygon fill="#fb9a99" stroke="transparent" points="400.5,-427.9146 400.5,-441.9146 525.5,-441.9146 525.5,-427.9146 400.5,-427.9146"/>
<text text-anchor="start" x="498.4902" y="-432.9146" font-family="Ubuntu" font-weight="bold" font-size="10.00" fill="#000000">Entity</text>
<text text-anchor="start" x="332.9385" y="-417.9146" font-family="Ubuntu" font-size="10.00" fill="#000000">8</text>
<text text-anchor="start" x="342.5" y="-417.9146" font-family="Ubuntu" font-size="10.00" fill="#000000">found_at</text>
<polygon fill="#fb9a99" stroke="transparent" points="400.5,-413.9146 400.5,-427.9146 525.5,-427.9146 525.5,-413.9146 400.5,-413.9146"/>
<text text-anchor="start" x="402.3164" y="-418.9146" font-family="Ubuntu" font-weight="bold" font-size="10.00" fill="#000000">google.protobuf.Timestamp</text>
<text text-anchor="start" x="332.9385" y="-403.9146" font-family="Ubuntu" font-size="10.00" fill="#000000">9</text>
<text text-anchor="start" x="342.1431" y="-403.9146" font-family="Ubuntu" font-size="10.00" fill="#000000">published_at</text>
<polygon fill="#fb9a99" stroke="transparent" points="400.5,-399.9146 400.5,-413.9146 525.5,-413.9146 525.5,-399.9146 400.5,-399.9146"/>
<text text-anchor="start" x="402.3164" y="-404.9146" font-family="Ubuntu" font-weight="bold" font-size="10.00" fill="#000000">google.protobuf.Timestamp</text>
<text text-anchor="start" x="327.4385" y="-389.9146" font-family="Ubuntu" font-size="10.00" fill="#000000">10</text>
<text text-anchor="start" x="342.5" y="-389.9146" font-family="Ubuntu" font-size="10.00" fill="#000000">created_at</text>
<polygon fill="#fb9a99" stroke="transparent" points="400.5,-385.9146 400.5,-399.9146 525.5,-399.9146 525.5,-385.9146 400.5,-385.9146"/>
<text text-anchor="start" x="402.3164" y="-390.9146" font-family="Ubuntu" font-weight="bold" font-size="10.00" fill="#000000">google.protobuf.Timestamp</text>
<text text-anchor="start" x="328.1143" y="-375.9146" font-family="Ubuntu" font-size="10.00" fill="#000000">11</text>
<text text-anchor="start" x="342.5" y="-375.9146" font-family="Ubuntu" font-size="10.00" fill="#000000">updated_at</text>
<polygon fill="#fb9a99" stroke="transparent" points="400.5,-371.9146 400.5,-385.9146 525.5,-385.9146 525.5,-371.9146 400.5,-371.9146"/>
<text text-anchor="start" x="402.3164" y="-376.9146" font-family="Ubuntu" font-weight="bold" font-size="10.00" fill="#000000">google.protobuf.Timestamp</text>
<polygon fill="none" stroke="#000000" points="307,-370.9146 307,-540.9146 526,-540.9146 526,-370.9146 307,-370.9146"/>
</a>
</g>
</g>
<!-- Node_Ja_105&#45;&gt;Node_Ja_100 -->
<g id="edge4" class="edge">
<title>Node_Ja_105:e&#45;&gt;Node_Ja_100:header</title>
<g id="a_edge4"><a xlink:title="Ja_105 &#45;&#45;&gt; Ja_100">
<path fill="none" stroke="#000000" d="M525.5,-420.9146C586.5691,-420.9146 520.3148,-515.4067 570,-550.9146 794.1894,-711.1331 975.0822,-723.3709 1190,-550.9146 1247.0773,-505.1141 1159.8933,-393.5428 1217.4523,-382.7564"/>
<polygon fill="#000000" stroke="#000000" points="1217.8272,-386.2374 1227.5,-381.9146 1217.2427,-379.2618 1217.8272,-386.2374"/>
</a>
</g>
</g>
<!-- Node_Ja_105&#45;&gt;Node_Ja_100 -->
<g id="edge11" class="edge">
<title>Node_Ja_105:e&#45;&gt;Node_Ja_100:header</title>
<g id="a_edge11"><a xlink:title="Ja_105 &#45;&#45;&gt; Ja_100">
<path fill="none" stroke="#000000" d="M525.5,-378.9146C559.7806,-378.9146 539.6627,-425.9518 570,-441.9146 722.2272,-522.0133 784.9892,-445.8034 957,-446.9146 1060.5534,-447.5835 1100.3266,-498.7067 1190,-446.9146 1215.2708,-432.3191 1199.4936,-393.5001 1217.4976,-384.0234"/>
<polygon fill="#000000" stroke="#000000" points="1218.4372,-387.4023 1227.5,-381.9146 1216.993,-380.5529 1218.4372,-387.4023"/>
</a>
</g>
</g>
<!-- Node_Ja_105&#45;&gt;Node_Ja_100 -->
<g id="edge13" class="edge">
<title>Node_Ja_105:e&#45;&gt;Node_Ja_100:header</title>
<g id="a_edge13"><a xlink:title="Ja_105 &#45;&#45;&gt; Ja_100">
<path fill="none" stroke="#000000" d="M525.5,-392.9146C566.1861,-392.9146 535.1724,-451.8813 570,-472.9146 628.9695,-508.5277 1132.9847,-510.5792 1190,-471.9146 1222.5021,-449.8734 1191.3033,-393.8658 1217.4206,-383.5581"/>
<polygon fill="#000000" stroke="#000000" points="1218.1937,-386.9784 1227.5,-381.9146 1217.067,-380.0696 1218.1937,-386.9784"/>
</a>
</g>
</g>
<!-- Node_Ja_105&#45;&gt;Node_Ja_100 -->
<g id="edge17" class="edge">
<title>Node_Ja_105:e&#45;&gt;Node_Ja_100:header</title>
<g id="a_edge17"><a xlink:title="Ja_105 &#45;&#45;&gt; Ja_100">
<path fill="none" stroke="#000000" d="M525.5,-406.9146C569.7245,-406.9146 533.7998,-470.5109 570,-495.9146 617.0106,-528.9045 887.9751,-512.0766 937,-510.9146 1049.5392,-508.2471 1100.6582,-567.3999 1190,-498.9146 1230.1213,-468.1594 1181.2947,-394.0721 1217.1535,-383.2441"/>
<polygon fill="#000000" stroke="#000000" points="1218.0277,-386.6606 1227.5,-381.9146 1217.1354,-379.7177 1218.0277,-386.6606"/>
</a>
</g>
</g>
<!-- Node_Ja_105&#45;&gt;Node_Ja_101 -->
<g id="edge16" class="edge">
<title>Node_Ja_105:e&#45;&gt;Node_Ja_101:header</title>
<g id="a_edge16"><a xlink:title="Ja_105 &#45;&#45;&gt; Ja_101">
<path fill="none" stroke="#000000" d="M525.5,-462.9146C723.5063,-462.9146 771.4298,-403.0156 964.3064,-400.9683"/>
<polygon fill="#000000" stroke="#000000" points="964.5186,-404.4673 974.5,-400.9146 964.4817,-397.4674 964.5186,-404.4673"/>
</a>
</g>
</g>
<!-- Node_Ja_105&#45;&gt;Node_Ja_102 -->
<g id="edge3" class="edge">
<title>Node_Ja_105:e&#45;&gt;Node_Ja_102:header</title>
<g id="a_edge3"><a xlink:title="Ja_105 &#45;&#45;&gt; Ja_102">
<path fill="none" stroke="#000000" d="M525.5,-434.9146C565.0262,-434.9146 543.0274,-386.8074 570,-357.9146 620.8146,-303.4824 636.1672,-263.6311 705.3687,-260.1606"/>
<polygon fill="#000000" stroke="#000000" points="705.5879,-263.6564 715.5,-259.9146 705.418,-256.6584 705.5879,-263.6564"/>
</a>
</g>
</g>
<!-- Node_Ja_105&#45;&gt;Node_Ja_106 -->
<g id="edge2" class="edge">
<title>Node_Ja_105:e&#45;&gt;Node_Ja_106</title>
<g id="a_edge2"><a xlink:title="Ja_105 &#45;&#45;&gt; Ja_106">
<path fill="none" stroke="#008000" d="M525.5,-504.9146C598.8337,-504.9146 611.5778,-472.9937 678,-441.9146 795.7622,-386.8133 846.4393,-399.2037 937,-305.9146 951.122,-291.3671 942.8204,-279.406 957,-264.9146 976.9977,-244.4771 1005.44,-229.6453 1029.215,-219.841"/>
<polygon fill="#008000" stroke="#008000" points="1030.7299,-223.0057 1038.7419,-216.0733 1028.1555,-216.4962 1030.7299,-223.0057"/>
</a>
</g>
</g>
<!-- Node_Ja_105&#45;&gt;Node_Ja_104 -->
<g id="edge10" class="edge">
<title>Node_Ja_105:e&#45;&gt;Node_Ja_104:header</title>
<g id="a_edge10"><a xlink:title="Ja_105 &#45;&#45;&gt; Ja_104">
<path fill="none" stroke="#000000" d="M525.5,-490.9146C560.6803,-490.9146 544.2234,-434.4113 568.9149,-422.934"/>
<polygon fill="#000000" stroke="#000000" points="569.8819,-426.31 579,-420.9146 568.5074,-419.4462 569.8819,-426.31"/>
</a>
</g>
</g>
<!-- Node_Ja_109 -->
<g id="node8" class="node">
<title>Node_Ja_109</title>
<g id="a_node8"><a xlink:title="magda.EntryRequest">
<polygon fill="#fffaf0" stroke="transparent" points="185,-580.9146 185,-610.9146 251,-610.9146 251,-580.9146 185,-580.9146"/>
<polygon fill="#e31a1c" stroke="transparent" points="186,-595.9146 186,-609.9146 250,-609.9146 250,-595.9146 186,-595.9146"/>
<text text-anchor="start" x="187.707" y="-600.9146" font-family="Ubuntu" font-weight="bold" font-size="10.00" fill="#000000">EntryRequest</text>
<text text-anchor="start" x="200.4385" y="-585.9146" font-family="Ubuntu" font-size="10.00" fill="#000000">1</text>
<text text-anchor="start" x="210" y="-585.9146" font-family="Ubuntu" font-size="10.00" fill="#000000">id</text>
<polygon fill="#a6cee3" stroke="transparent" points="220,-581.9146 220,-595.9146 250,-595.9146 250,-581.9146 220,-581.9146"/>
<text text-anchor="start" x="223.5469" y="-586.9146" font-family="Ubuntu" font-style="italic" font-size="10.00" fill="#000000">string</text>
<polygon fill="none" stroke="#000000" points="185,-580.9146 185,-610.9146 251,-610.9146 251,-580.9146 185,-580.9146"/>
</a>
</g>
</g>
<!-- Node_Ja_110 -->
<g id="node9" class="node">
<title>Node_Ja_110</title>
<g id="a_node9"><a xlink:title="magda.EntryResponse">
<polygon fill="#fffaf0" stroke="transparent" points="181,-524.9146 181,-554.9146 255,-554.9146 255,-524.9146 181,-524.9146"/>
<polygon fill="#e31a1c" stroke="transparent" points="182,-539.9146 182,-553.9146 254,-553.9146 254,-539.9146 182,-539.9146"/>
<text text-anchor="start" x="183.8154" y="-544.9146" font-family="Ubuntu" font-weight="bold" font-size="10.00" fill="#000000">EntryResponse</text>
<text text-anchor="start" x="191.4385" y="-529.9146" font-family="Ubuntu" font-size="10.00" fill="#000000">1</text>
<text text-anchor="start" x="201" y="-529.9146" font-family="Ubuntu" font-size="10.00" fill="#000000">entry</text>
<polygon fill="#fb9a99" stroke="transparent" points="226,-525.9146 226,-539.9146 254,-539.9146 254,-525.9146 226,-525.9146"/>
<text text-anchor="start" x="228.6602" y="-530.9146" font-family="Ubuntu" font-weight="bold" font-size="10.00" fill="#000000">Entry</text>
<polygon fill="none" stroke="#000000" points="181,-524.9146 181,-554.9146 255,-554.9146 255,-524.9146 181,-524.9146"/>
</a>
</g>
</g>
<!-- Node_Ja_110&#45;&gt;Node_Ja_105 -->
<g id="edge5" class="edge">
<title>Node_Ja_110:e&#45;&gt;Node_Ja_105:header</title>
<g id="a_edge5"><a xlink:title="Ja_110 &#45;&#45;&gt; Ja_105">
<path fill="none" stroke="#000000" d="M254,-532.9146C274.4375,-532.9146 281.9419,-532.9146 298.3378,-532.9146"/>
<polygon fill="#000000" stroke="#000000" points="298.5,-536.4147 308.5,-532.9146 298.5,-529.4147 298.5,-536.4147"/>
</a>
</g>
</g>
<!-- Node_Ja_107 -->
<g id="node10" class="node">
<title>Node_Ja_107</title>
<g id="a_node10"><a xlink:title="MagdaService">
<polygon fill="#ffd700" stroke="transparent" points="8,-559.9146 8,-603.9146 129,-603.9146 129,-559.9146 8,-559.9146"/>
<polygon fill="#ff7f50" stroke="transparent" points="9.5,-588.9146 9.5,-602.9146 128.5,-602.9146 128.5,-588.9146 9.5,-588.9146"/>
<text text-anchor="start" x="62.5791" y="-593.9146" font-family="Ubuntu" font-weight="bold" font-size="10.00" fill="#000000">MagdaService</text>
<text text-anchor="start" x="11.271" y="-579.9146" font-family="Ubuntu" font-weight="bold" font-size="10.00" fill="#000000">GetEntry</text>
<text text-anchor="start" x="65.9141" y="-578.9146" font-family="Ubuntu" font-size="10.00" fill="#000000">EntryRequest</text>
<polygon fill="#ff7f50" stroke="transparent" points="52.5,-560.9146 52.5,-574.9146 56.5,-574.9146 56.5,-560.9146 52.5,-560.9146"/>
<polygon fill="#ff7f50" stroke="transparent" points="56.5,-560.9146 56.5,-574.9146 128.5,-574.9146 128.5,-560.9146 56.5,-560.9146"/>
<text text-anchor="start" x="58.3154" y="-564.9146" font-family="Ubuntu" font-size="10.00" fill="#000000">EntryResponse</text>
<polygon fill="none" stroke="#000000" points="8,-559.9146 8,-603.9146 129,-603.9146 129,-559.9146 8,-559.9146"/>
</a>
</g>
</g>
<!-- Node_Ja_107&#45;&gt;Node_Ja_109 -->
<g id="edge14" class="edge">
<title>Node_Ja_107:e&#45;&gt;Node_Ja_109:header</title>
<g id="a_edge14"><a xlink:title="Ja_107 &#45;&#45;&gt; Ja_109">
<path fill="none" stroke="#000000" d="M128.5,-581.9146C151.8806,-581.9146 157.4483,-597.4236 175.819,-601.7855"/>
<polygon fill="#000000" stroke="#000000" points="175.6751,-605.2909 186,-602.9146 176.4467,-598.3336 175.6751,-605.2909"/>
</a>
</g>
</g>
<!-- Node_Ja_107&#45;&gt;Node_Ja_110 -->
<g id="edge18" class="edge">
<title>Node_Ja_107:e&#45;&gt;Node_Ja_110:header</title>
<g id="a_edge18"><a xlink:title="Ja_107 &#45;&#45;&gt; Ja_110">
<path fill="none" stroke="#000000" d="M128.5,-567.9146C150.2523,-567.9146 155.2303,-552.6862 172.0027,-548.1653"/>
<polygon fill="#000000" stroke="#000000" points="172.5119,-551.629 182,-546.9146 171.6428,-544.6831 172.5119,-551.629"/>
</a>
</g>
</g>
</g>
</svg>
