<?xml version="1.0" encoding="UTF-8" standalone="no"?>
<!DOCTYPE svg PUBLIC "-//W3C//DTD SVG 1.1//EN"
 "http://www.w3.org/Graphics/SVG/1.1/DTD/svg11.dtd">
<!-- Generated by graphviz version 2.40.1 (20161225.0304)
 -->
<!-- Title: protodot Pages: 1 -->
<svg width="1339pt" height="587pt"
 viewBox="0.00 0.00 1339.00 586.96" xmlns="http://www.w3.org/2000/svg" xmlns:xlink="http://www.w3.org/1999/xlink">
<g id="graph0" class="graph" transform="scale(1 1) rotate(0) translate(4 582.9638)">
<title>protodot</title>
<g id="a_graph0"><a xlink:title="magda">
<text text-anchor="middle" x="665.5" y="-6.8" font-family="Times,serif" font-size="14.00" fill="#000000">magda</text>
</a>
</g>
<g id="clust1" class="cluster">
<title>cluster_b5eb5ae3708a</title>
<g id="a_clust1"><a xlink:title="entry.proto">
<polygon fill="#caff70" stroke="#000000" points="291,-308.4081 291,-510.4081 678,-510.4081 678,-308.4081 291,-308.4081"/>
<text text-anchor="middle" x="484.5" y="-495.2081" font-family="Times,serif" font-size="14.00" fill="#000000">entry.proto</text>
</a>
</g>
</g>
<g id="clust2" class="cluster">
<title>cluster_5627932c6abb</title>
<g id="a_clust2"><a xlink:title="timestamp.proto">
<polygon fill="#caff70" stroke="#000000" points="1210,-300.4081 1210,-390.4081 1323,-390.4081 1323,-300.4081 1210,-300.4081"/>
<text text-anchor="middle" x="1266.5" y="-375.2081" font-family="Times,serif" font-size="14.00" fill="#000000">timestamp.proto</text>
</a>
</g>
</g>
<g id="clust3" class="cluster">
<title>cluster_9d1e3c2635ff</title>
<g id="a_clust3"><a xlink:title="magda">
<polygon fill="#caff70" stroke="#000000" points="1012.5,-132.4081 1012.5,-292.4081 1134.5,-292.4081 1134.5,-132.4081 1012.5,-132.4081"/>
<text text-anchor="middle" x="1073.5" y="-277.2081" font-family="Times,serif" font-size="14.00" fill="#000000">magda</text>
</a>
</g>
</g>
<g id="clust4" class="cluster">
<title>cluster_8b180d234311</title>
<g id="a_clust4"><a xlink:title="file.proto">
<polygon fill="#caff70" stroke="#000000" points="957,-368.4081 957,-542.4081 1190,-542.4081 1190,-368.4081 957,-368.4081"/>
<text text-anchor="middle" x="1073.5" y="-527.2081" font-family="Times,serif" font-size="14.00" fill="#000000">file.proto</text>
</a>
</g>
</g>
<g id="clust5" class="cluster">
<title>cluster_f56b993e78fb</title>
<g id="a_clust5"><a xlink:title="entity.proto">
<polygon fill="#caff70" stroke="#000000" points="698,-288.4081 698,-462.4081 937,-462.4081 937,-288.4081 698,-288.4081"/>
<text text-anchor="middle" x="817.5" y="-447.2081" font-family="Times,serif" font-size="14.00" fill="#000000">entity.proto</text>
</a>
</g>
</g>
<!-- Node_Ja_104 -->
<g id="node1" class="node">
<title>Node_Ja_104</title>
<g id="a_node1"><a xlink:title="magda.Source">
<polygon fill="#fffaf0" stroke="transparent" points="578,-376.4081 578,-434.4081 662,-434.4081 662,-376.4081 578,-376.4081"/>
<polygon fill="#e31a1c" stroke="transparent" points="579,-419.4081 579,-433.4081 661,-433.4081 661,-419.4081 579,-419.4081"/>
<text text-anchor="start" x="627.3154" y="-424.4081" font-family="Ubuntu" font-weight="bold" font-size="10.00" fill="#000000">Source</text>
<text text-anchor="start" x="597.7192" y="-409.4081" font-family="Ubuntu" font-size="10.00" fill="#000000">1</text>
<text text-anchor="start" x="606.5493" y="-409.4081" font-family="Ubuntu" font-size="10.00" fill="#000000">entity</text>
<polygon fill="#fb9a99" stroke="transparent" points="632,-405.4081 632,-419.4081 661,-419.4081 661,-405.4081 632,-405.4081"/>
<text text-anchor="start" x="633.9951" y="-410.4081" font-family="Ubuntu" font-weight="bold" font-size="10.00" fill="#000000">Entity</text>
<text text-anchor="start" x="597.7192" y="-395.4081" font-family="Ubuntu" font-size="10.00" fill="#000000">2</text>
<text text-anchor="start" x="607" y="-395.4081" font-family="Ubuntu" font-size="10.00" fill="#000000">url</text>
<polygon fill="#a6cee3" stroke="transparent" points="632,-391.4081 632,-405.4081 661,-405.4081 661,-391.4081 632,-391.4081"/>
<text text-anchor="start" x="634.5469" y="-396.4081" font-family="Ubuntu" font-style="italic" font-size="10.00" fill="#000000">string</text>
<text text-anchor="start" x="580.5542" y="-381.4081" font-family="Ubuntu" font-size="10.00" fill="#000000">[...]</text>
<text text-anchor="start" x="597.7192" y="-381.4081" font-family="Ubuntu" font-size="10.00" fill="#000000">4</text>
<text text-anchor="start" x="607" y="-381.4081" font-family="Ubuntu" font-size="10.00" fill="#000000">titles</text>
<polygon fill="#a6cee3" stroke="transparent" points="632,-377.4081 632,-391.4081 661,-391.4081 661,-377.4081 632,-377.4081"/>
<text text-anchor="start" x="634.5469" y="-382.4081" font-family="Ubuntu" font-style="italic" font-size="10.00" fill="#000000">string</text>
<polygon fill="none" stroke="#000000" points="578,-376.4081 578,-434.4081 662,-434.4081 662,-376.4081 578,-376.4081"/>
</a>
</g>
</g>
<!-- Node_Ja_102 -->
<g id="node10" class="node">
<title>Node_Ja_102</title>
<g id="a_node10"><a xlink:title="magda.Entity">
<polygon fill="#fffaf0" stroke="transparent" points="714,-300.4081 714,-428.4081 921,-428.4081 921,-300.4081 714,-300.4081"/>
<polygon fill="#e31a1c" stroke="transparent" points="715.5,-413.4081 715.5,-427.4081 920.5,-427.4081 920.5,-413.4081 715.5,-413.4081"/>
<text text-anchor="start" x="893.4902" y="-418.4081" font-family="Ubuntu" font-weight="bold" font-size="10.00" fill="#000000">Entity</text>
<text text-anchor="start" x="734.2192" y="-403.4081" font-family="Ubuntu" font-size="10.00" fill="#000000">1</text>
<text text-anchor="start" x="743.5" y="-403.4081" font-family="Ubuntu" font-size="10.00" fill="#000000">id</text>
<polygon fill="#a6cee3" stroke="transparent" points="795.5,-399.4081 795.5,-413.4081 920.5,-413.4081 920.5,-399.4081 795.5,-399.4081"/>
<text text-anchor="start" x="894.0469" y="-404.4081" font-family="Ubuntu" font-style="italic" font-size="10.00" fill="#000000">string</text>
<text text-anchor="start" x="734.2192" y="-389.4081" font-family="Ubuntu" font-size="10.00" fill="#000000">2</text>
<text text-anchor="start" x="743.5" y="-389.4081" font-family="Ubuntu" font-size="10.00" fill="#000000">kind</text>
<polygon fill="#b2df8a" stroke="transparent" points="795.5,-385.4081 795.5,-399.4081 920.5,-399.4081 920.5,-385.4081 795.5,-385.4081"/>
<text text-anchor="start" x="898.4854" y="-390.4081" font-family="Ubuntu" text-decoration="underline" font-size="10.00" fill="#000000">Kind</text>
<text text-anchor="start" x="717.0542" y="-375.4081" font-family="Ubuntu" font-size="10.00" fill="#000000">[...]</text>
<text text-anchor="start" x="734.2192" y="-375.4081" font-family="Ubuntu" font-size="10.00" fill="#000000">3</text>
<text text-anchor="start" x="743.5" y="-375.4081" font-family="Ubuntu" font-size="10.00" fill="#000000">names</text>
<polygon fill="#a6cee3" stroke="transparent" points="795.5,-371.4081 795.5,-385.4081 920.5,-385.4081 920.5,-371.4081 795.5,-371.4081"/>
<text text-anchor="start" x="894.0469" y="-376.4081" font-family="Ubuntu" font-style="italic" font-size="10.00" fill="#000000">string</text>
<text text-anchor="start" x="717.0542" y="-361.4081" font-family="Ubuntu" font-size="10.00" fill="#000000">[...]</text>
<text text-anchor="start" x="734.2192" y="-361.4081" font-family="Ubuntu" font-size="10.00" fill="#000000">4</text>
<text text-anchor="start" x="743.5" y="-361.4081" font-family="Ubuntu" font-size="10.00" fill="#000000">urls</text>
<polygon fill="#a6cee3" stroke="transparent" points="795.5,-357.4081 795.5,-371.4081 920.5,-371.4081 920.5,-357.4081 795.5,-357.4081"/>
<text text-anchor="start" x="894.0469" y="-362.4081" font-family="Ubuntu" font-style="italic" font-size="10.00" fill="#000000">string</text>
<text text-anchor="start" x="734.2192" y="-347.4081" font-family="Ubuntu" font-size="10.00" fill="#000000">5</text>
<text text-anchor="start" x="743.5" y="-347.4081" font-family="Ubuntu" font-size="10.00" fill="#000000">description</text>
<polygon fill="#a6cee3" stroke="transparent" points="795.5,-343.4081 795.5,-357.4081 920.5,-357.4081 920.5,-343.4081 795.5,-343.4081"/>
<text text-anchor="start" x="894.0469" y="-348.4081" font-family="Ubuntu" font-style="italic" font-size="10.00" fill="#000000">string</text>
<text text-anchor="start" x="734.2192" y="-333.4081" font-family="Ubuntu" font-size="10.00" fill="#000000">6</text>
<text text-anchor="start" x="743.5" y="-333.4081" font-family="Ubuntu" font-size="10.00" fill="#000000">created_at</text>
<polygon fill="#fb9a99" stroke="transparent" points="795.5,-329.4081 795.5,-343.4081 920.5,-343.4081 920.5,-329.4081 795.5,-329.4081"/>
<text text-anchor="start" x="797.3164" y="-334.4081" font-family="Ubuntu" font-weight="bold" font-size="10.00" fill="#000000">google.protobuf.Timestamp</text>
<text text-anchor="start" x="734.2192" y="-319.4081" font-family="Ubuntu" font-size="10.00" fill="#000000">7</text>
<text text-anchor="start" x="743.4756" y="-319.4081" font-family="Ubuntu" font-size="10.00" fill="#000000">updated_at</text>
<polygon fill="#fb9a99" stroke="transparent" points="795.5,-315.4081 795.5,-329.4081 920.5,-329.4081 920.5,-315.4081 795.5,-315.4081"/>
<text text-anchor="start" x="797.3164" y="-320.4081" font-family="Ubuntu" font-weight="bold" font-size="10.00" fill="#000000">google.protobuf.Timestamp</text>
<text text-anchor="start" x="717.0542" y="-305.4081" font-family="Ubuntu" font-size="10.00" fill="#000000">[...]</text>
<text text-anchor="start" x="734.2192" y="-305.4081" font-family="Ubuntu" font-size="10.00" fill="#000000">8</text>
<text text-anchor="start" x="743.5" y="-305.4081" font-family="Ubuntu" font-size="10.00" fill="#000000">files</text>
<polygon fill="#fb9a99" stroke="transparent" points="795.5,-301.4081 795.5,-315.4081 920.5,-315.4081 920.5,-301.4081 795.5,-301.4081"/>
<text text-anchor="start" x="902.3867" y="-306.4081" font-family="Ubuntu" font-weight="bold" font-size="10.00" fill="#000000">File</text>
<polygon fill="none" stroke="#000000" points="714,-300.4081 714,-428.4081 921,-428.4081 921,-300.4081 714,-300.4081"/>
</a>
</g>
</g>
<!-- Node_Ja_104&#45;&gt;Node_Ja_102 -->
<g id="edge13" class="edge">
<title>Node_Ja_104:e&#45;&gt;Node_Ja_102:header</title>
<g id="a_edge13"><a xlink:title="Ja_104 &#45;&#45;&gt; Ja_102">
<path fill="none" stroke="#000000" d="M661,-412.4081C681.6565,-412.4081 688.8255,-418.1034 705.2672,-419.8832"/>
<polygon fill="#000000" stroke="#000000" points="705.3338,-423.3911 715.5,-420.4081 705.6925,-416.4003 705.3338,-423.3911"/>
</a>
</g>
</g>
<!-- Node_Ja_105 -->
<g id="node2" class="node">
<title>Node_Ja_105</title>
<g id="a_node2"><a xlink:title="magda.Entry">
<polygon fill="#fffaf0" stroke="transparent" points="307,-320.4081 307,-476.4081 526,-476.4081 526,-320.4081 307,-320.4081"/>
<polygon fill="#e31a1c" stroke="transparent" points="308.5,-461.4081 308.5,-475.4081 525.5,-475.4081 525.5,-461.4081 308.5,-461.4081"/>
<text text-anchor="start" x="500.1602" y="-466.4081" font-family="Ubuntu" font-weight="bold" font-size="10.00" fill="#000000">Entry</text>
<text text-anchor="start" x="332.9385" y="-451.4081" font-family="Ubuntu" font-size="10.00" fill="#000000">1</text>
<text text-anchor="start" x="342.5" y="-451.4081" font-family="Ubuntu" font-size="10.00" fill="#000000">id</text>
<polygon fill="#a6cee3" stroke="transparent" points="400.5,-447.4081 400.5,-461.4081 525.5,-461.4081 525.5,-447.4081 400.5,-447.4081"/>
<text text-anchor="start" x="499.0469" y="-452.4081" font-family="Ubuntu" font-style="italic" font-size="10.00" fill="#000000">string</text>
<text text-anchor="start" x="332.9385" y="-437.4081" font-family="Ubuntu" font-size="10.00" fill="#000000">2</text>
<text text-anchor="start" x="342.5" y="-437.4081" font-family="Ubuntu" font-size="10.00" fill="#000000">kind</text>
<polygon fill="#b2df8a" stroke="transparent" points="400.5,-433.4081 400.5,-447.4081 525.5,-447.4081 525.5,-433.4081 400.5,-433.4081"/>
<text text-anchor="start" x="503.4854" y="-438.4081" font-family="Ubuntu" text-decoration="underline" font-size="10.00" fill="#000000">Kind</text>
<text text-anchor="start" x="332.9385" y="-423.4081" font-family="Ubuntu" font-size="10.00" fill="#000000">3</text>
<text text-anchor="start" x="342.5" y="-423.4081" font-family="Ubuntu" font-size="10.00" fill="#000000">source</text>
<polygon fill="#fb9a99" stroke="transparent" points="400.5,-419.4081 400.5,-433.4081 525.5,-433.4081 525.5,-419.4081 400.5,-419.4081"/>
<text text-anchor="start" x="491.8154" y="-424.4081" font-family="Ubuntu" font-weight="bold" font-size="10.00" fill="#000000">Source</text>
<text text-anchor="start" x="310.0542" y="-409.4081" font-family="Ubuntu" font-size="10.00" fill="#000000">[...]</text>
<text text-anchor="start" x="332.9385" y="-409.4081" font-family="Ubuntu" font-size="10.00" fill="#000000">4</text>
<text text-anchor="start" x="342.5" y="-409.4081" font-family="Ubuntu" font-size="10.00" fill="#000000">titles</text>
<polygon fill="#a6cee3" stroke="transparent" points="400.5,-405.4081 400.5,-419.4081 525.5,-419.4081 525.5,-405.4081 400.5,-405.4081"/>
<text text-anchor="start" x="499.0469" y="-410.4081" font-family="Ubuntu" font-style="italic" font-size="10.00" fill="#000000">string</text>
<text text-anchor="start" x="310.0542" y="-395.4081" font-family="Ubuntu" font-size="10.00" fill="#000000">[...]</text>
<text text-anchor="start" x="332.9385" y="-395.4081" font-family="Ubuntu" font-size="10.00" fill="#000000">5</text>
<text text-anchor="start" x="342.5" y="-395.4081" font-family="Ubuntu" font-size="10.00" fill="#000000">files</text>
<polygon fill="#fb9a99" stroke="transparent" points="400.5,-391.4081 400.5,-405.4081 525.5,-405.4081 525.5,-391.4081 400.5,-391.4081"/>
<text text-anchor="start" x="507.3867" y="-396.4081" font-family="Ubuntu" font-weight="bold" font-size="10.00" fill="#000000">File</text>
<text text-anchor="start" x="332.9385" y="-381.4081" font-family="Ubuntu" font-size="10.00" fill="#000000">6</text>
<text text-anchor="start" x="342.5" y="-381.4081" font-family="Ubuntu" font-size="10.00" fill="#000000">description</text>
<polygon fill="#a6cee3" stroke="transparent" points="400.5,-377.4081 400.5,-391.4081 525.5,-391.4081 525.5,-377.4081 400.5,-377.4081"/>
<text text-anchor="start" x="499.0469" y="-382.4081" font-family="Ubuntu" font-style="italic" font-size="10.00" fill="#000000">string</text>
<text text-anchor="start" x="310.0542" y="-367.4081" font-family="Ubuntu" font-size="10.00" fill="#000000">[...]</text>
<text text-anchor="start" x="332.9385" y="-367.4081" font-family="Ubuntu" font-size="10.00" fill="#000000">7</text>
<text text-anchor="start" x="342.5" y="-367.4081" font-family="Ubuntu" font-size="10.00" fill="#000000">creators</text>
<polygon fill="#fb9a99" stroke="transparent" points="400.5,-363.4081 400.5,-377.4081 525.5,-377.4081 525.5,-363.4081 400.5,-363.4081"/>
<text text-anchor="start" x="498.4902" y="-368.4081" font-family="Ubuntu" font-weight="bold" font-size="10.00" fill="#000000">Entity</text>
<text text-anchor="start" x="332.9385" y="-353.4081" font-family="Ubuntu" font-size="10.00" fill="#000000">9</text>
<text text-anchor="start" x="342.1431" y="-353.4081" font-family="Ubuntu" font-size="10.00" fill="#000000">published_at</text>
<polygon fill="#fb9a99" stroke="transparent" points="400.5,-349.4081 400.5,-363.4081 525.5,-363.4081 525.5,-349.4081 400.5,-349.4081"/>
<text text-anchor="start" x="402.3164" y="-354.4081" font-family="Ubuntu" font-weight="bold" font-size="10.00" fill="#000000">google.protobuf.Timestamp</text>
<text text-anchor="start" x="327.4385" y="-339.4081" font-family="Ubuntu" font-size="10.00" fill="#000000">10</text>
<text text-anchor="start" x="342.5" y="-339.4081" font-family="Ubuntu" font-size="10.00" fill="#000000">created_at</text>
<polygon fill="#fb9a99" stroke="transparent" points="400.5,-335.4081 400.5,-349.4081 525.5,-349.4081 525.5,-335.4081 400.5,-335.4081"/>
<text text-anchor="start" x="402.3164" y="-340.4081" font-family="Ubuntu" font-weight="bold" font-size="10.00" fill="#000000">google.protobuf.Timestamp</text>
<text text-anchor="start" x="328.1143" y="-325.4081" font-family="Ubuntu" font-size="10.00" fill="#000000">11</text>
<text text-anchor="start" x="342.5" y="-325.4081" font-family="Ubuntu" font-size="10.00" fill="#000000">updated_at</text>
<polygon fill="#fb9a99" stroke="transparent" points="400.5,-321.4081 400.5,-335.4081 525.5,-335.4081 525.5,-321.4081 400.5,-321.4081"/>
<text text-anchor="start" x="402.3164" y="-326.4081" font-family="Ubuntu" font-weight="bold" font-size="10.00" fill="#000000">google.protobuf.Timestamp</text>
<polygon fill="none" stroke="#000000" points="307,-320.4081 307,-476.4081 526,-476.4081 526,-320.4081 307,-320.4081"/>
</a>
</g>
</g>
<!-- Node_Ja_105&#45;&gt;Node_Ja_104 -->
<g id="edge1" class="edge">
<title>Node_Ja_105:e&#45;&gt;Node_Ja_104:header</title>
<g id="a_edge1"><a xlink:title="Ja_105 &#45;&#45;&gt; Ja_104">
<path fill="none" stroke="#000000" d="M525.5,-426.4081C545.3767,-426.4081 552.7917,-426.4081 568.5794,-426.4081"/>
<polygon fill="#000000" stroke="#000000" points="569,-429.9082 579,-426.4081 569,-422.9082 569,-429.9082"/>
</a>
</g>
</g>
<!-- Node_Ja_100 -->
<g id="node3" class="node">
<title>Node_Ja_100</title>
<g id="a_node3"><a xlink:title="google.protobuf.Timestamp">
<polygon fill="#fffaf0" stroke="transparent" points="1226,-312.4081 1226,-356.4081 1307,-356.4081 1307,-312.4081 1226,-312.4081"/>
<polygon fill="#e31a1c" stroke="transparent" points="1227.5,-341.4081 1227.5,-355.4081 1306.5,-355.4081 1306.5,-341.4081 1227.5,-341.4081"/>
<text text-anchor="start" x="1255.4131" y="-346.4081" font-family="Ubuntu" font-weight="bold" font-size="10.00" fill="#000000">Timestamp</text>
<text text-anchor="start" x="1233.2192" y="-331.4081" font-family="Ubuntu" font-size="10.00" fill="#000000">1</text>
<text text-anchor="start" x="1242.377" y="-331.4081" font-family="Ubuntu" font-size="10.00" fill="#000000">seconds</text>
<polygon fill="#a6cee3" stroke="transparent" points="1281.5,-327.4081 1281.5,-341.4081 1306.5,-341.4081 1306.5,-327.4081 1281.5,-327.4081"/>
<text text-anchor="start" x="1283.1577" y="-332.4081" font-family="Ubuntu" font-style="italic" font-size="10.00" fill="#000000">int64</text>
<text text-anchor="start" x="1233.2192" y="-317.4081" font-family="Ubuntu" font-size="10.00" fill="#000000">2</text>
<text text-anchor="start" x="1242.5" y="-317.4081" font-family="Ubuntu" font-size="10.00" fill="#000000">nanos</text>
<polygon fill="#a6cee3" stroke="transparent" points="1281.5,-313.4081 1281.5,-327.4081 1306.5,-327.4081 1306.5,-313.4081 1281.5,-313.4081"/>
<text text-anchor="start" x="1283.1577" y="-318.4081" font-family="Ubuntu" font-style="italic" font-size="10.00" fill="#000000">int32</text>
<polygon fill="none" stroke="#000000" points="1226,-312.4081 1226,-356.4081 1307,-356.4081 1307,-312.4081 1226,-312.4081"/>
</a>
</g>
</g>
<!-- Node_Ja_105&#45;&gt;Node_Ja_100 -->
<g id="edge2" class="edge">
<title>Node_Ja_105:e&#45;&gt;Node_Ja_100:header</title>
<g id="a_edge2"><a xlink:title="Ja_105 &#45;&#45;&gt; Ja_100">
<path fill="none" stroke="#000000" d="M525.5,-356.4081C561.2474,-356.4081 545.1937,-315.1476 570,-289.4081 618.6162,-238.9629 634.6673,-227.3617 698,-197.4081 797.8037,-150.2051 1105.6288,-57.2014 1190,-128.4081 1224.9393,-157.8957 1185.1811,-319.9833 1217.6105,-345.1295"/>
<polygon fill="#000000" stroke="#000000" points="1216.9066,-348.5834 1227.5,-348.4081 1219.1094,-341.939 1216.9066,-348.5834"/>
</a>
</g>
</g>
<!-- Node_Ja_105&#45;&gt;Node_Ja_100 -->
<g id="edge7" class="edge">
<title>Node_Ja_105:e&#45;&gt;Node_Ja_100:header</title>
<g id="a_edge7"><a xlink:title="Ja_105 &#45;&#45;&gt; Ja_100">
<path fill="none" stroke="#000000" d="M525.5,-342.4081C590.3664,-342.4081 531.1667,-255.366 570,-203.4081 611.1795,-148.3108 632.997,-138.904 698,-116.4081 904.7802,-44.8464 1024.1966,44.3797 1190,-98.4081 1229.7409,-132.6324 1178.9992,-320.8528 1217.7971,-345.6999"/>
<polygon fill="#000000" stroke="#000000" points="1216.9272,-349.0908 1227.5,-348.4081 1218.8091,-342.3485 1216.9272,-349.0908"/>
</a>
</g>
</g>
<!-- Node_Ja_105&#45;&gt;Node_Ja_100 -->
<g id="edge8" class="edge">
<title>Node_Ja_105:e&#45;&gt;Node_Ja_100:header</title>
<g id="a_edge8"><a xlink:title="Ja_105 &#45;&#45;&gt; Ja_100">
<path fill="none" stroke="#000000" d="M525.5,-328.4081C581.9659,-328.4081 527.987,-409.6814 570,-447.4081 702.0964,-566.0273 780.8514,-524.2344 957,-546.4081 1059.7447,-559.3416 1110.2526,-612.4695 1190,-546.4081 1256.1439,-491.6156 1147.5448,-359.8225 1217.5146,-349.1035"/>
<polygon fill="#000000" stroke="#000000" points="1217.7674,-352.5945 1227.5,-348.4081 1217.281,-345.6114 1217.7674,-352.5945"/>
</a>
</g>
</g>
<!-- Node_Ja_106 -->
<g id="node5" class="node">
<title>Node_Ja_106</title>
<g id="a_node5"><a xlink:title="Kind">
<polygon fill="#b2df8a" stroke="transparent" points="1047,-144.4081 1047,-188.4081 1100,-188.4081 1100,-144.4081 1047,-144.4081"/>
<polygon fill="#33a02c" stroke="transparent" points="1048.5,-173.4081 1048.5,-187.4081 1099.5,-187.4081 1099.5,-173.4081 1048.5,-173.4081"/>
<text text-anchor="start" x="1050.0962" y="-178.4081" font-family="Ubuntu" font-size="10.00" fill="#000000">enum </text>
<text text-anchor="start" x="1077.8892" y="-178.4081" font-family="Ubuntu" font-weight="bold" font-size="10.00" fill="#000000">Kind</text>
<polygon fill="#b2df8a" stroke="transparent" points="1048.5,-159.4081 1048.5,-173.4081 1088.5,-173.4081 1088.5,-159.4081 1048.5,-159.4081"/>
<text text-anchor="start" x="1050.5" y="-163.4081" font-family="Ubuntu" font-size="10.00" fill="#000000">QUOTE</text>
<polygon fill="#b2df8a" stroke="transparent" points="1088.5,-159.4081 1088.5,-173.4081 1099.5,-173.4081 1099.5,-159.4081 1088.5,-159.4081"/>
<text text-anchor="start" x="1090.5" y="-163.4081" font-family="Ubuntu" font-size="10.00" fill="#000000">0</text>
<polygon fill="#b2df8a" stroke="transparent" points="1048.5,-145.4081 1048.5,-159.4081 1088.5,-159.4081 1088.5,-145.4081 1048.5,-145.4081"/>
<text text-anchor="start" x="1050.5" y="-149.4081" font-family="Ubuntu" font-size="10.00" fill="#000000">IMAGE</text>
<polygon fill="#b2df8a" stroke="transparent" points="1088.5,-145.4081 1088.5,-159.4081 1099.5,-159.4081 1099.5,-145.4081 1088.5,-145.4081"/>
<text text-anchor="start" x="1090.5" y="-149.4081" font-family="Ubuntu" font-size="10.00" fill="#000000">1</text>
<polygon fill="none" stroke="#000000" points="1047,-144.4081 1047,-188.4081 1100,-188.4081 1100,-144.4081 1047,-144.4081"/>
</a>
</g>
</g>
<!-- Node_Ja_105&#45;&gt;Node_Ja_106 -->
<g id="edge14" class="edge">
<title>Node_Ja_105:e&#45;&gt;Node_Ja_106</title>
<g id="a_edge14"><a xlink:title="Ja_105 &#45;&#45;&gt; Ja_106">
<path fill="none" stroke="#008000" d="M525.5,-440.4081C565.0262,-440.4081 542.458,-391.7587 570,-363.4081 616.5824,-315.4579 637.2772,-312.3702 698,-284.4081 812.4742,-231.6939 956.8984,-193.6893 1028.7049,-176.5594"/>
<polygon fill="#008000" stroke="#008000" points="1029.8326,-179.8894 1038.7601,-174.1843 1028.2233,-173.0769 1029.8326,-179.8894"/>
</a>
</g>
</g>
<!-- Node_Ja_101 -->
<g id="node9" class="node">
<title>Node_Ja_101</title>
<g id="a_node9"><a xlink:title="magda.File">
<polygon fill="#fffaf0" stroke="transparent" points="973,-380.4081 973,-508.4081 1174,-508.4081 1174,-380.4081 973,-380.4081"/>
<polygon fill="#e31a1c" stroke="transparent" points="974.5,-493.4081 974.5,-507.4081 1173.5,-507.4081 1173.5,-493.4081 974.5,-493.4081"/>
<text text-anchor="start" x="1155.3867" y="-498.4081" font-family="Ubuntu" font-weight="bold" font-size="10.00" fill="#000000">File</text>
<text text-anchor="start" x="980.2192" y="-483.4081" font-family="Ubuntu" font-size="10.00" fill="#000000">1</text>
<text text-anchor="start" x="989.5" y="-483.4081" font-family="Ubuntu" font-size="10.00" fill="#000000">path</text>
<polygon fill="#a6cee3" stroke="transparent" points="1048.5,-479.4081 1048.5,-493.4081 1173.5,-493.4081 1173.5,-479.4081 1048.5,-479.4081"/>
<text text-anchor="start" x="1147.0469" y="-484.4081" font-family="Ubuntu" font-style="italic" font-size="10.00" fill="#000000">string</text>
<text text-anchor="start" x="980.2192" y="-469.4081" font-family="Ubuntu" font-size="10.00" fill="#000000">2</text>
<text text-anchor="start" x="989.5" y="-469.4081" font-family="Ubuntu" font-size="10.00" fill="#000000">source_url</text>
<polygon fill="#a6cee3" stroke="transparent" points="1048.5,-465.4081 1048.5,-479.4081 1173.5,-479.4081 1173.5,-465.4081 1048.5,-465.4081"/>
<text text-anchor="start" x="1147.0469" y="-470.4081" font-family="Ubuntu" font-style="italic" font-size="10.00" fill="#000000">string</text>
<text text-anchor="start" x="980.2192" y="-455.4081" font-family="Ubuntu" font-size="10.00" fill="#000000">3</text>
<text text-anchor="start" x="989.3672" y="-455.4081" font-family="Ubuntu" font-size="10.00" fill="#000000">content_type</text>
<polygon fill="#a6cee3" stroke="transparent" points="1048.5,-451.4081 1048.5,-465.4081 1173.5,-465.4081 1173.5,-451.4081 1048.5,-451.4081"/>
<text text-anchor="start" x="1147.0469" y="-456.4081" font-family="Ubuntu" font-style="italic" font-size="10.00" fill="#000000">string</text>
<text text-anchor="start" x="980.2192" y="-441.4081" font-family="Ubuntu" font-size="10.00" fill="#000000">4</text>
<text text-anchor="start" x="989.5" y="-441.4081" font-family="Ubuntu" font-size="10.00" fill="#000000">filename</text>
<polygon fill="#a6cee3" stroke="transparent" points="1048.5,-437.4081 1048.5,-451.4081 1173.5,-451.4081 1173.5,-437.4081 1048.5,-437.4081"/>
<text text-anchor="start" x="1147.0469" y="-442.4081" font-family="Ubuntu" font-style="italic" font-size="10.00" fill="#000000">string</text>
<text text-anchor="start" x="980.2192" y="-427.4081" font-family="Ubuntu" font-size="10.00" fill="#000000">5</text>
<text text-anchor="start" x="989.5" y="-427.4081" font-family="Ubuntu" font-size="10.00" fill="#000000">width</text>
<polygon fill="#a6cee3" stroke="transparent" points="1048.5,-423.4081 1048.5,-437.4081 1173.5,-437.4081 1173.5,-423.4081 1048.5,-423.4081"/>
<text text-anchor="start" x="1149.8154" y="-428.4081" font-family="Ubuntu" font-style="italic" font-size="10.00" fill="#000000">int64</text>
<text text-anchor="start" x="980.2192" y="-413.4081" font-family="Ubuntu" font-size="10.00" fill="#000000">6</text>
<text text-anchor="start" x="989.5" y="-413.4081" font-family="Ubuntu" font-size="10.00" fill="#000000">hieght</text>
<polygon fill="#a6cee3" stroke="transparent" points="1048.5,-409.4081 1048.5,-423.4081 1173.5,-423.4081 1173.5,-409.4081 1048.5,-409.4081"/>
<text text-anchor="start" x="1149.8154" y="-414.4081" font-family="Ubuntu" font-style="italic" font-size="10.00" fill="#000000">int64</text>
<text text-anchor="start" x="980.2192" y="-399.4081" font-family="Ubuntu" font-size="10.00" fill="#000000">7</text>
<text text-anchor="start" x="989.5" y="-399.4081" font-family="Ubuntu" font-size="10.00" fill="#000000">created_at</text>
<polygon fill="#fb9a99" stroke="transparent" points="1048.5,-395.4081 1048.5,-409.4081 1173.5,-409.4081 1173.5,-395.4081 1048.5,-395.4081"/>
<text text-anchor="start" x="1050.3164" y="-400.4081" font-family="Ubuntu" font-weight="bold" font-size="10.00" fill="#000000">google.protobuf.Timestamp</text>
<text text-anchor="start" x="980.2192" y="-385.4081" font-family="Ubuntu" font-size="10.00" fill="#000000">8</text>
<text text-anchor="start" x="989.5" y="-385.4081" font-family="Ubuntu" font-size="10.00" fill="#000000">updated_at</text>
<polygon fill="#fb9a99" stroke="transparent" points="1048.5,-381.4081 1048.5,-395.4081 1173.5,-395.4081 1173.5,-381.4081 1048.5,-381.4081"/>
<text text-anchor="start" x="1050.3164" y="-386.4081" font-family="Ubuntu" font-weight="bold" font-size="10.00" fill="#000000">google.protobuf.Timestamp</text>
<polygon fill="none" stroke="#000000" points="973,-380.4081 973,-508.4081 1174,-508.4081 1174,-380.4081 973,-380.4081"/>
</a>
</g>
</g>
<!-- Node_Ja_105&#45;&gt;Node_Ja_101 -->
<g id="edge15" class="edge">
<title>Node_Ja_105:e&#45;&gt;Node_Ja_101:header</title>
<g id="a_edge15"><a xlink:title="Ja_105 &#45;&#45;&gt; Ja_101">
<path fill="none" stroke="#000000" d="M525.5,-398.4081C562.3655,-398.4081 538.4132,-449.3993 570,-468.4081 721.5749,-559.6249 791.4773,-502.675 964.3165,-500.4729"/>
<polygon fill="#000000" stroke="#000000" points="964.5225,-503.9718 974.5,-500.4081 964.4779,-496.9719 964.5225,-503.9718"/>
</a>
</g>
</g>
<!-- Node_Ja_105&#45;&gt;Node_Ja_102 -->
<g id="edge5" class="edge">
<title>Node_Ja_105:e&#45;&gt;Node_Ja_102:header</title>
<g id="a_edge5"><a xlink:title="Ja_105 &#45;&#45;&gt; Ja_102">
<path fill="none" stroke="#000000" d="M525.5,-370.4081C565.0262,-370.4081 535.7651,-427.6523 570,-447.4081 611.5744,-471.3992 632.3175,-462.1428 678,-447.4081 693.5754,-442.3843 695.099,-428.2219 705.4677,-422.6757"/>
<polygon fill="#000000" stroke="#000000" points="706.5177,-426.0267 715.5,-420.4081 704.9744,-419.199 706.5177,-426.0267"/>
</a>
</g>
</g>
<!-- Node_Ja_103 -->
<g id="node4" class="node">
<title>Node_Ja_103</title>
<g id="a_node4"><a xlink:title="Kind">
<polygon fill="#b2df8a" stroke="transparent" points="1028.5,-214.4081 1028.5,-258.4081 1118.5,-258.4081 1118.5,-214.4081 1028.5,-214.4081"/>
<polygon fill="#33a02c" stroke="transparent" points="1029.5,-243.4081 1029.5,-257.4081 1117.5,-257.4081 1117.5,-243.4081 1029.5,-243.4081"/>
<text text-anchor="start" x="1067.6924" y="-248.4081" font-family="Ubuntu" font-size="10.00" fill="#000000">enum </text>
<text text-anchor="start" x="1095.4854" y="-248.4081" font-family="Ubuntu" font-weight="bold" font-size="10.00" fill="#000000">Kind</text>
<polygon fill="#b2df8a" stroke="transparent" points="1029.5,-229.4081 1029.5,-243.4081 1108.5,-243.4081 1108.5,-229.4081 1029.5,-229.4081"/>
<text text-anchor="start" x="1031.5" y="-233.4081" font-family="Ubuntu" font-size="10.00" fill="#000000">PERSON</text>
<polygon fill="#b2df8a" stroke="transparent" points="1108.5,-229.4081 1108.5,-243.4081 1117.5,-243.4081 1117.5,-229.4081 1108.5,-229.4081"/>
<text text-anchor="start" x="1110.2192" y="-233.4081" font-family="Ubuntu" font-size="10.00" fill="#000000">0</text>
<polygon fill="#b2df8a" stroke="transparent" points="1029.5,-215.4081 1029.5,-229.4081 1108.5,-229.4081 1108.5,-215.4081 1029.5,-215.4081"/>
<text text-anchor="start" x="1031.312" y="-219.4081" font-family="Ubuntu" font-size="10.00" fill="#000000">ORGANIZATION</text>
<polygon fill="#b2df8a" stroke="transparent" points="1108.5,-215.4081 1108.5,-229.4081 1117.5,-229.4081 1117.5,-215.4081 1108.5,-215.4081"/>
<text text-anchor="start" x="1110.2192" y="-219.4081" font-family="Ubuntu" font-size="10.00" fill="#000000">1</text>
<polygon fill="none" stroke="#000000" points="1028.5,-214.4081 1028.5,-258.4081 1118.5,-258.4081 1118.5,-214.4081 1028.5,-214.4081"/>
</a>
</g>
</g>
<!-- Node_Ja_110 -->
<g id="node6" class="node">
<title>Node_Ja_110</title>
<g id="a_node6"><a xlink:title="magda.EntryResponse">
<polygon fill="#fffaf0" stroke="transparent" points="181,-460.4081 181,-490.4081 255,-490.4081 255,-460.4081 181,-460.4081"/>
<polygon fill="#e31a1c" stroke="transparent" points="182,-475.4081 182,-489.4081 254,-489.4081 254,-475.4081 182,-475.4081"/>
<text text-anchor="start" x="183.8154" y="-480.4081" font-family="Ubuntu" font-weight="bold" font-size="10.00" fill="#000000">EntryResponse</text>
<text text-anchor="start" x="191.4385" y="-465.4081" font-family="Ubuntu" font-size="10.00" fill="#000000">1</text>
<text text-anchor="start" x="201" y="-465.4081" font-family="Ubuntu" font-size="10.00" fill="#000000">entry</text>
<polygon fill="#fb9a99" stroke="transparent" points="226,-461.4081 226,-475.4081 254,-475.4081 254,-461.4081 226,-461.4081"/>
<text text-anchor="start" x="228.6602" y="-466.4081" font-family="Ubuntu" font-weight="bold" font-size="10.00" fill="#000000">Entry</text>
<polygon fill="none" stroke="#000000" points="181,-460.4081 181,-490.4081 255,-490.4081 255,-460.4081 181,-460.4081"/>
</a>
</g>
</g>
<!-- Node_Ja_110&#45;&gt;Node_Ja_105 -->
<g id="edge10" class="edge">
<title>Node_Ja_110:e&#45;&gt;Node_Ja_105:header</title>
<g id="a_edge10"><a xlink:title="Ja_110 &#45;&#45;&gt; Ja_105">
<path fill="none" stroke="#000000" d="M254,-468.4081C274.4375,-468.4081 281.9419,-468.4081 298.3378,-468.4081"/>
<polygon fill="#000000" stroke="#000000" points="298.5,-471.9082 308.5,-468.4081 298.5,-464.9082 298.5,-471.9082"/>
</a>
</g>
</g>
<!-- Node_Ja_109 -->
<g id="node7" class="node">
<title>Node_Ja_109</title>
<g id="a_node7"><a xlink:title="magda.EntryRequest">
<polygon fill="#fffaf0" stroke="transparent" points="185,-516.4081 185,-546.4081 251,-546.4081 251,-516.4081 185,-516.4081"/>
<polygon fill="#e31a1c" stroke="transparent" points="186,-531.4081 186,-545.4081 250,-545.4081 250,-531.4081 186,-531.4081"/>
<text text-anchor="start" x="187.707" y="-536.4081" font-family="Ubuntu" font-weight="bold" font-size="10.00" fill="#000000">EntryRequest</text>
<text text-anchor="start" x="200.4385" y="-521.4081" font-family="Ubuntu" font-size="10.00" fill="#000000">1</text>
<text text-anchor="start" x="210" y="-521.4081" font-family="Ubuntu" font-size="10.00" fill="#000000">id</text>
<polygon fill="#a6cee3" stroke="transparent" points="220,-517.4081 220,-531.4081 250,-531.4081 250,-517.4081 220,-517.4081"/>
<text text-anchor="start" x="223.5469" y="-522.4081" font-family="Ubuntu" font-style="italic" font-size="10.00" fill="#000000">string</text>
<polygon fill="none" stroke="#000000" points="185,-516.4081 185,-546.4081 251,-546.4081 251,-516.4081 185,-516.4081"/>
</a>
</g>
</g>
<!-- Node_Ja_107 -->
<g id="node8" class="node">
<title>Node_Ja_107</title>
<g id="a_node8"><a xlink:title="MagdaService">
<polygon fill="#ffd700" stroke="transparent" points="8,-495.4081 8,-539.4081 129,-539.4081 129,-495.4081 8,-495.4081"/>
<polygon fill="#ff7f50" stroke="transparent" points="9.5,-524.4081 9.5,-538.4081 128.5,-538.4081 128.5,-524.4081 9.5,-524.4081"/>
<text text-anchor="start" x="62.5791" y="-529.4081" font-family="Ubuntu" font-weight="bold" font-size="10.00" fill="#000000">MagdaService</text>
<text text-anchor="start" x="11.271" y="-515.4081" font-family="Ubuntu" font-weight="bold" font-size="10.00" fill="#000000">GetEntry</text>
<text text-anchor="start" x="65.9141" y="-514.4081" font-family="Ubuntu" font-size="10.00" fill="#000000">EntryRequest</text>
<polygon fill="#ff7f50" stroke="transparent" points="52.5,-496.4081 52.5,-510.4081 56.5,-510.4081 56.5,-496.4081 52.5,-496.4081"/>
<polygon fill="#ff7f50" stroke="transparent" points="56.5,-496.4081 56.5,-510.4081 128.5,-510.4081 128.5,-496.4081 56.5,-496.4081"/>
<text text-anchor="start" x="58.3154" y="-500.4081" font-family="Ubuntu" font-size="10.00" fill="#000000">EntryResponse</text>
<polygon fill="none" stroke="#000000" points="8,-495.4081 8,-539.4081 129,-539.4081 129,-495.4081 8,-495.4081"/>
</a>
</g>
</g>
<!-- Node_Ja_107&#45;&gt;Node_Ja_110 -->
<g id="edge6" class="edge">
<title>Node_Ja_107:e&#45;&gt;Node_Ja_110:header</title>
<g id="a_edge6"><a xlink:title="Ja_107 &#45;&#45;&gt; Ja_110">
<path fill="none" stroke="#000000" d="M128.5,-503.4081C150.2523,-503.4081 155.2303,-488.1797 172.0027,-483.6588"/>
<polygon fill="#000000" stroke="#000000" points="172.5119,-487.1225 182,-482.4081 171.6428,-480.1766 172.5119,-487.1225"/>
</a>
</g>
</g>
<!-- Node_Ja_107&#45;&gt;Node_Ja_109 -->
<g id="edge9" class="edge">
<title>Node_Ja_107:e&#45;&gt;Node_Ja_109:header</title>
<g id="a_edge9"><a xlink:title="Ja_107 &#45;&#45;&gt; Ja_109">
<path fill="none" stroke="#000000" d="M128.5,-517.4081C151.8806,-517.4081 157.4483,-532.9171 175.819,-537.279"/>
<polygon fill="#000000" stroke="#000000" points="175.6751,-540.7844 186,-538.4081 176.4467,-533.8271 175.6751,-540.7844"/>
</a>
</g>
</g>
<!-- Node_Ja_101&#45;&gt;Node_Ja_100 -->
<g id="edge11" class="edge">
<title>Node_Ja_101:e&#45;&gt;Node_Ja_100:header</title>
<g id="a_edge11"><a xlink:title="Ja_101 &#45;&#45;&gt; Ja_100">
<path fill="none" stroke="#000000" d="M1173.5,-388.4081C1199.5171,-388.4081 1198.5196,-358.0559 1217.572,-350.2307"/>
<polygon fill="#000000" stroke="#000000" points="1218.2964,-353.6563 1227.5,-348.4081 1217.0324,-346.7714 1218.2964,-353.6563"/>
</a>
</g>
</g>
<!-- Node_Ja_101&#45;&gt;Node_Ja_100 -->
<g id="edge16" class="edge">
<title>Node_Ja_101:e&#45;&gt;Node_Ja_100:header</title>
<g id="a_edge16"><a xlink:title="Ja_101 &#45;&#45;&gt; Ja_100">
<path fill="none" stroke="#000000" d="M1173.5,-402.4081C1203.5962,-402.4081 1196.0904,-359.9495 1217.6674,-350.33"/>
<polygon fill="#000000" stroke="#000000" points="1218.3572,-353.7614 1227.5,-348.4081 1217.0143,-346.8914 1218.3572,-353.7614"/>
</a>
</g>
</g>
<!-- Node_Ja_102&#45;&gt;Node_Ja_100 -->
<g id="edge12" class="edge">
<title>Node_Ja_102:e&#45;&gt;Node_Ja_100:header</title>
<g id="a_edge12"><a xlink:title="Ja_102 &#45;&#45;&gt; Ja_100">
<path fill="none" stroke="#000000" d="M920.5,-336.4081C1053.5816,-336.4081 1089.1636,-347.8064 1217.294,-348.3852"/>
<polygon fill="#000000" stroke="#000000" points="1217.4922,-351.8856 1227.5,-348.4081 1217.5079,-344.8856 1217.4922,-351.8856"/>
</a>
</g>
</g>
<!-- Node_Ja_102&#45;&gt;Node_Ja_100 -->
<g id="edge17" class="edge">
<title>Node_Ja_102:e&#45;&gt;Node_Ja_100:header</title>
<g id="a_edge17"><a xlink:title="Ja_102 &#45;&#45;&gt; Ja_100">
<path fill="none" stroke="#000000" d="M920.5,-322.4081C1040.3602,-322.4081 1073.0336,-306.2294 1190,-332.4081 1203.6766,-335.4691 1207.7902,-343.3664 1217.336,-346.7877"/>
<polygon fill="#000000" stroke="#000000" points="1217.0737,-350.29 1227.5,-348.4081 1218.1757,-343.3773 1217.0737,-350.29"/>
</a>
</g>
</g>
<!-- Node_Ja_102&#45;&gt;Node_Ja_103 -->
<g id="edge3" class="edge">
<title>Node_Ja_102:e&#45;&gt;Node_Ja_103</title>
<g id="a_edge3"><a xlink:title="Ja_102 &#45;&#45;&gt; Ja_103">
<path fill="none" stroke="#008000" d="M920.5,-392.4081C966.1465,-392.4081 926.5847,-330.445 957,-296.4081 971.5916,-280.079 991.6806,-267.5468 1011.07,-258.2649"/>
<polygon fill="#008000" stroke="#008000" points="1012.5598,-261.4323 1020.205,-254.0972 1009.6543,-255.0637 1012.5598,-261.4323"/>
</a>
</g>
</g>
<!-- Node_Ja_102&#45;&gt;Node_Ja_101 -->
<g id="edge4" class="edge">
<title>Node_Ja_102:e&#45;&gt;Node_Ja_101:header</title>
<g id="a_edge4"><a xlink:title="Ja_102 &#45;&#45;&gt; Ja_101">
<path fill="none" stroke="#000000" d="M920.5,-308.4081C1005.3352,-308.4081 896.0597,-484.2626 964.2135,-499.3751"/>
<polygon fill="#000000" stroke="#000000" points="964.2003,-502.8912 974.5,-500.4081 964.8998,-495.9263 964.2003,-502.8912"/>
</a>
</g>
</g>
</g>
</svg>
