<?xml version="1.0" encoding="UTF-8" standalone="no"?>
<!DOCTYPE svg PUBLIC "-//W3C//DTD SVG 1.1//EN"
 "http://www.w3.org/Graphics/SVG/1.1/DTD/svg11.dtd">
<!-- Generated by graphviz version 2.40.1 (20161225.0304)
 -->
<!-- Title: protodot Pages: 1 -->
<svg width="565pt" height="308pt"
 viewBox="0.00 0.00 565.00 308.00" xmlns="http://www.w3.org/2000/svg" xmlns:xlink="http://www.w3.org/1999/xlink">
<g id="graph0" class="graph" transform="scale(1 1) rotate(0) translate(4 304)">
<title>protodot</title>
<g id="a_graph0"><a xlink:title="magda">
<text text-anchor="middle" x="278.5" y="-6.8" font-family="Times,serif" font-size="14.00" fill="#000000">magda</text>
</a>
</g>
<g id="clust1" class="cluster">
<title>cluster_b48571783cae</title>
<g id="a_clust1"><a xlink:title="data_image.proto">
<polygon fill="#caff70" stroke="#000000" points="444,-212 444,-288 557,-288 557,-212 444,-212"/>
<text text-anchor="middle" x="500.5" y="-272.8" font-family="Times,serif" font-size="14.00" fill="#000000">data_image.proto</text>
</a>
</g>
</g>
<g id="clust2" class="cluster">
<title>cluster_cae0c0fbf520</title>
<g id="a_clust2"><a xlink:title="data_quote.proto">
<polygon fill="#caff70" stroke="#000000" points="445.5,-128 445.5,-204 555.5,-204 555.5,-128 445.5,-128"/>
<text text-anchor="middle" x="500.5" y="-188.8" font-family="Times,serif" font-size="14.00" fill="#000000">data_quote.proto</text>
</a>
</g>
</g>
<g id="clust3" class="cluster">
<title>cluster_b5eb5ae3708a</title>
<g id="a_clust3"><a xlink:title="entry.proto">
<polygon fill="#caff70" stroke="#000000" points="294,-138 294,-260 424,-260 424,-138 294,-138"/>
<text text-anchor="middle" x="359" y="-244.8" font-family="Times,serif" font-size="14.00" fill="#000000">entry.proto</text>
</a>
</g>
</g>
<g id="clust4" class="cluster">
<title>cluster_9d1e3c2635ff</title>
<g id="a_clust4"><a xlink:title="magda">
<polygon fill="#caff70" stroke="#000000" points="457.5,-30 457.5,-120 542.5,-120 542.5,-30 457.5,-30"/>
<text text-anchor="middle" x="500" y="-104.8" font-family="Times,serif" font-size="14.00" fill="#000000">magda</text>
</a>
</g>
</g>
<!-- Node_Ja_104 -->
<g id="node1" class="node">
<title>Node_Ja_104</title>
<g id="a_node1"><a xlink:title="MagdaService">
<polygon fill="#ffd700" stroke="transparent" points="8,-245 8,-289 129,-289 129,-245 8,-245"/>
<polygon fill="#ff7f50" stroke="transparent" points="9.5,-274 9.5,-288 128.5,-288 128.5,-274 9.5,-274"/>
<text text-anchor="start" x="62.5791" y="-279" font-family="Ubuntu" font-weight="bold" font-size="10.00" fill="#000000">MagdaService</text>
<text text-anchor="start" x="11.271" y="-265" font-family="Ubuntu" font-weight="bold" font-size="10.00" fill="#000000">GetEntry</text>
<text text-anchor="start" x="65.9141" y="-264" font-family="Ubuntu" font-size="10.00" fill="#000000">EntryRequest</text>
<polygon fill="#ff7f50" stroke="transparent" points="52.5,-246 52.5,-260 56.5,-260 56.5,-246 52.5,-246"/>
<polygon fill="#ff7f50" stroke="transparent" points="56.5,-246 56.5,-260 128.5,-260 128.5,-246 56.5,-246"/>
<text text-anchor="start" x="58.3154" y="-250" font-family="Ubuntu" font-size="10.00" fill="#000000">EntryResponse</text>
<polygon fill="none" stroke="#000000" points="8,-245 8,-289 129,-289 129,-245 8,-245"/>
</a>
</g>
</g>
<!-- Node_Ja_106 -->
<g id="node2" class="node">
<title>Node_Ja_106</title>
<g id="a_node2"><a xlink:title="magda.EntryRequest">
<polygon fill="#fffaf0" stroke="transparent" points="181,-266 181,-296 258,-296 258,-266 181,-266"/>
<polygon fill="#e31a1c" stroke="transparent" points="182.5,-281 182.5,-295 257.5,-295 257.5,-281 182.5,-281"/>
<text text-anchor="start" x="194.9141" y="-286" font-family="Ubuntu" font-weight="bold" font-size="10.00" fill="#000000">EntryRequest</text>
<text text-anchor="start" x="188.2192" y="-271" font-family="Ubuntu" font-size="10.00" fill="#000000">1</text>
<text text-anchor="start" x="197.2144" y="-271" font-family="Ubuntu" font-size="10.00" fill="#000000">entryId</text>
<polygon fill="#a6cee3" stroke="transparent" points="229.5,-267 229.5,-281 257.5,-281 257.5,-267 229.5,-267"/>
<text text-anchor="start" x="231.2734" y="-272" font-family="Ubuntu" font-style="italic" font-size="10.00" fill="#000000">string</text>
<polygon fill="none" stroke="#000000" points="181,-266 181,-296 258,-296 258,-266 181,-266"/>
</a>
</g>
</g>
<!-- Node_Ja_104&#45;&gt;Node_Ja_106 -->
<g id="edge2" class="edge">
<title>Node_Ja_104:e&#45;&gt;Node_Ja_106:header</title>
<g id="a_edge2"><a xlink:title="Ja_104 &#45;&#45;&gt; Ja_106">
<path fill="none" stroke="#000000" d="M128.5,-267C150.4285,-267 155.4951,-282.2283 172.4177,-286.7492"/>
<polygon fill="#000000" stroke="#000000" points="172.1452,-290.2422 182.5,-288 173.007,-283.2954 172.1452,-290.2422"/>
</a>
</g>
</g>
<!-- Node_Ja_107 -->
<g id="node3" class="node">
<title>Node_Ja_107</title>
<g id="a_node3"><a xlink:title="magda.EntryResponse">
<polygon fill="#fffaf0" stroke="transparent" points="182.5,-210 182.5,-240 256.5,-240 256.5,-210 182.5,-210"/>
<polygon fill="#e31a1c" stroke="transparent" points="183.5,-225 183.5,-239 255.5,-239 255.5,-225 183.5,-225"/>
<text text-anchor="start" x="185.3154" y="-230" font-family="Ubuntu" font-weight="bold" font-size="10.00" fill="#000000">EntryResponse</text>
<text text-anchor="start" x="192.9385" y="-215" font-family="Ubuntu" font-size="10.00" fill="#000000">1</text>
<text text-anchor="start" x="202.5" y="-215" font-family="Ubuntu" font-size="10.00" fill="#000000">entry</text>
<polygon fill="#fb9a99" stroke="transparent" points="227.5,-211 227.5,-225 255.5,-225 255.5,-211 227.5,-211"/>
<text text-anchor="start" x="230.1602" y="-216" font-family="Ubuntu" font-weight="bold" font-size="10.00" fill="#000000">Entry</text>
<polygon fill="none" stroke="#000000" points="182.5,-210 182.5,-240 256.5,-240 256.5,-210 182.5,-210"/>
</a>
</g>
</g>
<!-- Node_Ja_104&#45;&gt;Node_Ja_107 -->
<g id="edge3" class="edge">
<title>Node_Ja_104:e&#45;&gt;Node_Ja_107:header</title>
<g id="a_edge3"><a xlink:title="Ja_104 &#45;&#45;&gt; Ja_107">
<path fill="none" stroke="#000000" d="M128.5,-253C150.7817,-253 156.0243,-237.7717 173.2476,-233.2508"/>
<polygon fill="#000000" stroke="#000000" points="173.9975,-236.6853 183.5,-232 173.1497,-229.7368 173.9975,-236.6853"/>
</a>
</g>
</g>
<!-- Node_Ja_102 -->
<g id="node6" class="node">
<title>Node_Ja_102</title>
<g id="a_node6"><a xlink:title="magda.Entry">
<polygon fill="#fffaf0" stroke="transparent" points="310,-150 310,-226 408,-226 408,-150 310,-150"/>
<polygon fill="#e31a1c" stroke="transparent" points="311,-211 311,-225 407,-225 407,-211 311,-211"/>
<text text-anchor="start" x="381.6602" y="-216" font-family="Ubuntu" font-weight="bold" font-size="10.00" fill="#000000">Entry</text>
<text text-anchor="start" x="316.7192" y="-201" font-family="Ubuntu" font-size="10.00" fill="#000000">1</text>
<text text-anchor="start" x="326" y="-201" font-family="Ubuntu" font-size="10.00" fill="#000000">kind</text>
<polygon fill="#b2df8a" stroke="transparent" points="355,-197 355,-211 407,-211 407,-197 355,-197"/>
<text text-anchor="start" x="384.9854" y="-202" font-family="Ubuntu" text-decoration="underline" font-size="10.00" fill="#000000">Kind</text>
<polygon fill="#fdbf6f" stroke="transparent" points="311,-183 311,-197 407,-197 407,-183 311,-183"/>
<text text-anchor="start" x="313" y="-187" font-family="Ubuntu" font-size="10.00" fill="#000000">data</text>
<polygon fill="#fdbf6f" stroke="transparent" points="311,-169 311,-183 315,-183 315,-169 311,-169"/>
<text text-anchor="start" x="316.7192" y="-173" font-family="Ubuntu" font-size="10.00" fill="#000000">2</text>
<text text-anchor="start" x="325.8818" y="-173" font-family="Ubuntu" font-size="10.00" fill="#000000">image</text>
<polygon fill="#fb9a99" stroke="transparent" points="355,-169 355,-183 407,-183 407,-169 355,-169"/>
<text text-anchor="start" x="356.542" y="-174" font-family="Ubuntu" font-weight="bold" font-size="10.00" fill="#000000">DataImage</text>
<polygon fill="#fdbf6f" stroke="transparent" points="311,-155 311,-169 315,-169 315,-155 311,-155"/>
<text text-anchor="start" x="316.7192" y="-159" font-family="Ubuntu" font-size="10.00" fill="#000000">3</text>
<text text-anchor="start" x="326" y="-159" font-family="Ubuntu" font-size="10.00" fill="#000000">quote</text>
<polygon fill="#fb9a99" stroke="transparent" points="355,-155 355,-169 407,-169 407,-155 355,-155"/>
<text text-anchor="start" x="356.8179" y="-160" font-family="Ubuntu" font-weight="bold" font-size="10.00" fill="#000000">DataQuote</text>
<polygon fill="#fdbf6f" stroke="transparent" points="311,-151 311,-155 407,-155 407,-151 311,-151"/>
<polygon fill="none" stroke="#000000" points="310,-150 310,-226 408,-226 408,-150 310,-150"/>
</a>
</g>
</g>
<!-- Node_Ja_107&#45;&gt;Node_Ja_102 -->
<g id="edge4" class="edge">
<title>Node_Ja_107:e&#45;&gt;Node_Ja_102:header</title>
<g id="a_edge4"><a xlink:title="Ja_107 &#45;&#45;&gt; Ja_102">
<path fill="none" stroke="#000000" d="M255.5,-218C276.3125,-218 283.9546,-218 300.6513,-218"/>
<polygon fill="#000000" stroke="#000000" points="301,-221.5001 311,-218 301,-214.5001 301,-221.5001"/>
</a>
</g>
</g>
<!-- Node_Ja_100 -->
<g id="node4" class="node">
<title>Node_Ja_100</title>
<g id="a_node4"><a xlink:title="magda.DataImage">
<polygon fill="#fffaf0" stroke="transparent" points="467,-224 467,-254 533,-254 533,-224 467,-224"/>
<polygon fill="#e31a1c" stroke="transparent" points="468,-239 468,-253 532,-253 532,-239 468,-239"/>
<text text-anchor="start" x="481.084" y="-244" font-family="Ubuntu" font-weight="bold" font-size="10.00" fill="#000000">DataImage</text>
<text text-anchor="start" x="473.7192" y="-229" font-family="Ubuntu" font-size="10.00" fill="#000000">1</text>
<text text-anchor="start" x="482.7686" y="-229" font-family="Ubuntu" font-size="10.00" fill="#000000">path</text>
<polygon fill="#a6cee3" stroke="transparent" points="504,-225 504,-239 532,-239 532,-225 504,-225"/>
<text text-anchor="start" x="505.7734" y="-230" font-family="Ubuntu" font-style="italic" font-size="10.00" fill="#000000">string</text>
<polygon fill="none" stroke="#000000" points="467,-224 467,-254 533,-254 533,-224 467,-224"/>
</a>
</g>
</g>
<!-- Node_Ja_101 -->
<g id="node5" class="node">
<title>Node_Ja_101</title>
<g id="a_node5"><a xlink:title="magda.DataQuote">
<polygon fill="#fffaf0" stroke="transparent" points="468.5,-140 468.5,-170 531.5,-170 531.5,-140 468.5,-140"/>
<polygon fill="#e31a1c" stroke="transparent" points="470,-155 470,-169 531,-169 531,-155 470,-155"/>
<text text-anchor="start" x="480.6357" y="-160" font-family="Ubuntu" font-weight="bold" font-size="10.00" fill="#000000">DataQuote</text>
<text text-anchor="start" x="475.7192" y="-145" font-family="Ubuntu" font-size="10.00" fill="#000000">1</text>
<text text-anchor="start" x="484.9409" y="-145" font-family="Ubuntu" font-size="10.00" fill="#000000">text</text>
<polygon fill="#a6cee3" stroke="transparent" points="503,-141 503,-155 531,-155 531,-141 503,-141"/>
<text text-anchor="start" x="504.7734" y="-146" font-family="Ubuntu" font-style="italic" font-size="10.00" fill="#000000">string</text>
<polygon fill="none" stroke="#000000" points="468.5,-140 468.5,-170 531.5,-170 531.5,-140 468.5,-140"/>
</a>
</g>
</g>
<!-- Node_Ja_102&#45;&gt;Node_Ja_100 -->
<g id="edge6" class="edge">
<title>Node_Ja_102:e&#45;&gt;Node_Ja_100:header</title>
<g id="a_edge6"><a xlink:title="Ja_102 &#45;&#45;&gt; Ja_100">
<path fill="none" stroke="#000000" d="M407,-176C444.3977,-176 430.2191,-233.4902 457.9462,-244.2697"/>
<polygon fill="#000000" stroke="#000000" points="457.5512,-247.7531 468,-246 458.7386,-240.8545 457.5512,-247.7531"/>
</a>
</g>
</g>
<!-- Node_Ja_102&#45;&gt;Node_Ja_101 -->
<g id="edge1" class="edge">
<title>Node_Ja_102:e&#45;&gt;Node_Ja_101:header</title>
<g id="a_edge1"><a xlink:title="Ja_102 &#45;&#45;&gt; Ja_101">
<path fill="none" stroke="#000000" d="M407,-162C431.2813,-162 439.7702,-162 459.8566,-162"/>
<polygon fill="#000000" stroke="#000000" points="460,-165.5001 470,-162 460,-158.5001 460,-165.5001"/>
</a>
</g>
</g>
<!-- Node_Ja_103 -->
<g id="node7" class="node">
<title>Node_Ja_103</title>
<g id="a_node7"><a xlink:title="Kind">
<polygon fill="#b2df8a" stroke="transparent" points="473.5,-42 473.5,-86 526.5,-86 526.5,-42 473.5,-42"/>
<polygon fill="#33a02c" stroke="transparent" points="475,-71 475,-85 526,-85 526,-71 475,-71"/>
<text text-anchor="start" x="476.5962" y="-76" font-family="Ubuntu" font-size="10.00" fill="#000000">enum </text>
<text text-anchor="start" x="504.3892" y="-76" font-family="Ubuntu" font-weight="bold" font-size="10.00" fill="#000000">Kind</text>
<polygon fill="#b2df8a" stroke="transparent" points="475,-57 475,-71 515,-71 515,-57 475,-57"/>
<text text-anchor="start" x="477" y="-61" font-family="Ubuntu" font-size="10.00" fill="#000000">QUOTE</text>
<polygon fill="#b2df8a" stroke="transparent" points="515,-57 515,-71 526,-71 526,-57 515,-57"/>
<text text-anchor="start" x="517" y="-61" font-family="Ubuntu" font-size="10.00" fill="#000000">0</text>
<polygon fill="#b2df8a" stroke="transparent" points="475,-43 475,-57 515,-57 515,-43 475,-43"/>
<text text-anchor="start" x="477" y="-47" font-family="Ubuntu" font-size="10.00" fill="#000000">IMAGE</text>
<polygon fill="#b2df8a" stroke="transparent" points="515,-43 515,-57 526,-57 526,-43 515,-43"/>
<text text-anchor="start" x="517" y="-47" font-family="Ubuntu" font-size="10.00" fill="#000000">1</text>
<polygon fill="none" stroke="#000000" points="473.5,-42 473.5,-86 526.5,-86 526.5,-42 473.5,-42"/>
</a>
</g>
</g>
<!-- Node_Ja_102&#45;&gt;Node_Ja_103 -->
<g id="edge5" class="edge">
<title>Node_Ja_102:e&#45;&gt;Node_Ja_103</title>
<g id="a_edge5"><a xlink:title="Ja_102 &#45;&#45;&gt; Ja_103">
<path fill="none" stroke="#008000" d="M407,-204C446.1742,-204 422.1378,-156.5064 444,-124 450.1491,-114.8571 457.6929,-105.7631 465.2278,-97.5228"/>
<polygon fill="#008000" stroke="#008000" points="467.7984,-99.8983 472.1048,-90.2181 462.7017,-95.0999 467.7984,-99.8983"/>
</a>
</g>
</g>
</g>
</svg>
