<?xml version="1.0" encoding="UTF-8" standalone="no"?>
<!DOCTYPE svg PUBLIC "-//W3C//DTD SVG 1.1//EN"
 "http://www.w3.org/Graphics/SVG/1.1/DTD/svg11.dtd">
<!-- Generated by graphviz version 2.40.1 (20161225.0304)
 -->
<!-- Title: protodot Pages: 1 -->
<svg width="976pt" height="348pt"
 viewBox="0.00 0.00 976.00 348.00" xmlns="http://www.w3.org/2000/svg" xmlns:xlink="http://www.w3.org/1999/xlink">
<g id="graph0" class="graph" transform="scale(1 1) rotate(0) translate(4 344)">
<title>protodot</title>
<g id="a_graph0"><a xlink:title="magda">
<text text-anchor="middle" x="484" y="-6.8" font-family="Times,serif" font-size="14.00" fill="#000000">magda</text>
</a>
</g>
<g id="clust1" class="cluster">
<title>cluster_5627932c6abb</title>
<g id="a_clust1"><a xlink:title="timestamp.proto">
<polygon fill="#caff70" stroke="#000000" points="700.5,-212 700.5,-302 813.5,-302 813.5,-212 700.5,-212"/>
<text text-anchor="middle" x="757" y="-286.8" font-family="Times,serif" font-size="14.00" fill="#000000">timestamp.proto</text>
</a>
</g>
</g>
<g id="clust2" class="cluster">
<title>cluster_b5eb5ae3708a</title>
<g id="a_clust2"><a xlink:title="entry.proto">
<polygon fill="#caff70" stroke="#000000" points="291,-84 291,-314 676,-314 676,-84 291,-84"/>
<text text-anchor="middle" x="483.5" y="-298.8" font-family="Times,serif" font-size="14.00" fill="#000000">entry.proto</text>
</a>
</g>
</g>
<g id="clust3" class="cluster">
<title>cluster_f56b993e78fb</title>
<g id="a_clust3"><a xlink:title="entity.proto">
<polygon fill="#caff70" stroke="#000000" points="696,-86 696,-204 818,-204 818,-86 696,-86"/>
<text text-anchor="middle" x="757" y="-188.8" font-family="Times,serif" font-size="14.00" fill="#000000">entity.proto</text>
</a>
</g>
</g>
<g id="clust4" class="cluster">
<title>cluster_9d1e3c2635ff</title>
<g id="a_clust4"><a xlink:title="magda">
<polygon fill="#caff70" stroke="#000000" points="838,-30 838,-190 960,-190 960,-30 838,-30"/>
<text text-anchor="middle" x="899" y="-174.8" font-family="Times,serif" font-size="14.00" fill="#000000">magda</text>
</a>
</g>
</g>
<!-- Node_Ja_109 -->
<g id="node1" class="node">
<title>Node_Ja_109</title>
<g id="a_node1"><a xlink:title="magda.EntryRequest">
<polygon fill="#fffaf0" stroke="transparent" points="185,-306 185,-336 251,-336 251,-306 185,-306"/>
<polygon fill="#e31a1c" stroke="transparent" points="186,-321 186,-335 250,-335 250,-321 186,-321"/>
<text text-anchor="start" x="187.707" y="-326" font-family="Ubuntu" font-weight="bold" font-size="10.00" fill="#000000">EntryRequest</text>
<text text-anchor="start" x="200.4385" y="-311" font-family="Ubuntu" font-size="10.00" fill="#000000">1</text>
<text text-anchor="start" x="210" y="-311" font-family="Ubuntu" font-size="10.00" fill="#000000">id</text>
<polygon fill="#a6cee3" stroke="transparent" points="220,-307 220,-321 250,-321 250,-307 220,-307"/>
<text text-anchor="start" x="223.5469" y="-312" font-family="Ubuntu" font-style="italic" font-size="10.00" fill="#000000">string</text>
<polygon fill="none" stroke="#000000" points="185,-306 185,-336 251,-336 251,-306 185,-306"/>
</a>
</g>
</g>
<!-- Node_Ja_110 -->
<g id="node2" class="node">
<title>Node_Ja_110</title>
<g id="a_node2"><a xlink:title="magda.EntryResponse">
<polygon fill="#fffaf0" stroke="transparent" points="181,-250 181,-280 255,-280 255,-250 181,-250"/>
<polygon fill="#e31a1c" stroke="transparent" points="182,-265 182,-279 254,-279 254,-265 182,-265"/>
<text text-anchor="start" x="183.8154" y="-270" font-family="Ubuntu" font-weight="bold" font-size="10.00" fill="#000000">EntryResponse</text>
<text text-anchor="start" x="191.4385" y="-255" font-family="Ubuntu" font-size="10.00" fill="#000000">1</text>
<text text-anchor="start" x="201" y="-255" font-family="Ubuntu" font-size="10.00" fill="#000000">entry</text>
<polygon fill="#fb9a99" stroke="transparent" points="226,-251 226,-265 254,-265 254,-251 226,-251"/>
<text text-anchor="start" x="228.6602" y="-256" font-family="Ubuntu" font-weight="bold" font-size="10.00" fill="#000000">Entry</text>
<polygon fill="none" stroke="#000000" points="181,-250 181,-280 255,-280 255,-250 181,-250"/>
</a>
</g>
</g>
<!-- Node_Ja_105 -->
<g id="node7" class="node">
<title>Node_Ja_105</title>
<g id="a_node7"><a xlink:title="magda.Entry">
<polygon fill="#fffaf0" stroke="transparent" points="307,-180 307,-266 404,-266 404,-180 307,-180"/>
<polygon fill="#e31a1c" stroke="transparent" points="308.5,-251 308.5,-265 403.5,-265 403.5,-251 308.5,-251"/>
<text text-anchor="start" x="378.1602" y="-256" font-family="Ubuntu" font-weight="bold" font-size="10.00" fill="#000000">Entry</text>
<text text-anchor="start" x="327.2192" y="-241" font-family="Ubuntu" font-size="10.00" fill="#000000">1</text>
<text text-anchor="start" x="336.5" y="-241" font-family="Ubuntu" font-size="10.00" fill="#000000">id</text>
<polygon fill="#a6cee3" stroke="transparent" points="368.5,-237 368.5,-251 403.5,-251 403.5,-237 368.5,-237"/>
<text text-anchor="start" x="377.0469" y="-242" font-family="Ubuntu" font-style="italic" font-size="10.00" fill="#000000">string</text>
<text text-anchor="start" x="327.2192" y="-227" font-family="Ubuntu" font-size="10.00" fill="#000000">2</text>
<text text-anchor="start" x="336.5" y="-227" font-family="Ubuntu" font-size="10.00" fill="#000000">kind</text>
<polygon fill="#b2df8a" stroke="transparent" points="368.5,-223 368.5,-237 403.5,-237 403.5,-223 368.5,-223"/>
<text text-anchor="start" x="381.4854" y="-228" font-family="Ubuntu" text-decoration="underline" font-size="10.00" fill="#000000">Kind</text>
<text text-anchor="start" x="327.2192" y="-213" font-family="Ubuntu" font-size="10.00" fill="#000000">3</text>
<text text-anchor="start" x="336.4927" y="-213" font-family="Ubuntu" font-size="10.00" fill="#000000">source</text>
<polygon fill="#fb9a99" stroke="transparent" points="368.5,-209 368.5,-223 403.5,-223 403.5,-209 368.5,-209"/>
<text text-anchor="start" x="370.1577" y="-214" font-family="Ubuntu" font-weight="bold" font-size="10.00" fill="#000000">Source</text>
<text text-anchor="start" x="310.0542" y="-199" font-family="Ubuntu" font-size="10.00" fill="#000000">[...]</text>
<text text-anchor="start" x="327.2192" y="-199" font-family="Ubuntu" font-size="10.00" fill="#000000">4</text>
<text text-anchor="start" x="336.5" y="-199" font-family="Ubuntu" font-size="10.00" fill="#000000">titles</text>
<polygon fill="#a6cee3" stroke="transparent" points="368.5,-195 368.5,-209 403.5,-209 403.5,-195 368.5,-195"/>
<text text-anchor="start" x="377.0469" y="-200" font-family="Ubuntu" font-style="italic" font-size="10.00" fill="#000000">string</text>
<text text-anchor="start" x="310.0542" y="-185" font-family="Ubuntu" font-size="10.00" fill="#000000">[...]</text>
<text text-anchor="start" x="327.2192" y="-185" font-family="Ubuntu" font-size="10.00" fill="#000000">5</text>
<text text-anchor="start" x="336.5" y="-185" font-family="Ubuntu" font-size="10.00" fill="#000000">files</text>
<polygon fill="#fb9a99" stroke="transparent" points="368.5,-181 368.5,-195 403.5,-195 403.5,-181 368.5,-181"/>
<text text-anchor="start" x="385.3867" y="-186" font-family="Ubuntu" font-weight="bold" font-size="10.00" fill="#000000">File</text>
<polygon fill="none" stroke="#000000" points="307,-180 307,-266 404,-266 404,-180 307,-180"/>
</a>
</g>
</g>
<!-- Node_Ja_110&#45;&gt;Node_Ja_105 -->
<g id="edge9" class="edge">
<title>Node_Ja_110:e&#45;&gt;Node_Ja_105:header</title>
<g id="a_edge9"><a xlink:title="Ja_110 &#45;&#45;&gt; Ja_105">
<path fill="none" stroke="#000000" d="M254,-258C274.4375,-258 281.9419,-258 298.3378,-258"/>
<polygon fill="#000000" stroke="#000000" points="298.5,-261.5001 308.5,-258 298.5,-254.5001 298.5,-261.5001"/>
</a>
</g>
</g>
<!-- Node_Ja_107 -->
<g id="node3" class="node">
<title>Node_Ja_107</title>
<g id="a_node3"><a xlink:title="MagdaService">
<polygon fill="#ffd700" stroke="transparent" points="8,-285 8,-329 129,-329 129,-285 8,-285"/>
<polygon fill="#ff7f50" stroke="transparent" points="9.5,-314 9.5,-328 128.5,-328 128.5,-314 9.5,-314"/>
<text text-anchor="start" x="62.5791" y="-319" font-family="Ubuntu" font-weight="bold" font-size="10.00" fill="#000000">MagdaService</text>
<text text-anchor="start" x="11.271" y="-305" font-family="Ubuntu" font-weight="bold" font-size="10.00" fill="#000000">GetEntry</text>
<text text-anchor="start" x="65.9141" y="-304" font-family="Ubuntu" font-size="10.00" fill="#000000">EntryRequest</text>
<polygon fill="#ff7f50" stroke="transparent" points="52.5,-286 52.5,-300 56.5,-300 56.5,-286 52.5,-286"/>
<polygon fill="#ff7f50" stroke="transparent" points="56.5,-286 56.5,-300 128.5,-300 128.5,-286 56.5,-286"/>
<text text-anchor="start" x="58.3154" y="-290" font-family="Ubuntu" font-size="10.00" fill="#000000">EntryResponse</text>
<polygon fill="none" stroke="#000000" points="8,-285 8,-329 129,-329 129,-285 8,-285"/>
</a>
</g>
</g>
<!-- Node_Ja_107&#45;&gt;Node_Ja_109 -->
<g id="edge8" class="edge">
<title>Node_Ja_107:e&#45;&gt;Node_Ja_109:header</title>
<g id="a_edge8"><a xlink:title="Ja_107 &#45;&#45;&gt; Ja_109">
<path fill="none" stroke="#000000" d="M128.5,-307C151.8806,-307 157.4483,-322.509 175.819,-326.8709"/>
<polygon fill="#000000" stroke="#000000" points="175.6751,-330.3764 186,-328 176.4467,-323.419 175.6751,-330.3764"/>
</a>
</g>
</g>
<!-- Node_Ja_107&#45;&gt;Node_Ja_110 -->
<g id="edge4" class="edge">
<title>Node_Ja_107:e&#45;&gt;Node_Ja_110:header</title>
<g id="a_edge4"><a xlink:title="Ja_107 &#45;&#45;&gt; Ja_110">
<path fill="none" stroke="#000000" d="M128.5,-293C150.2523,-293 155.2303,-277.7717 172.0027,-273.2508"/>
<polygon fill="#000000" stroke="#000000" points="172.5119,-276.7144 182,-272 171.6428,-269.7686 172.5119,-276.7144"/>
</a>
</g>
</g>
<!-- Node_Ja_102 -->
<g id="node4" class="node">
<title>Node_Ja_102</title>
<g id="a_node4"><a xlink:title="google.protobuf.Timestamp">
<polygon fill="#fffaf0" stroke="transparent" points="716.5,-224 716.5,-268 797.5,-268 797.5,-224 716.5,-224"/>
<polygon fill="#e31a1c" stroke="transparent" points="718,-253 718,-267 797,-267 797,-253 718,-253"/>
<text text-anchor="start" x="745.9131" y="-258" font-family="Ubuntu" font-weight="bold" font-size="10.00" fill="#000000">Timestamp</text>
<text text-anchor="start" x="723.7192" y="-243" font-family="Ubuntu" font-size="10.00" fill="#000000">1</text>
<text text-anchor="start" x="732.877" y="-243" font-family="Ubuntu" font-size="10.00" fill="#000000">seconds</text>
<polygon fill="#a6cee3" stroke="transparent" points="772,-239 772,-253 797,-253 797,-239 772,-239"/>
<text text-anchor="start" x="773.6577" y="-244" font-family="Ubuntu" font-style="italic" font-size="10.00" fill="#000000">int64</text>
<text text-anchor="start" x="723.7192" y="-229" font-family="Ubuntu" font-size="10.00" fill="#000000">2</text>
<text text-anchor="start" x="733" y="-229" font-family="Ubuntu" font-size="10.00" fill="#000000">nanos</text>
<polygon fill="#a6cee3" stroke="transparent" points="772,-225 772,-239 797,-239 797,-225 772,-225"/>
<text text-anchor="start" x="773.6577" y="-230" font-family="Ubuntu" font-style="italic" font-size="10.00" fill="#000000">int32</text>
<polygon fill="none" stroke="#000000" points="716.5,-224 716.5,-268 797.5,-268 797.5,-224 716.5,-224"/>
</a>
</g>
</g>
<!-- Node_Ja_103 -->
<g id="node5" class="node">
<title>Node_Ja_103</title>
<g id="a_node5"><a xlink:title="magda.File">
<polygon fill="#fffaf0" stroke="transparent" points="506,-96 506,-196 610,-196 610,-96 506,-96"/>
<polygon fill="#e31a1c" stroke="transparent" points="507,-181 507,-195 609,-195 609,-181 507,-181"/>
<text text-anchor="start" x="590.8867" y="-186" font-family="Ubuntu" font-weight="bold" font-size="10.00" fill="#000000">File</text>
<text text-anchor="start" x="512.7192" y="-171" font-family="Ubuntu" font-size="10.00" fill="#000000">1</text>
<text text-anchor="start" x="522" y="-171" font-family="Ubuntu" font-size="10.00" fill="#000000">path</text>
<polygon fill="#a6cee3" stroke="transparent" points="581,-167 581,-181 609,-181 609,-167 581,-167"/>
<text text-anchor="start" x="582.7734" y="-172" font-family="Ubuntu" font-style="italic" font-size="10.00" fill="#000000">string</text>
<text text-anchor="start" x="512.7192" y="-157" font-family="Ubuntu" font-size="10.00" fill="#000000">2</text>
<text text-anchor="start" x="522" y="-157" font-family="Ubuntu" font-size="10.00" fill="#000000">source_url</text>
<polygon fill="#a6cee3" stroke="transparent" points="581,-153 581,-167 609,-167 609,-153 581,-153"/>
<text text-anchor="start" x="582.7734" y="-158" font-family="Ubuntu" font-style="italic" font-size="10.00" fill="#000000">string</text>
<text text-anchor="start" x="512.7192" y="-143" font-family="Ubuntu" font-size="10.00" fill="#000000">3</text>
<text text-anchor="start" x="521.8672" y="-143" font-family="Ubuntu" font-size="10.00" fill="#000000">content_type</text>
<polygon fill="#a6cee3" stroke="transparent" points="581,-139 581,-153 609,-153 609,-139 581,-139"/>
<text text-anchor="start" x="582.7734" y="-144" font-family="Ubuntu" font-style="italic" font-size="10.00" fill="#000000">string</text>
<text text-anchor="start" x="512.7192" y="-129" font-family="Ubuntu" font-size="10.00" fill="#000000">4</text>
<text text-anchor="start" x="522" y="-129" font-family="Ubuntu" font-size="10.00" fill="#000000">filename</text>
<polygon fill="#a6cee3" stroke="transparent" points="581,-125 581,-139 609,-139 609,-125 581,-125"/>
<text text-anchor="start" x="582.7734" y="-130" font-family="Ubuntu" font-style="italic" font-size="10.00" fill="#000000">string</text>
<text text-anchor="start" x="512.7192" y="-115" font-family="Ubuntu" font-size="10.00" fill="#000000">5</text>
<text text-anchor="start" x="522" y="-115" font-family="Ubuntu" font-size="10.00" fill="#000000">width</text>
<polygon fill="#a6cee3" stroke="transparent" points="581,-111 581,-125 609,-125 609,-111 581,-111"/>
<text text-anchor="start" x="585.3154" y="-116" font-family="Ubuntu" font-style="italic" font-size="10.00" fill="#000000">int64</text>
<text text-anchor="start" x="512.7192" y="-101" font-family="Ubuntu" font-size="10.00" fill="#000000">6</text>
<text text-anchor="start" x="522" y="-101" font-family="Ubuntu" font-size="10.00" fill="#000000">hieght</text>
<polygon fill="#a6cee3" stroke="transparent" points="581,-97 581,-111 609,-111 609,-97 581,-97"/>
<text text-anchor="start" x="585.3154" y="-102" font-family="Ubuntu" font-style="italic" font-size="10.00" fill="#000000">int64</text>
<polygon fill="none" stroke="#000000" points="506,-96 506,-196 610,-196 610,-96 506,-96"/>
</a>
</g>
</g>
<!-- Node_Ja_104 -->
<g id="node6" class="node">
<title>Node_Ja_104</title>
<g id="a_node6"><a xlink:title="magda.Source">
<polygon fill="#fffaf0" stroke="transparent" points="456,-222 456,-280 660,-280 660,-222 456,-222"/>
<polygon fill="#e31a1c" stroke="transparent" points="457,-265 457,-279 659,-279 659,-265 457,-265"/>
<text text-anchor="start" x="625.3154" y="-270" font-family="Ubuntu" font-weight="bold" font-size="10.00" fill="#000000">Source</text>
<text text-anchor="start" x="462.7192" y="-255" font-family="Ubuntu" font-size="10.00" fill="#000000">1</text>
<text text-anchor="start" x="472" y="-255" font-family="Ubuntu" font-size="10.00" fill="#000000">entity</text>
<polygon fill="#fb9a99" stroke="transparent" points="534,-251 534,-265 659,-265 659,-251 534,-251"/>
<text text-anchor="start" x="631.9902" y="-256" font-family="Ubuntu" font-weight="bold" font-size="10.00" fill="#000000">Entity</text>
<text text-anchor="start" x="462.7192" y="-241" font-family="Ubuntu" font-size="10.00" fill="#000000">2</text>
<text text-anchor="start" x="472" y="-241" font-family="Ubuntu" font-size="10.00" fill="#000000">url</text>
<polygon fill="#a6cee3" stroke="transparent" points="534,-237 534,-251 659,-251 659,-237 534,-237"/>
<text text-anchor="start" x="632.5469" y="-242" font-family="Ubuntu" font-style="italic" font-size="10.00" fill="#000000">string</text>
<text text-anchor="start" x="462.7192" y="-227" font-family="Ubuntu" font-size="10.00" fill="#000000">3</text>
<text text-anchor="start" x="471.9805" y="-227" font-family="Ubuntu" font-size="10.00" fill="#000000">processed_at</text>
<polygon fill="#fb9a99" stroke="transparent" points="534,-223 534,-237 659,-237 659,-223 534,-223"/>
<text text-anchor="start" x="535.8164" y="-228" font-family="Ubuntu" font-weight="bold" font-size="10.00" fill="#000000">google.protobuf.Timestamp</text>
<polygon fill="none" stroke="#000000" points="456,-222 456,-280 660,-280 660,-222 456,-222"/>
</a>
</g>
</g>
<!-- Node_Ja_104&#45;&gt;Node_Ja_102 -->
<g id="edge2" class="edge">
<title>Node_Ja_104:e&#45;&gt;Node_Ja_102:header</title>
<g id="a_edge2"><a xlink:title="Ja_104 &#45;&#45;&gt; Ja_102">
<path fill="none" stroke="#000000" d="M659,-230C684.6253,-230 688.0539,-252.7641 707.9567,-258.633"/>
<polygon fill="#000000" stroke="#000000" points="707.6193,-262.1193 718,-260 708.5634,-255.1832 707.6193,-262.1193"/>
</a>
</g>
</g>
<!-- Node_Ja_100 -->
<g id="node8" class="node">
<title>Node_Ja_100</title>
<g id="a_node8"><a xlink:title="magda.Entity">
<polygon fill="#fffaf0" stroke="transparent" points="712,-98 712,-170 802,-170 802,-98 712,-98"/>
<polygon fill="#e31a1c" stroke="transparent" points="713,-155 713,-169 801,-169 801,-155 713,-155"/>
<text text-anchor="start" x="773.9902" y="-160" font-family="Ubuntu" font-weight="bold" font-size="10.00" fill="#000000">Entity</text>
<text text-anchor="start" x="731.7192" y="-145" font-family="Ubuntu" font-size="10.00" fill="#000000">1</text>
<text text-anchor="start" x="741" y="-145" font-family="Ubuntu" font-size="10.00" fill="#000000">id</text>
<polygon fill="#a6cee3" stroke="transparent" points="773,-141 773,-155 801,-155 801,-141 773,-141"/>
<text text-anchor="start" x="774.7734" y="-146" font-family="Ubuntu" font-style="italic" font-size="10.00" fill="#000000">string</text>
<text text-anchor="start" x="731.7192" y="-131" font-family="Ubuntu" font-size="10.00" fill="#000000">2</text>
<text text-anchor="start" x="741" y="-131" font-family="Ubuntu" font-size="10.00" fill="#000000">kind</text>
<polygon fill="#b2df8a" stroke="transparent" points="773,-127 773,-141 801,-141 801,-127 773,-127"/>
<text text-anchor="start" x="778.9854" y="-132" font-family="Ubuntu" text-decoration="underline" font-size="10.00" fill="#000000">Kind</text>
<text text-anchor="start" x="714.5542" y="-117" font-family="Ubuntu" font-size="10.00" fill="#000000">[...]</text>
<text text-anchor="start" x="731.7192" y="-117" font-family="Ubuntu" font-size="10.00" fill="#000000">3</text>
<text text-anchor="start" x="740.9927" y="-117" font-family="Ubuntu" font-size="10.00" fill="#000000">names</text>
<polygon fill="#a6cee3" stroke="transparent" points="773,-113 773,-127 801,-127 801,-113 773,-113"/>
<text text-anchor="start" x="774.7734" y="-118" font-family="Ubuntu" font-style="italic" font-size="10.00" fill="#000000">string</text>
<text text-anchor="start" x="714.5542" y="-103" font-family="Ubuntu" font-size="10.00" fill="#000000">[...]</text>
<text text-anchor="start" x="731.7192" y="-103" font-family="Ubuntu" font-size="10.00" fill="#000000">4</text>
<text text-anchor="start" x="741" y="-103" font-family="Ubuntu" font-size="10.00" fill="#000000">urls</text>
<polygon fill="#a6cee3" stroke="transparent" points="773,-99 773,-113 801,-113 801,-99 773,-99"/>
<text text-anchor="start" x="774.7734" y="-104" font-family="Ubuntu" font-style="italic" font-size="10.00" fill="#000000">string</text>
<polygon fill="none" stroke="#000000" points="712,-98 712,-170 802,-170 802,-98 712,-98"/>
</a>
</g>
</g>
<!-- Node_Ja_104&#45;&gt;Node_Ja_100 -->
<g id="edge1" class="edge">
<title>Node_Ja_104:e&#45;&gt;Node_Ja_100:header</title>
<g id="a_edge1"><a xlink:title="Ja_104 &#45;&#45;&gt; Ja_100">
<path fill="none" stroke="#000000" d="M659,-258C704.129,-258 670.3402,-176.4141 703.1383,-163.6663"/>
<polygon fill="#000000" stroke="#000000" points="703.7229,-167.1172 713,-162 702.5566,-160.215 703.7229,-167.1172"/>
</a>
</g>
</g>
<!-- Node_Ja_105&#45;&gt;Node_Ja_103 -->
<g id="edge7" class="edge">
<title>Node_Ja_105:e&#45;&gt;Node_Ja_103:header</title>
<g id="a_edge7"><a xlink:title="Ja_105 &#45;&#45;&gt; Ja_103">
<path fill="none" stroke="#000000" d="M403.5,-188C445.9063,-188 458.9926,-188 496.8176,-188"/>
<polygon fill="#000000" stroke="#000000" points="497,-191.5001 507,-188 497,-184.5001 497,-191.5001"/>
</a>
</g>
</g>
<!-- Node_Ja_105&#45;&gt;Node_Ja_104 -->
<g id="edge6" class="edge">
<title>Node_Ja_105:e&#45;&gt;Node_Ja_104:header</title>
<g id="a_edge6"><a xlink:title="Ja_105 &#45;&#45;&gt; Ja_104">
<path fill="none" stroke="#000000" d="M403.5,-216C434.0222,-216 425.416,-260.0311 447.0732,-270.0069"/>
<polygon fill="#000000" stroke="#000000" points="446.5067,-273.463 457,-272 447.8847,-266.5999 446.5067,-273.463"/>
</a>
</g>
</g>
<!-- Node_Ja_106 -->
<g id="node10" class="node">
<title>Node_Ja_106</title>
<g id="a_node10"><a xlink:title="Kind">
<polygon fill="#b2df8a" stroke="transparent" points="872.5,-42 872.5,-86 925.5,-86 925.5,-42 872.5,-42"/>
<polygon fill="#33a02c" stroke="transparent" points="874,-71 874,-85 925,-85 925,-71 874,-71"/>
<text text-anchor="start" x="875.5962" y="-76" font-family="Ubuntu" font-size="10.00" fill="#000000">enum </text>
<text text-anchor="start" x="903.3892" y="-76" font-family="Ubuntu" font-weight="bold" font-size="10.00" fill="#000000">Kind</text>
<polygon fill="#b2df8a" stroke="transparent" points="874,-57 874,-71 914,-71 914,-57 874,-57"/>
<text text-anchor="start" x="876" y="-61" font-family="Ubuntu" font-size="10.00" fill="#000000">QUOTE</text>
<polygon fill="#b2df8a" stroke="transparent" points="914,-57 914,-71 925,-71 925,-57 914,-57"/>
<text text-anchor="start" x="916" y="-61" font-family="Ubuntu" font-size="10.00" fill="#000000">0</text>
<polygon fill="#b2df8a" stroke="transparent" points="874,-43 874,-57 914,-57 914,-43 874,-43"/>
<text text-anchor="start" x="876" y="-47" font-family="Ubuntu" font-size="10.00" fill="#000000">IMAGE</text>
<polygon fill="#b2df8a" stroke="transparent" points="914,-43 914,-57 925,-57 925,-43 914,-43"/>
<text text-anchor="start" x="916" y="-47" font-family="Ubuntu" font-size="10.00" fill="#000000">1</text>
<polygon fill="none" stroke="#000000" points="872.5,-42 872.5,-86 925.5,-86 925.5,-42 872.5,-42"/>
</a>
</g>
</g>
<!-- Node_Ja_105&#45;&gt;Node_Ja_106 -->
<g id="edge3" class="edge">
<title>Node_Ja_105:e&#45;&gt;Node_Ja_106</title>
<g id="a_edge3"><a xlink:title="Ja_105 &#45;&#45;&gt; Ja_106">
<path fill="none" stroke="#008000" d="M403.5,-230C471.7613,-230 394.0521,-124.8238 448,-83 568.6159,10.509 766.7139,-27.2553 854.6094,-50.6815"/>
<polygon fill="#008000" stroke="#008000" points="853.7013,-54.0616 864.27,-53.3178 855.5442,-47.3085 853.7013,-54.0616"/>
</a>
</g>
</g>
<!-- Node_Ja_101 -->
<g id="node9" class="node">
<title>Node_Ja_101</title>
<g id="a_node9"><a xlink:title="Kind">
<polygon fill="#b2df8a" stroke="transparent" points="854,-112 854,-156 944,-156 944,-112 854,-112"/>
<polygon fill="#33a02c" stroke="transparent" points="855,-141 855,-155 943,-155 943,-141 855,-141"/>
<text text-anchor="start" x="893.1924" y="-146" font-family="Ubuntu" font-size="10.00" fill="#000000">enum </text>
<text text-anchor="start" x="920.9854" y="-146" font-family="Ubuntu" font-weight="bold" font-size="10.00" fill="#000000">Kind</text>
<polygon fill="#b2df8a" stroke="transparent" points="855,-127 855,-141 934,-141 934,-127 855,-127"/>
<text text-anchor="start" x="857" y="-131" font-family="Ubuntu" font-size="10.00" fill="#000000">PERSON</text>
<polygon fill="#b2df8a" stroke="transparent" points="934,-127 934,-141 943,-141 943,-127 934,-127"/>
<text text-anchor="start" x="935.7192" y="-131" font-family="Ubuntu" font-size="10.00" fill="#000000">0</text>
<polygon fill="#b2df8a" stroke="transparent" points="855,-113 855,-127 934,-127 934,-113 855,-113"/>
<text text-anchor="start" x="856.812" y="-117" font-family="Ubuntu" font-size="10.00" fill="#000000">ORGANIZATION</text>
<polygon fill="#b2df8a" stroke="transparent" points="934,-113 934,-127 943,-127 943,-113 934,-113"/>
<text text-anchor="start" x="935.7192" y="-117" font-family="Ubuntu" font-size="10.00" fill="#000000">1</text>
<polygon fill="none" stroke="#000000" points="854,-112 854,-156 944,-156 944,-112 854,-112"/>
</a>
</g>
</g>
<!-- Node_Ja_100&#45;&gt;Node_Ja_101 -->
<g id="edge5" class="edge">
<title>Node_Ja_100:e&#45;&gt;Node_Ja_101</title>
<g id="a_edge5"><a xlink:title="Ja_100 &#45;&#45;&gt; Ja_101">
<path fill="none" stroke="#008000" d="M801,-134C812.2511,-134 824.2288,-134 835.8069,-134"/>
<polygon fill="#008000" stroke="#008000" points="835.8505,-137.5001 845.8505,-134 835.8505,-130.5001 835.8505,-137.5001"/>
</a>
</g>
</g>
</g>
</svg>
