<?xml version="1.0" encoding="UTF-8" standalone="no"?>
<!DOCTYPE svg PUBLIC "-//W3C//DTD SVG 1.1//EN"
 "http://www.w3.org/Graphics/SVG/1.1/DTD/svg11.dtd">
<!-- Generated by graphviz version 2.40.1 (20161225.0304)
 -->
<!-- Title: protodot Pages: 1 -->
<svg width="976pt" height="336pt"
 viewBox="0.00 0.00 976.00 336.38" xmlns="http://www.w3.org/2000/svg" xmlns:xlink="http://www.w3.org/1999/xlink">
<g id="graph0" class="graph" transform="scale(1 1) rotate(0) translate(4 332.3773)">
<title>protodot</title>
<g id="a_graph0"><a xlink:title="magda">
<text text-anchor="middle" x="484" y="-6.8" font-family="Times,serif" font-size="14.00" fill="#000000">magda</text>
</a>
</g>
<g id="clust1" class="cluster">
<title>cluster_f56b993e78fb</title>
<g id="a_clust1"><a xlink:title="entity.proto">
<polygon fill="#caff70" stroke="#000000" points="696,-170.3773 696,-288.3773 818,-288.3773 818,-170.3773 696,-170.3773"/>
<text text-anchor="middle" x="757" y="-273.1773" font-family="Times,serif" font-size="14.00" fill="#000000">entity.proto</text>
</a>
</g>
</g>
<g id="clust2" class="cluster">
<title>cluster_5627932c6abb</title>
<g id="a_clust2"><a xlink:title="timestamp.proto">
<polygon fill="#caff70" stroke="#000000" points="700.5,-72.3773 700.5,-162.3773 813.5,-162.3773 813.5,-72.3773 700.5,-72.3773"/>
<text text-anchor="middle" x="757" y="-147.1773" font-family="Times,serif" font-size="14.00" fill="#000000">timestamp.proto</text>
</a>
</g>
</g>
<g id="clust3" class="cluster">
<title>cluster_9d1e3c2635ff</title>
<g id="a_clust3"><a xlink:title="magda">
<polygon fill="#caff70" stroke="#000000" points="838,-56.3773 838,-216.3773 960,-216.3773 960,-56.3773 838,-56.3773"/>
<text text-anchor="middle" x="899" y="-201.1773" font-family="Times,serif" font-size="14.00" fill="#000000">magda</text>
</a>
</g>
</g>
<g id="clust4" class="cluster">
<title>cluster_b5eb5ae3708a</title>
<g id="a_clust4"><a xlink:title="entry.proto">
<polygon fill="#caff70" stroke="#000000" points="291,-72.3773 291,-302.3773 676,-302.3773 676,-72.3773 291,-72.3773"/>
<text text-anchor="middle" x="483.5" y="-287.1773" font-family="Times,serif" font-size="14.00" fill="#000000">entry.proto</text>
</a>
</g>
</g>
<!-- Node_Ja_107 -->
<g id="node1" class="node">
<title>Node_Ja_107</title>
<g id="a_node1"><a xlink:title="MagdaService">
<polygon fill="#ffd700" stroke="transparent" points="8,-273.3773 8,-317.3773 129,-317.3773 129,-273.3773 8,-273.3773"/>
<polygon fill="#ff7f50" stroke="transparent" points="9.5,-302.3773 9.5,-316.3773 128.5,-316.3773 128.5,-302.3773 9.5,-302.3773"/>
<text text-anchor="start" x="62.5791" y="-307.3773" font-family="Ubuntu" font-weight="bold" font-size="10.00" fill="#000000">MagdaService</text>
<text text-anchor="start" x="11.271" y="-293.3773" font-family="Ubuntu" font-weight="bold" font-size="10.00" fill="#000000">GetEntry</text>
<text text-anchor="start" x="65.9141" y="-292.3773" font-family="Ubuntu" font-size="10.00" fill="#000000">EntryRequest</text>
<polygon fill="#ff7f50" stroke="transparent" points="52.5,-274.3773 52.5,-288.3773 56.5,-288.3773 56.5,-274.3773 52.5,-274.3773"/>
<polygon fill="#ff7f50" stroke="transparent" points="56.5,-274.3773 56.5,-288.3773 128.5,-288.3773 128.5,-274.3773 56.5,-274.3773"/>
<text text-anchor="start" x="58.3154" y="-278.3773" font-family="Ubuntu" font-size="10.00" fill="#000000">EntryResponse</text>
<polygon fill="none" stroke="#000000" points="8,-273.3773 8,-317.3773 129,-317.3773 129,-273.3773 8,-273.3773"/>
</a>
</g>
</g>
<!-- Node_Ja_109 -->
<g id="node2" class="node">
<title>Node_Ja_109</title>
<g id="a_node2"><a xlink:title="magda.EntryRequest">
<polygon fill="#fffaf0" stroke="transparent" points="185,-294.3773 185,-324.3773 251,-324.3773 251,-294.3773 185,-294.3773"/>
<polygon fill="#e31a1c" stroke="transparent" points="186,-309.3773 186,-323.3773 250,-323.3773 250,-309.3773 186,-309.3773"/>
<text text-anchor="start" x="187.707" y="-314.3773" font-family="Ubuntu" font-weight="bold" font-size="10.00" fill="#000000">EntryRequest</text>
<text text-anchor="start" x="200.4385" y="-299.3773" font-family="Ubuntu" font-size="10.00" fill="#000000">1</text>
<text text-anchor="start" x="210" y="-299.3773" font-family="Ubuntu" font-size="10.00" fill="#000000">id</text>
<polygon fill="#a6cee3" stroke="transparent" points="220,-295.3773 220,-309.3773 250,-309.3773 250,-295.3773 220,-295.3773"/>
<text text-anchor="start" x="223.5469" y="-300.3773" font-family="Ubuntu" font-style="italic" font-size="10.00" fill="#000000">string</text>
<polygon fill="none" stroke="#000000" points="185,-294.3773 185,-324.3773 251,-324.3773 251,-294.3773 185,-294.3773"/>
</a>
</g>
</g>
<!-- Node_Ja_107&#45;&gt;Node_Ja_109 -->
<g id="edge1" class="edge">
<title>Node_Ja_107:e&#45;&gt;Node_Ja_109:header</title>
<g id="a_edge1"><a xlink:title="Ja_107 &#45;&#45;&gt; Ja_109">
<path fill="none" stroke="#000000" d="M128.5,-295.3773C151.8806,-295.3773 157.4483,-310.8864 175.819,-315.2483"/>
<polygon fill="#000000" stroke="#000000" points="175.6751,-318.7537 186,-316.3773 176.4467,-311.7964 175.6751,-318.7537"/>
</a>
</g>
</g>
<!-- Node_Ja_110 -->
<g id="node3" class="node">
<title>Node_Ja_110</title>
<g id="a_node3"><a xlink:title="magda.EntryResponse">
<polygon fill="#fffaf0" stroke="transparent" points="181,-238.3773 181,-268.3773 255,-268.3773 255,-238.3773 181,-238.3773"/>
<polygon fill="#e31a1c" stroke="transparent" points="182,-253.3773 182,-267.3773 254,-267.3773 254,-253.3773 182,-253.3773"/>
<text text-anchor="start" x="183.8154" y="-258.3773" font-family="Ubuntu" font-weight="bold" font-size="10.00" fill="#000000">EntryResponse</text>
<text text-anchor="start" x="191.4385" y="-243.3773" font-family="Ubuntu" font-size="10.00" fill="#000000">1</text>
<text text-anchor="start" x="201" y="-243.3773" font-family="Ubuntu" font-size="10.00" fill="#000000">entry</text>
<polygon fill="#fb9a99" stroke="transparent" points="226,-239.3773 226,-253.3773 254,-253.3773 254,-239.3773 226,-239.3773"/>
<text text-anchor="start" x="228.6602" y="-244.3773" font-family="Ubuntu" font-weight="bold" font-size="10.00" fill="#000000">Entry</text>
<polygon fill="none" stroke="#000000" points="181,-238.3773 181,-268.3773 255,-268.3773 255,-238.3773 181,-238.3773"/>
</a>
</g>
</g>
<!-- Node_Ja_107&#45;&gt;Node_Ja_110 -->
<g id="edge7" class="edge">
<title>Node_Ja_107:e&#45;&gt;Node_Ja_110:header</title>
<g id="a_edge7"><a xlink:title="Ja_107 &#45;&#45;&gt; Ja_110">
<path fill="none" stroke="#000000" d="M128.5,-281.3773C150.2523,-281.3773 155.2303,-266.149 172.0027,-261.6281"/>
<polygon fill="#000000" stroke="#000000" points="172.5119,-265.0918 182,-260.3773 171.6428,-258.1459 172.5119,-265.0918"/>
</a>
</g>
</g>
<!-- Node_Ja_105 -->
<g id="node9" class="node">
<title>Node_Ja_105</title>
<g id="a_node9"><a xlink:title="magda.Entry">
<polygon fill="#fffaf0" stroke="transparent" points="307,-168.3773 307,-254.3773 404,-254.3773 404,-168.3773 307,-168.3773"/>
<polygon fill="#e31a1c" stroke="transparent" points="308.5,-239.3773 308.5,-253.3773 403.5,-253.3773 403.5,-239.3773 308.5,-239.3773"/>
<text text-anchor="start" x="378.1602" y="-244.3773" font-family="Ubuntu" font-weight="bold" font-size="10.00" fill="#000000">Entry</text>
<text text-anchor="start" x="327.2192" y="-229.3773" font-family="Ubuntu" font-size="10.00" fill="#000000">1</text>
<text text-anchor="start" x="336.5" y="-229.3773" font-family="Ubuntu" font-size="10.00" fill="#000000">id</text>
<polygon fill="#a6cee3" stroke="transparent" points="368.5,-225.3773 368.5,-239.3773 403.5,-239.3773 403.5,-225.3773 368.5,-225.3773"/>
<text text-anchor="start" x="377.0469" y="-230.3773" font-family="Ubuntu" font-style="italic" font-size="10.00" fill="#000000">string</text>
<text text-anchor="start" x="327.2192" y="-215.3773" font-family="Ubuntu" font-size="10.00" fill="#000000">2</text>
<text text-anchor="start" x="336.5" y="-215.3773" font-family="Ubuntu" font-size="10.00" fill="#000000">kind</text>
<polygon fill="#b2df8a" stroke="transparent" points="368.5,-211.3773 368.5,-225.3773 403.5,-225.3773 403.5,-211.3773 368.5,-211.3773"/>
<text text-anchor="start" x="381.4854" y="-216.3773" font-family="Ubuntu" text-decoration="underline" font-size="10.00" fill="#000000">Kind</text>
<text text-anchor="start" x="327.2192" y="-201.3773" font-family="Ubuntu" font-size="10.00" fill="#000000">3</text>
<text text-anchor="start" x="336.4927" y="-201.3773" font-family="Ubuntu" font-size="10.00" fill="#000000">source</text>
<polygon fill="#fb9a99" stroke="transparent" points="368.5,-197.3773 368.5,-211.3773 403.5,-211.3773 403.5,-197.3773 368.5,-197.3773"/>
<text text-anchor="start" x="370.1577" y="-202.3773" font-family="Ubuntu" font-weight="bold" font-size="10.00" fill="#000000">Source</text>
<text text-anchor="start" x="310.0542" y="-187.3773" font-family="Ubuntu" font-size="10.00" fill="#000000">[...]</text>
<text text-anchor="start" x="327.2192" y="-187.3773" font-family="Ubuntu" font-size="10.00" fill="#000000">4</text>
<text text-anchor="start" x="336.5" y="-187.3773" font-family="Ubuntu" font-size="10.00" fill="#000000">titles</text>
<polygon fill="#a6cee3" stroke="transparent" points="368.5,-183.3773 368.5,-197.3773 403.5,-197.3773 403.5,-183.3773 368.5,-183.3773"/>
<text text-anchor="start" x="377.0469" y="-188.3773" font-family="Ubuntu" font-style="italic" font-size="10.00" fill="#000000">string</text>
<text text-anchor="start" x="310.0542" y="-173.3773" font-family="Ubuntu" font-size="10.00" fill="#000000">[...]</text>
<text text-anchor="start" x="327.2192" y="-173.3773" font-family="Ubuntu" font-size="10.00" fill="#000000">5</text>
<text text-anchor="start" x="336.5" y="-173.3773" font-family="Ubuntu" font-size="10.00" fill="#000000">files</text>
<polygon fill="#fb9a99" stroke="transparent" points="368.5,-169.3773 368.5,-183.3773 403.5,-183.3773 403.5,-169.3773 368.5,-169.3773"/>
<text text-anchor="start" x="385.3867" y="-174.3773" font-family="Ubuntu" font-weight="bold" font-size="10.00" fill="#000000">File</text>
<polygon fill="none" stroke="#000000" points="307,-168.3773 307,-254.3773 404,-254.3773 404,-168.3773 307,-168.3773"/>
</a>
</g>
</g>
<!-- Node_Ja_110&#45;&gt;Node_Ja_105 -->
<g id="edge2" class="edge">
<title>Node_Ja_110:e&#45;&gt;Node_Ja_105:header</title>
<g id="a_edge2"><a xlink:title="Ja_110 &#45;&#45;&gt; Ja_105">
<path fill="none" stroke="#000000" d="M254,-246.3773C274.4375,-246.3773 281.9419,-246.3773 298.3378,-246.3773"/>
<polygon fill="#000000" stroke="#000000" points="298.5,-249.8774 308.5,-246.3773 298.5,-242.8774 298.5,-249.8774"/>
</a>
</g>
</g>
<!-- Node_Ja_100 -->
<g id="node4" class="node">
<title>Node_Ja_100</title>
<g id="a_node4"><a xlink:title="magda.Entity">
<polygon fill="#fffaf0" stroke="transparent" points="712,-182.3773 712,-254.3773 802,-254.3773 802,-182.3773 712,-182.3773"/>
<polygon fill="#e31a1c" stroke="transparent" points="713,-239.3773 713,-253.3773 801,-253.3773 801,-239.3773 713,-239.3773"/>
<text text-anchor="start" x="773.9902" y="-244.3773" font-family="Ubuntu" font-weight="bold" font-size="10.00" fill="#000000">Entity</text>
<text text-anchor="start" x="731.7192" y="-229.3773" font-family="Ubuntu" font-size="10.00" fill="#000000">1</text>
<text text-anchor="start" x="741" y="-229.3773" font-family="Ubuntu" font-size="10.00" fill="#000000">id</text>
<polygon fill="#a6cee3" stroke="transparent" points="773,-225.3773 773,-239.3773 801,-239.3773 801,-225.3773 773,-225.3773"/>
<text text-anchor="start" x="774.7734" y="-230.3773" font-family="Ubuntu" font-style="italic" font-size="10.00" fill="#000000">string</text>
<text text-anchor="start" x="731.7192" y="-215.3773" font-family="Ubuntu" font-size="10.00" fill="#000000">2</text>
<text text-anchor="start" x="741" y="-215.3773" font-family="Ubuntu" font-size="10.00" fill="#000000">kind</text>
<polygon fill="#b2df8a" stroke="transparent" points="773,-211.3773 773,-225.3773 801,-225.3773 801,-211.3773 773,-211.3773"/>
<text text-anchor="start" x="778.9854" y="-216.3773" font-family="Ubuntu" text-decoration="underline" font-size="10.00" fill="#000000">Kind</text>
<text text-anchor="start" x="714.5542" y="-201.3773" font-family="Ubuntu" font-size="10.00" fill="#000000">[...]</text>
<text text-anchor="start" x="731.7192" y="-201.3773" font-family="Ubuntu" font-size="10.00" fill="#000000">3</text>
<text text-anchor="start" x="740.9927" y="-201.3773" font-family="Ubuntu" font-size="10.00" fill="#000000">names</text>
<polygon fill="#a6cee3" stroke="transparent" points="773,-197.3773 773,-211.3773 801,-211.3773 801,-197.3773 773,-197.3773"/>
<text text-anchor="start" x="774.7734" y="-202.3773" font-family="Ubuntu" font-style="italic" font-size="10.00" fill="#000000">string</text>
<text text-anchor="start" x="714.5542" y="-187.3773" font-family="Ubuntu" font-size="10.00" fill="#000000">[...]</text>
<text text-anchor="start" x="731.7192" y="-187.3773" font-family="Ubuntu" font-size="10.00" fill="#000000">4</text>
<text text-anchor="start" x="741" y="-187.3773" font-family="Ubuntu" font-size="10.00" fill="#000000">urls</text>
<polygon fill="#a6cee3" stroke="transparent" points="773,-183.3773 773,-197.3773 801,-197.3773 801,-183.3773 773,-183.3773"/>
<text text-anchor="start" x="774.7734" y="-188.3773" font-family="Ubuntu" font-style="italic" font-size="10.00" fill="#000000">string</text>
<polygon fill="none" stroke="#000000" points="712,-182.3773 712,-254.3773 802,-254.3773 802,-182.3773 712,-182.3773"/>
</a>
</g>
</g>
<!-- Node_Ja_101 -->
<g id="node6" class="node">
<title>Node_Ja_101</title>
<g id="a_node6"><a xlink:title="Kind">
<polygon fill="#b2df8a" stroke="transparent" points="854,-138.3773 854,-182.3773 944,-182.3773 944,-138.3773 854,-138.3773"/>
<polygon fill="#33a02c" stroke="transparent" points="855,-167.3773 855,-181.3773 943,-181.3773 943,-167.3773 855,-167.3773"/>
<text text-anchor="start" x="893.1924" y="-172.3773" font-family="Ubuntu" font-size="10.00" fill="#000000">enum </text>
<text text-anchor="start" x="920.9854" y="-172.3773" font-family="Ubuntu" font-weight="bold" font-size="10.00" fill="#000000">Kind</text>
<polygon fill="#b2df8a" stroke="transparent" points="855,-153.3773 855,-167.3773 934,-167.3773 934,-153.3773 855,-153.3773"/>
<text text-anchor="start" x="857" y="-157.3773" font-family="Ubuntu" font-size="10.00" fill="#000000">PERSON</text>
<polygon fill="#b2df8a" stroke="transparent" points="934,-153.3773 934,-167.3773 943,-167.3773 943,-153.3773 934,-153.3773"/>
<text text-anchor="start" x="935.7192" y="-157.3773" font-family="Ubuntu" font-size="10.00" fill="#000000">0</text>
<polygon fill="#b2df8a" stroke="transparent" points="855,-139.3773 855,-153.3773 934,-153.3773 934,-139.3773 855,-139.3773"/>
<text text-anchor="start" x="856.812" y="-143.3773" font-family="Ubuntu" font-size="10.00" fill="#000000">ORGANIZATION</text>
<polygon fill="#b2df8a" stroke="transparent" points="934,-139.3773 934,-153.3773 943,-153.3773 943,-139.3773 934,-139.3773"/>
<text text-anchor="start" x="935.7192" y="-143.3773" font-family="Ubuntu" font-size="10.00" fill="#000000">1</text>
<polygon fill="none" stroke="#000000" points="854,-138.3773 854,-182.3773 944,-182.3773 944,-138.3773 854,-138.3773"/>
</a>
</g>
</g>
<!-- Node_Ja_100&#45;&gt;Node_Ja_101 -->
<g id="edge3" class="edge">
<title>Node_Ja_100:e&#45;&gt;Node_Ja_101</title>
<g id="a_edge3"><a xlink:title="Ja_100 &#45;&#45;&gt; Ja_101">
<path fill="none" stroke="#008000" d="M801,-218.3773C824.1066,-218.3773 846.5412,-206.2883 864.1012,-193.1486"/>
<polygon fill="#008000" stroke="#008000" points="866.6345,-195.6077 872.3116,-186.6621 862.2951,-190.1149 866.6345,-195.6077"/>
</a>
</g>
</g>
<!-- Node_Ja_102 -->
<g id="node5" class="node">
<title>Node_Ja_102</title>
<g id="a_node5"><a xlink:title="google.protobuf.Timestamp">
<polygon fill="#fffaf0" stroke="transparent" points="716.5,-84.3773 716.5,-128.3773 797.5,-128.3773 797.5,-84.3773 716.5,-84.3773"/>
<polygon fill="#e31a1c" stroke="transparent" points="718,-113.3773 718,-127.3773 797,-127.3773 797,-113.3773 718,-113.3773"/>
<text text-anchor="start" x="745.9131" y="-118.3773" font-family="Ubuntu" font-weight="bold" font-size="10.00" fill="#000000">Timestamp</text>
<text text-anchor="start" x="723.7192" y="-103.3773" font-family="Ubuntu" font-size="10.00" fill="#000000">1</text>
<text text-anchor="start" x="732.877" y="-103.3773" font-family="Ubuntu" font-size="10.00" fill="#000000">seconds</text>
<polygon fill="#a6cee3" stroke="transparent" points="772,-99.3773 772,-113.3773 797,-113.3773 797,-99.3773 772,-99.3773"/>
<text text-anchor="start" x="773.6577" y="-104.3773" font-family="Ubuntu" font-style="italic" font-size="10.00" fill="#000000">int64</text>
<text text-anchor="start" x="723.7192" y="-89.3773" font-family="Ubuntu" font-size="10.00" fill="#000000">2</text>
<text text-anchor="start" x="733" y="-89.3773" font-family="Ubuntu" font-size="10.00" fill="#000000">nanos</text>
<polygon fill="#a6cee3" stroke="transparent" points="772,-85.3773 772,-99.3773 797,-99.3773 797,-85.3773 772,-85.3773"/>
<text text-anchor="start" x="773.6577" y="-90.3773" font-family="Ubuntu" font-style="italic" font-size="10.00" fill="#000000">int32</text>
<polygon fill="none" stroke="#000000" points="716.5,-84.3773 716.5,-128.3773 797.5,-128.3773 797.5,-84.3773 716.5,-84.3773"/>
</a>
</g>
</g>
<!-- Node_Ja_106 -->
<g id="node7" class="node">
<title>Node_Ja_106</title>
<g id="a_node7"><a xlink:title="Kind">
<polygon fill="#b2df8a" stroke="transparent" points="872.5,-68.3773 872.5,-112.3773 925.5,-112.3773 925.5,-68.3773 872.5,-68.3773"/>
<polygon fill="#33a02c" stroke="transparent" points="874,-97.3773 874,-111.3773 925,-111.3773 925,-97.3773 874,-97.3773"/>
<text text-anchor="start" x="875.5962" y="-102.3773" font-family="Ubuntu" font-size="10.00" fill="#000000">enum </text>
<text text-anchor="start" x="903.3892" y="-102.3773" font-family="Ubuntu" font-weight="bold" font-size="10.00" fill="#000000">Kind</text>
<polygon fill="#b2df8a" stroke="transparent" points="874,-83.3773 874,-97.3773 914,-97.3773 914,-83.3773 874,-83.3773"/>
<text text-anchor="start" x="876" y="-87.3773" font-family="Ubuntu" font-size="10.00" fill="#000000">QUOTE</text>
<polygon fill="#b2df8a" stroke="transparent" points="914,-83.3773 914,-97.3773 925,-97.3773 925,-83.3773 914,-83.3773"/>
<text text-anchor="start" x="916" y="-87.3773" font-family="Ubuntu" font-size="10.00" fill="#000000">0</text>
<polygon fill="#b2df8a" stroke="transparent" points="874,-69.3773 874,-83.3773 914,-83.3773 914,-69.3773 874,-69.3773"/>
<text text-anchor="start" x="876" y="-73.3773" font-family="Ubuntu" font-size="10.00" fill="#000000">IMAGE</text>
<polygon fill="#b2df8a" stroke="transparent" points="914,-69.3773 914,-83.3773 925,-83.3773 925,-69.3773 914,-69.3773"/>
<text text-anchor="start" x="916" y="-73.3773" font-family="Ubuntu" font-size="10.00" fill="#000000">1</text>
<polygon fill="none" stroke="#000000" points="872.5,-68.3773 872.5,-112.3773 925.5,-112.3773 925.5,-68.3773 872.5,-68.3773"/>
</a>
</g>
</g>
<!-- Node_Ja_104 -->
<g id="node8" class="node">
<title>Node_Ja_104</title>
<g id="a_node8"><a xlink:title="magda.Source">
<polygon fill="#fffaf0" stroke="transparent" points="456,-210.3773 456,-268.3773 660,-268.3773 660,-210.3773 456,-210.3773"/>
<polygon fill="#e31a1c" stroke="transparent" points="457,-253.3773 457,-267.3773 659,-267.3773 659,-253.3773 457,-253.3773"/>
<text text-anchor="start" x="625.3154" y="-258.3773" font-family="Ubuntu" font-weight="bold" font-size="10.00" fill="#000000">Source</text>
<text text-anchor="start" x="462.7192" y="-243.3773" font-family="Ubuntu" font-size="10.00" fill="#000000">1</text>
<text text-anchor="start" x="472" y="-243.3773" font-family="Ubuntu" font-size="10.00" fill="#000000">entity</text>
<polygon fill="#fb9a99" stroke="transparent" points="534,-239.3773 534,-253.3773 659,-253.3773 659,-239.3773 534,-239.3773"/>
<text text-anchor="start" x="631.9902" y="-244.3773" font-family="Ubuntu" font-weight="bold" font-size="10.00" fill="#000000">Entity</text>
<text text-anchor="start" x="462.7192" y="-229.3773" font-family="Ubuntu" font-size="10.00" fill="#000000">2</text>
<text text-anchor="start" x="472" y="-229.3773" font-family="Ubuntu" font-size="10.00" fill="#000000">url</text>
<polygon fill="#a6cee3" stroke="transparent" points="534,-225.3773 534,-239.3773 659,-239.3773 659,-225.3773 534,-225.3773"/>
<text text-anchor="start" x="632.5469" y="-230.3773" font-family="Ubuntu" font-style="italic" font-size="10.00" fill="#000000">string</text>
<text text-anchor="start" x="462.7192" y="-215.3773" font-family="Ubuntu" font-size="10.00" fill="#000000">3</text>
<text text-anchor="start" x="471.9805" y="-215.3773" font-family="Ubuntu" font-size="10.00" fill="#000000">processed_at</text>
<polygon fill="#fb9a99" stroke="transparent" points="534,-211.3773 534,-225.3773 659,-225.3773 659,-211.3773 534,-211.3773"/>
<text text-anchor="start" x="535.8164" y="-216.3773" font-family="Ubuntu" font-weight="bold" font-size="10.00" fill="#000000">google.protobuf.Timestamp</text>
<polygon fill="none" stroke="#000000" points="456,-210.3773 456,-268.3773 660,-268.3773 660,-210.3773 456,-210.3773"/>
</a>
</g>
</g>
<!-- Node_Ja_104&#45;&gt;Node_Ja_100 -->
<g id="edge8" class="edge">
<title>Node_Ja_104:e&#45;&gt;Node_Ja_100:header</title>
<g id="a_edge8"><a xlink:title="Ja_104 &#45;&#45;&gt; Ja_100">
<path fill="none" stroke="#000000" d="M659,-246.3773C679.25,-246.3773 686.6855,-246.3773 702.931,-246.3773"/>
<polygon fill="#000000" stroke="#000000" points="703,-249.8774 713,-246.3773 703,-242.8774 703,-249.8774"/>
</a>
</g>
</g>
<!-- Node_Ja_104&#45;&gt;Node_Ja_102 -->
<g id="edge9" class="edge">
<title>Node_Ja_104:e&#45;&gt;Node_Ja_102:header</title>
<g id="a_edge9"><a xlink:title="Ja_104 &#45;&#45;&gt; Ja_102">
<path fill="none" stroke="#000000" d="M659,-218.3773C705.868,-218.3773 673.258,-135.0917 707.7076,-122.0783"/>
<polygon fill="#000000" stroke="#000000" points="708.7045,-125.4611 718,-120.3773 707.5631,-118.5548 708.7045,-125.4611"/>
</a>
</g>
</g>
<!-- Node_Ja_105&#45;&gt;Node_Ja_106 -->
<g id="edge5" class="edge">
<title>Node_Ja_105:e&#45;&gt;Node_Ja_106</title>
<g id="a_edge5"><a xlink:title="Ja_105 &#45;&#45;&gt; Ja_106">
<path fill="none" stroke="#008000" d="M403.5,-218.3773C471.7613,-218.3773 393.4307,-112.387 448,-71.3773 570.129,20.4045 767.7792,-38.6136 855.1138,-71.9872"/>
<polygon fill="#008000" stroke="#008000" points="853.8722,-75.2596 864.4608,-75.623 856.4099,-68.7358 853.8722,-75.2596"/>
</a>
</g>
</g>
<!-- Node_Ja_105&#45;&gt;Node_Ja_104 -->
<g id="edge6" class="edge">
<title>Node_Ja_105:e&#45;&gt;Node_Ja_104:header</title>
<g id="a_edge6"><a xlink:title="Ja_105 &#45;&#45;&gt; Ja_104">
<path fill="none" stroke="#000000" d="M403.5,-204.3773C434.0222,-204.3773 425.416,-248.4085 447.0732,-258.3843"/>
<polygon fill="#000000" stroke="#000000" points="446.5067,-261.8403 457,-260.3773 447.8847,-254.9773 446.5067,-261.8403"/>
</a>
</g>
</g>
<!-- Node_Ja_103 -->
<g id="node10" class="node">
<title>Node_Ja_103</title>
<g id="a_node10"><a xlink:title="magda.File">
<polygon fill="#fffaf0" stroke="transparent" points="506,-84.3773 506,-184.3773 610,-184.3773 610,-84.3773 506,-84.3773"/>
<polygon fill="#e31a1c" stroke="transparent" points="507,-169.3773 507,-183.3773 609,-183.3773 609,-169.3773 507,-169.3773"/>
<text text-anchor="start" x="590.8867" y="-174.3773" font-family="Ubuntu" font-weight="bold" font-size="10.00" fill="#000000">File</text>
<text text-anchor="start" x="512.7192" y="-159.3773" font-family="Ubuntu" font-size="10.00" fill="#000000">1</text>
<text text-anchor="start" x="522" y="-159.3773" font-family="Ubuntu" font-size="10.00" fill="#000000">path</text>
<polygon fill="#a6cee3" stroke="transparent" points="581,-155.3773 581,-169.3773 609,-169.3773 609,-155.3773 581,-155.3773"/>
<text text-anchor="start" x="582.7734" y="-160.3773" font-family="Ubuntu" font-style="italic" font-size="10.00" fill="#000000">string</text>
<text text-anchor="start" x="512.7192" y="-145.3773" font-family="Ubuntu" font-size="10.00" fill="#000000">2</text>
<text text-anchor="start" x="522" y="-145.3773" font-family="Ubuntu" font-size="10.00" fill="#000000">source_url</text>
<polygon fill="#a6cee3" stroke="transparent" points="581,-141.3773 581,-155.3773 609,-155.3773 609,-141.3773 581,-141.3773"/>
<text text-anchor="start" x="582.7734" y="-146.3773" font-family="Ubuntu" font-style="italic" font-size="10.00" fill="#000000">string</text>
<text text-anchor="start" x="512.7192" y="-131.3773" font-family="Ubuntu" font-size="10.00" fill="#000000">3</text>
<text text-anchor="start" x="521.8672" y="-131.3773" font-family="Ubuntu" font-size="10.00" fill="#000000">content_type</text>
<polygon fill="#a6cee3" stroke="transparent" points="581,-127.3773 581,-141.3773 609,-141.3773 609,-127.3773 581,-127.3773"/>
<text text-anchor="start" x="582.7734" y="-132.3773" font-family="Ubuntu" font-style="italic" font-size="10.00" fill="#000000">string</text>
<text text-anchor="start" x="512.7192" y="-117.3773" font-family="Ubuntu" font-size="10.00" fill="#000000">4</text>
<text text-anchor="start" x="522" y="-117.3773" font-family="Ubuntu" font-size="10.00" fill="#000000">filename</text>
<polygon fill="#a6cee3" stroke="transparent" points="581,-113.3773 581,-127.3773 609,-127.3773 609,-113.3773 581,-113.3773"/>
<text text-anchor="start" x="582.7734" y="-118.3773" font-family="Ubuntu" font-style="italic" font-size="10.00" fill="#000000">string</text>
<text text-anchor="start" x="512.7192" y="-103.3773" font-family="Ubuntu" font-size="10.00" fill="#000000">5</text>
<text text-anchor="start" x="522" y="-103.3773" font-family="Ubuntu" font-size="10.00" fill="#000000">width</text>
<polygon fill="#a6cee3" stroke="transparent" points="581,-99.3773 581,-113.3773 609,-113.3773 609,-99.3773 581,-99.3773"/>
<text text-anchor="start" x="585.3154" y="-104.3773" font-family="Ubuntu" font-style="italic" font-size="10.00" fill="#000000">int64</text>
<text text-anchor="start" x="512.7192" y="-89.3773" font-family="Ubuntu" font-size="10.00" fill="#000000">6</text>
<text text-anchor="start" x="522" y="-89.3773" font-family="Ubuntu" font-size="10.00" fill="#000000">hieght</text>
<polygon fill="#a6cee3" stroke="transparent" points="581,-85.3773 581,-99.3773 609,-99.3773 609,-85.3773 581,-85.3773"/>
<text text-anchor="start" x="585.3154" y="-90.3773" font-family="Ubuntu" font-style="italic" font-size="10.00" fill="#000000">int64</text>
<polygon fill="none" stroke="#000000" points="506,-84.3773 506,-184.3773 610,-184.3773 610,-84.3773 506,-84.3773"/>
</a>
</g>
</g>
<!-- Node_Ja_105&#45;&gt;Node_Ja_103 -->
<g id="edge4" class="edge">
<title>Node_Ja_105:e&#45;&gt;Node_Ja_103:header</title>
<g id="a_edge4"><a xlink:title="Ja_105 &#45;&#45;&gt; Ja_103">
<path fill="none" stroke="#000000" d="M403.5,-176.3773C445.9063,-176.3773 458.9926,-176.3773 496.8176,-176.3773"/>
<polygon fill="#000000" stroke="#000000" points="497,-179.8774 507,-176.3773 497,-172.8774 497,-179.8774"/>
</a>
</g>
</g>
</g>
</svg>
