<?xml version="1.0" encoding="UTF-8" standalone="no"?>
<!DOCTYPE svg PUBLIC "-//W3C//DTD SVG 1.1//EN"
 "http://www.w3.org/Graphics/SVG/1.1/DTD/svg11.dtd">
<!-- Generated by graphviz version 2.40.1 (20161225.0304)
 -->
<!-- Title: protodot Pages: 1 -->
<svg width="1339pt" height="599pt"
 viewBox="0.00 0.00 1339.00 599.32" xmlns="http://www.w3.org/2000/svg" xmlns:xlink="http://www.w3.org/1999/xlink">
<g id="graph0" class="graph" transform="scale(1 1) rotate(0) translate(4 595.3163)">
<title>protodot</title>
<g id="a_graph0"><a xlink:title="magda">
<text text-anchor="middle" x="665.5" y="-6.8" font-family="Times,serif" font-size="14.00" fill="#000000">magda</text>
</a>
</g>
<g id="clust1" class="cluster">
<title>cluster_8b180d234311</title>
<g id="a_clust1"><a xlink:title="file.proto">
<polygon fill="#caff70" stroke="#000000" points="957,-409.3163 957,-583.3163 1190,-583.3163 1190,-409.3163 957,-409.3163"/>
<text text-anchor="middle" x="1073.5" y="-568.1163" font-family="Times,serif" font-size="14.00" fill="#000000">file.proto</text>
</a>
</g>
</g>
<g id="clust2" class="cluster">
<title>cluster_f56b993e78fb</title>
<g id="a_clust2"><a xlink:title="entity.proto">
<polygon fill="#caff70" stroke="#000000" points="698,-283.3163 698,-457.3163 937,-457.3163 937,-283.3163 698,-283.3163"/>
<text text-anchor="middle" x="817.5" y="-442.1163" font-family="Times,serif" font-size="14.00" fill="#000000">entity.proto</text>
</a>
</g>
</g>
<g id="clust3" class="cluster">
<title>cluster_b5eb5ae3708a</title>
<g id="a_clust3"><a xlink:title="entry.proto">
<polygon fill="#caff70" stroke="#000000" points="291,-151.3163 291,-353.3163 678,-353.3163 678,-151.3163 291,-151.3163"/>
<text text-anchor="middle" x="484.5" y="-338.1163" font-family="Times,serif" font-size="14.00" fill="#000000">entry.proto</text>
</a>
</g>
</g>
<g id="clust4" class="cluster">
<title>cluster_9d1e3c2635ff</title>
<g id="a_clust4"><a xlink:title="magda">
<polygon fill="#caff70" stroke="#000000" points="1012.5,-173.3163 1012.5,-333.3163 1134.5,-333.3163 1134.5,-173.3163 1012.5,-173.3163"/>
<text text-anchor="middle" x="1073.5" y="-318.1163" font-family="Times,serif" font-size="14.00" fill="#000000">magda</text>
</a>
</g>
</g>
<g id="clust5" class="cluster">
<title>cluster_5627932c6abb</title>
<g id="a_clust5"><a xlink:title="timestamp.proto">
<polygon fill="#caff70" stroke="#000000" points="1210,-303.3163 1210,-393.3163 1323,-393.3163 1323,-303.3163 1210,-303.3163"/>
<text text-anchor="middle" x="1266.5" y="-378.1163" font-family="Times,serif" font-size="14.00" fill="#000000">timestamp.proto</text>
</a>
</g>
</g>
<!-- Node_Ja_101 -->
<g id="node1" class="node">
<title>Node_Ja_101</title>
<g id="a_node1"><a xlink:title="magda.File">
<polygon fill="#fffaf0" stroke="transparent" points="973,-421.3163 973,-549.3163 1174,-549.3163 1174,-421.3163 973,-421.3163"/>
<polygon fill="#e31a1c" stroke="transparent" points="974.5,-534.3163 974.5,-548.3163 1173.5,-548.3163 1173.5,-534.3163 974.5,-534.3163"/>
<text text-anchor="start" x="1155.3867" y="-539.3163" font-family="Ubuntu" font-weight="bold" font-size="10.00" fill="#000000">File</text>
<text text-anchor="start" x="980.2192" y="-524.3163" font-family="Ubuntu" font-size="10.00" fill="#000000">1</text>
<text text-anchor="start" x="989.5" y="-524.3163" font-family="Ubuntu" font-size="10.00" fill="#000000">path</text>
<polygon fill="#a6cee3" stroke="transparent" points="1048.5,-520.3163 1048.5,-534.3163 1173.5,-534.3163 1173.5,-520.3163 1048.5,-520.3163"/>
<text text-anchor="start" x="1147.0469" y="-525.3163" font-family="Ubuntu" font-style="italic" font-size="10.00" fill="#000000">string</text>
<text text-anchor="start" x="980.2192" y="-510.3163" font-family="Ubuntu" font-size="10.00" fill="#000000">2</text>
<text text-anchor="start" x="989.5" y="-510.3163" font-family="Ubuntu" font-size="10.00" fill="#000000">source_url</text>
<polygon fill="#a6cee3" stroke="transparent" points="1048.5,-506.3163 1048.5,-520.3163 1173.5,-520.3163 1173.5,-506.3163 1048.5,-506.3163"/>
<text text-anchor="start" x="1147.0469" y="-511.3163" font-family="Ubuntu" font-style="italic" font-size="10.00" fill="#000000">string</text>
<text text-anchor="start" x="980.2192" y="-496.3163" font-family="Ubuntu" font-size="10.00" fill="#000000">3</text>
<text text-anchor="start" x="989.3672" y="-496.3163" font-family="Ubuntu" font-size="10.00" fill="#000000">content_type</text>
<polygon fill="#a6cee3" stroke="transparent" points="1048.5,-492.3163 1048.5,-506.3163 1173.5,-506.3163 1173.5,-492.3163 1048.5,-492.3163"/>
<text text-anchor="start" x="1147.0469" y="-497.3163" font-family="Ubuntu" font-style="italic" font-size="10.00" fill="#000000">string</text>
<text text-anchor="start" x="980.2192" y="-482.3163" font-family="Ubuntu" font-size="10.00" fill="#000000">4</text>
<text text-anchor="start" x="989.5" y="-482.3163" font-family="Ubuntu" font-size="10.00" fill="#000000">filename</text>
<polygon fill="#a6cee3" stroke="transparent" points="1048.5,-478.3163 1048.5,-492.3163 1173.5,-492.3163 1173.5,-478.3163 1048.5,-478.3163"/>
<text text-anchor="start" x="1147.0469" y="-483.3163" font-family="Ubuntu" font-style="italic" font-size="10.00" fill="#000000">string</text>
<text text-anchor="start" x="980.2192" y="-468.3163" font-family="Ubuntu" font-size="10.00" fill="#000000">5</text>
<text text-anchor="start" x="989.5" y="-468.3163" font-family="Ubuntu" font-size="10.00" fill="#000000">width</text>
<polygon fill="#a6cee3" stroke="transparent" points="1048.5,-464.3163 1048.5,-478.3163 1173.5,-478.3163 1173.5,-464.3163 1048.5,-464.3163"/>
<text text-anchor="start" x="1149.8154" y="-469.3163" font-family="Ubuntu" font-style="italic" font-size="10.00" fill="#000000">int64</text>
<text text-anchor="start" x="980.2192" y="-454.3163" font-family="Ubuntu" font-size="10.00" fill="#000000">6</text>
<text text-anchor="start" x="989.5" y="-454.3163" font-family="Ubuntu" font-size="10.00" fill="#000000">hieght</text>
<polygon fill="#a6cee3" stroke="transparent" points="1048.5,-450.3163 1048.5,-464.3163 1173.5,-464.3163 1173.5,-450.3163 1048.5,-450.3163"/>
<text text-anchor="start" x="1149.8154" y="-455.3163" font-family="Ubuntu" font-style="italic" font-size="10.00" fill="#000000">int64</text>
<text text-anchor="start" x="980.2192" y="-440.3163" font-family="Ubuntu" font-size="10.00" fill="#000000">7</text>
<text text-anchor="start" x="989.5" y="-440.3163" font-family="Ubuntu" font-size="10.00" fill="#000000">created_at</text>
<polygon fill="#fb9a99" stroke="transparent" points="1048.5,-436.3163 1048.5,-450.3163 1173.5,-450.3163 1173.5,-436.3163 1048.5,-436.3163"/>
<text text-anchor="start" x="1050.3164" y="-441.3163" font-family="Ubuntu" font-weight="bold" font-size="10.00" fill="#000000">google.protobuf.Timestamp</text>
<text text-anchor="start" x="980.2192" y="-426.3163" font-family="Ubuntu" font-size="10.00" fill="#000000">8</text>
<text text-anchor="start" x="989.5" y="-426.3163" font-family="Ubuntu" font-size="10.00" fill="#000000">updated_at</text>
<polygon fill="#fb9a99" stroke="transparent" points="1048.5,-422.3163 1048.5,-436.3163 1173.5,-436.3163 1173.5,-422.3163 1048.5,-422.3163"/>
<text text-anchor="start" x="1050.3164" y="-427.3163" font-family="Ubuntu" font-weight="bold" font-size="10.00" fill="#000000">google.protobuf.Timestamp</text>
<polygon fill="none" stroke="#000000" points="973,-421.3163 973,-549.3163 1174,-549.3163 1174,-421.3163 973,-421.3163"/>
</a>
</g>
</g>
<!-- Node_Ja_100 -->
<g id="node10" class="node">
<title>Node_Ja_100</title>
<g id="a_node10"><a xlink:title="google.protobuf.Timestamp">
<polygon fill="#fffaf0" stroke="transparent" points="1226,-315.3163 1226,-359.3163 1307,-359.3163 1307,-315.3163 1226,-315.3163"/>
<polygon fill="#e31a1c" stroke="transparent" points="1227.5,-344.3163 1227.5,-358.3163 1306.5,-358.3163 1306.5,-344.3163 1227.5,-344.3163"/>
<text text-anchor="start" x="1255.4131" y="-349.3163" font-family="Ubuntu" font-weight="bold" font-size="10.00" fill="#000000">Timestamp</text>
<text text-anchor="start" x="1233.2192" y="-334.3163" font-family="Ubuntu" font-size="10.00" fill="#000000">1</text>
<text text-anchor="start" x="1242.377" y="-334.3163" font-family="Ubuntu" font-size="10.00" fill="#000000">seconds</text>
<polygon fill="#a6cee3" stroke="transparent" points="1281.5,-330.3163 1281.5,-344.3163 1306.5,-344.3163 1306.5,-330.3163 1281.5,-330.3163"/>
<text text-anchor="start" x="1283.1577" y="-335.3163" font-family="Ubuntu" font-style="italic" font-size="10.00" fill="#000000">int64</text>
<text text-anchor="start" x="1233.2192" y="-320.3163" font-family="Ubuntu" font-size="10.00" fill="#000000">2</text>
<text text-anchor="start" x="1242.5" y="-320.3163" font-family="Ubuntu" font-size="10.00" fill="#000000">nanos</text>
<polygon fill="#a6cee3" stroke="transparent" points="1281.5,-316.3163 1281.5,-330.3163 1306.5,-330.3163 1306.5,-316.3163 1281.5,-316.3163"/>
<text text-anchor="start" x="1283.1577" y="-321.3163" font-family="Ubuntu" font-style="italic" font-size="10.00" fill="#000000">int32</text>
<polygon fill="none" stroke="#000000" points="1226,-315.3163 1226,-359.3163 1307,-359.3163 1307,-315.3163 1226,-315.3163"/>
</a>
</g>
</g>
<!-- Node_Ja_101&#45;&gt;Node_Ja_100 -->
<g id="edge1" class="edge">
<title>Node_Ja_101:e&#45;&gt;Node_Ja_100:header</title>
<g id="a_edge1"><a xlink:title="Ja_101 &#45;&#45;&gt; Ja_100">
<path fill="none" stroke="#000000" d="M1173.5,-443.3163C1217.0228,-443.3163 1186.1919,-365.791 1217.516,-353.072"/>
<polygon fill="#000000" stroke="#000000" points="1218.2573,-356.4955 1227.5,-351.3163 1217.0449,-349.6012 1218.2573,-356.4955"/>
</a>
</g>
</g>
<!-- Node_Ja_101&#45;&gt;Node_Ja_100 -->
<g id="edge7" class="edge">
<title>Node_Ja_101:e&#45;&gt;Node_Ja_100:header</title>
<g id="a_edge7"><a xlink:title="Ja_101 &#45;&#45;&gt; Ja_100">
<path fill="none" stroke="#000000" d="M1173.5,-429.3163C1211.7109,-429.3163 1190.3856,-365.2558 1217.4334,-353.2444"/>
<polygon fill="#000000" stroke="#000000" points="1218.337,-356.6351 1227.5,-351.3163 1217.0201,-349.7601 1218.337,-356.6351"/>
</a>
</g>
</g>
<!-- Node_Ja_102 -->
<g id="node2" class="node">
<title>Node_Ja_102</title>
<g id="a_node2"><a xlink:title="magda.Entity">
<polygon fill="#fffaf0" stroke="transparent" points="714,-295.3163 714,-423.3163 921,-423.3163 921,-295.3163 714,-295.3163"/>
<polygon fill="#e31a1c" stroke="transparent" points="715.5,-408.3163 715.5,-422.3163 920.5,-422.3163 920.5,-408.3163 715.5,-408.3163"/>
<text text-anchor="start" x="893.4902" y="-413.3163" font-family="Ubuntu" font-weight="bold" font-size="10.00" fill="#000000">Entity</text>
<text text-anchor="start" x="734.2192" y="-398.3163" font-family="Ubuntu" font-size="10.00" fill="#000000">1</text>
<text text-anchor="start" x="743.5" y="-398.3163" font-family="Ubuntu" font-size="10.00" fill="#000000">id</text>
<polygon fill="#a6cee3" stroke="transparent" points="795.5,-394.3163 795.5,-408.3163 920.5,-408.3163 920.5,-394.3163 795.5,-394.3163"/>
<text text-anchor="start" x="894.0469" y="-399.3163" font-family="Ubuntu" font-style="italic" font-size="10.00" fill="#000000">string</text>
<text text-anchor="start" x="734.2192" y="-384.3163" font-family="Ubuntu" font-size="10.00" fill="#000000">2</text>
<text text-anchor="start" x="743.5" y="-384.3163" font-family="Ubuntu" font-size="10.00" fill="#000000">kind</text>
<polygon fill="#b2df8a" stroke="transparent" points="795.5,-380.3163 795.5,-394.3163 920.5,-394.3163 920.5,-380.3163 795.5,-380.3163"/>
<text text-anchor="start" x="898.4854" y="-385.3163" font-family="Ubuntu" text-decoration="underline" font-size="10.00" fill="#000000">Kind</text>
<text text-anchor="start" x="717.0542" y="-370.3163" font-family="Ubuntu" font-size="10.00" fill="#000000">[...]</text>
<text text-anchor="start" x="734.2192" y="-370.3163" font-family="Ubuntu" font-size="10.00" fill="#000000">3</text>
<text text-anchor="start" x="743.5" y="-370.3163" font-family="Ubuntu" font-size="10.00" fill="#000000">names</text>
<polygon fill="#a6cee3" stroke="transparent" points="795.5,-366.3163 795.5,-380.3163 920.5,-380.3163 920.5,-366.3163 795.5,-366.3163"/>
<text text-anchor="start" x="894.0469" y="-371.3163" font-family="Ubuntu" font-style="italic" font-size="10.00" fill="#000000">string</text>
<text text-anchor="start" x="717.0542" y="-356.3163" font-family="Ubuntu" font-size="10.00" fill="#000000">[...]</text>
<text text-anchor="start" x="734.2192" y="-356.3163" font-family="Ubuntu" font-size="10.00" fill="#000000">4</text>
<text text-anchor="start" x="743.5" y="-356.3163" font-family="Ubuntu" font-size="10.00" fill="#000000">urls</text>
<polygon fill="#a6cee3" stroke="transparent" points="795.5,-352.3163 795.5,-366.3163 920.5,-366.3163 920.5,-352.3163 795.5,-352.3163"/>
<text text-anchor="start" x="894.0469" y="-357.3163" font-family="Ubuntu" font-style="italic" font-size="10.00" fill="#000000">string</text>
<text text-anchor="start" x="734.2192" y="-342.3163" font-family="Ubuntu" font-size="10.00" fill="#000000">5</text>
<text text-anchor="start" x="743.5" y="-342.3163" font-family="Ubuntu" font-size="10.00" fill="#000000">description</text>
<polygon fill="#a6cee3" stroke="transparent" points="795.5,-338.3163 795.5,-352.3163 920.5,-352.3163 920.5,-338.3163 795.5,-338.3163"/>
<text text-anchor="start" x="894.0469" y="-343.3163" font-family="Ubuntu" font-style="italic" font-size="10.00" fill="#000000">string</text>
<text text-anchor="start" x="734.2192" y="-328.3163" font-family="Ubuntu" font-size="10.00" fill="#000000">6</text>
<text text-anchor="start" x="743.5" y="-328.3163" font-family="Ubuntu" font-size="10.00" fill="#000000">created_at</text>
<polygon fill="#fb9a99" stroke="transparent" points="795.5,-324.3163 795.5,-338.3163 920.5,-338.3163 920.5,-324.3163 795.5,-324.3163"/>
<text text-anchor="start" x="797.3164" y="-329.3163" font-family="Ubuntu" font-weight="bold" font-size="10.00" fill="#000000">google.protobuf.Timestamp</text>
<text text-anchor="start" x="734.2192" y="-314.3163" font-family="Ubuntu" font-size="10.00" fill="#000000">7</text>
<text text-anchor="start" x="743.4756" y="-314.3163" font-family="Ubuntu" font-size="10.00" fill="#000000">updated_at</text>
<polygon fill="#fb9a99" stroke="transparent" points="795.5,-310.3163 795.5,-324.3163 920.5,-324.3163 920.5,-310.3163 795.5,-310.3163"/>
<text text-anchor="start" x="797.3164" y="-315.3163" font-family="Ubuntu" font-weight="bold" font-size="10.00" fill="#000000">google.protobuf.Timestamp</text>
<text text-anchor="start" x="717.0542" y="-300.3163" font-family="Ubuntu" font-size="10.00" fill="#000000">[...]</text>
<text text-anchor="start" x="734.2192" y="-300.3163" font-family="Ubuntu" font-size="10.00" fill="#000000">8</text>
<text text-anchor="start" x="743.5" y="-300.3163" font-family="Ubuntu" font-size="10.00" fill="#000000">files</text>
<polygon fill="#fb9a99" stroke="transparent" points="795.5,-296.3163 795.5,-310.3163 920.5,-310.3163 920.5,-296.3163 795.5,-296.3163"/>
<text text-anchor="start" x="902.3867" y="-301.3163" font-family="Ubuntu" font-weight="bold" font-size="10.00" fill="#000000">File</text>
<polygon fill="none" stroke="#000000" points="714,-295.3163 714,-423.3163 921,-423.3163 921,-295.3163 714,-295.3163"/>
</a>
</g>
</g>
<!-- Node_Ja_102&#45;&gt;Node_Ja_101 -->
<g id="edge14" class="edge">
<title>Node_Ja_102:e&#45;&gt;Node_Ja_101:header</title>
<g id="a_edge14"><a xlink:title="Ja_102 &#45;&#45;&gt; Ja_101">
<path fill="none" stroke="#000000" d="M920.5,-303.3163C970.9199,-303.3163 927.3888,-509.0242 964.5968,-537.9519"/>
<polygon fill="#000000" stroke="#000000" points="963.9056,-541.4135 974.5,-541.3163 966.1574,-534.7855 963.9056,-541.4135"/>
</a>
</g>
</g>
<!-- Node_Ja_103 -->
<g id="node6" class="node">
<title>Node_Ja_103</title>
<g id="a_node6"><a xlink:title="Kind">
<polygon fill="#b2df8a" stroke="transparent" points="1028.5,-255.3163 1028.5,-299.3163 1118.5,-299.3163 1118.5,-255.3163 1028.5,-255.3163"/>
<polygon fill="#33a02c" stroke="transparent" points="1029.5,-284.3163 1029.5,-298.3163 1117.5,-298.3163 1117.5,-284.3163 1029.5,-284.3163"/>
<text text-anchor="start" x="1067.6924" y="-289.3163" font-family="Ubuntu" font-size="10.00" fill="#000000">enum </text>
<text text-anchor="start" x="1095.4854" y="-289.3163" font-family="Ubuntu" font-weight="bold" font-size="10.00" fill="#000000">Kind</text>
<polygon fill="#b2df8a" stroke="transparent" points="1029.5,-270.3163 1029.5,-284.3163 1108.5,-284.3163 1108.5,-270.3163 1029.5,-270.3163"/>
<text text-anchor="start" x="1031.5" y="-274.3163" font-family="Ubuntu" font-size="10.00" fill="#000000">PERSON</text>
<polygon fill="#b2df8a" stroke="transparent" points="1108.5,-270.3163 1108.5,-284.3163 1117.5,-284.3163 1117.5,-270.3163 1108.5,-270.3163"/>
<text text-anchor="start" x="1110.2192" y="-274.3163" font-family="Ubuntu" font-size="10.00" fill="#000000">0</text>
<polygon fill="#b2df8a" stroke="transparent" points="1029.5,-256.3163 1029.5,-270.3163 1108.5,-270.3163 1108.5,-256.3163 1029.5,-256.3163"/>
<text text-anchor="start" x="1031.312" y="-260.3163" font-family="Ubuntu" font-size="10.00" fill="#000000">ORGANIZATION</text>
<polygon fill="#b2df8a" stroke="transparent" points="1108.5,-256.3163 1108.5,-270.3163 1117.5,-270.3163 1117.5,-256.3163 1108.5,-256.3163"/>
<text text-anchor="start" x="1110.2192" y="-260.3163" font-family="Ubuntu" font-size="10.00" fill="#000000">1</text>
<polygon fill="none" stroke="#000000" points="1028.5,-255.3163 1028.5,-299.3163 1118.5,-299.3163 1118.5,-255.3163 1028.5,-255.3163"/>
</a>
</g>
</g>
<!-- Node_Ja_102&#45;&gt;Node_Ja_103 -->
<g id="edge2" class="edge">
<title>Node_Ja_102:e&#45;&gt;Node_Ja_103</title>
<g id="a_edge2"><a xlink:title="Ja_102 &#45;&#45;&gt; Ja_103">
<path fill="none" stroke="#008000" d="M920.5,-387.3163C948.0134,-387.3163 936.0974,-355.2068 957,-337.3163 973.0418,-323.5862 992.7647,-311.9253 1011.391,-302.6379"/>
<polygon fill="#008000" stroke="#008000" points="1012.9457,-305.7739 1020.4258,-298.2706 1009.8992,-299.4716 1012.9457,-305.7739"/>
</a>
</g>
</g>
<!-- Node_Ja_102&#45;&gt;Node_Ja_100 -->
<g id="edge3" class="edge">
<title>Node_Ja_102:e&#45;&gt;Node_Ja_100:header</title>
<g id="a_edge3"><a xlink:title="Ja_102 &#45;&#45;&gt; Ja_100">
<path fill="none" stroke="#000000" d="M920.5,-331.3163C942.6699,-331.3163 936.3705,-357.1966 957,-365.3163 1053.3601,-403.2436 1088.0927,-383.7187 1190,-365.3163 1203.5407,-362.8712 1207.9261,-355.8335 1217.4493,-352.7701"/>
<polygon fill="#000000" stroke="#000000" points="1218.104,-356.2119 1227.5,-351.3163 1217.1019,-349.284 1218.104,-356.2119"/>
</a>
</g>
</g>
<!-- Node_Ja_102&#45;&gt;Node_Ja_100 -->
<g id="edge13" class="edge">
<title>Node_Ja_102:e&#45;&gt;Node_Ja_100:header</title>
<g id="a_edge13"><a xlink:title="Ja_102 &#45;&#45;&gt; Ja_100">
<path fill="none" stroke="#000000" d="M920.5,-317.3163C938.9979,-317.3163 939.2046,-332.2668 957,-337.3163 1069.5312,-369.2476 1105.1084,-352.3432 1217.4754,-351.3601"/>
<polygon fill="#000000" stroke="#000000" points="1217.5154,-354.8601 1227.5,-351.3163 1217.4848,-347.8602 1217.5154,-354.8601"/>
</a>
</g>
</g>
<!-- Node_Ja_105 -->
<g id="node3" class="node">
<title>Node_Ja_105</title>
<g id="a_node3"><a xlink:title="magda.Entry">
<polygon fill="#fffaf0" stroke="transparent" points="307,-163.3163 307,-319.3163 526,-319.3163 526,-163.3163 307,-163.3163"/>
<polygon fill="#e31a1c" stroke="transparent" points="308.5,-304.3163 308.5,-318.3163 525.5,-318.3163 525.5,-304.3163 308.5,-304.3163"/>
<text text-anchor="start" x="500.1602" y="-309.3163" font-family="Ubuntu" font-weight="bold" font-size="10.00" fill="#000000">Entry</text>
<text text-anchor="start" x="332.9385" y="-294.3163" font-family="Ubuntu" font-size="10.00" fill="#000000">1</text>
<text text-anchor="start" x="342.5" y="-294.3163" font-family="Ubuntu" font-size="10.00" fill="#000000">id</text>
<polygon fill="#a6cee3" stroke="transparent" points="400.5,-290.3163 400.5,-304.3163 525.5,-304.3163 525.5,-290.3163 400.5,-290.3163"/>
<text text-anchor="start" x="499.0469" y="-295.3163" font-family="Ubuntu" font-style="italic" font-size="10.00" fill="#000000">string</text>
<text text-anchor="start" x="332.9385" y="-280.3163" font-family="Ubuntu" font-size="10.00" fill="#000000">2</text>
<text text-anchor="start" x="342.5" y="-280.3163" font-family="Ubuntu" font-size="10.00" fill="#000000">kind</text>
<polygon fill="#b2df8a" stroke="transparent" points="400.5,-276.3163 400.5,-290.3163 525.5,-290.3163 525.5,-276.3163 400.5,-276.3163"/>
<text text-anchor="start" x="503.4854" y="-281.3163" font-family="Ubuntu" text-decoration="underline" font-size="10.00" fill="#000000">Kind</text>
<text text-anchor="start" x="332.9385" y="-266.3163" font-family="Ubuntu" font-size="10.00" fill="#000000">3</text>
<text text-anchor="start" x="342.5" y="-266.3163" font-family="Ubuntu" font-size="10.00" fill="#000000">source</text>
<polygon fill="#fb9a99" stroke="transparent" points="400.5,-262.3163 400.5,-276.3163 525.5,-276.3163 525.5,-262.3163 400.5,-262.3163"/>
<text text-anchor="start" x="491.8154" y="-267.3163" font-family="Ubuntu" font-weight="bold" font-size="10.00" fill="#000000">Source</text>
<text text-anchor="start" x="310.0542" y="-252.3163" font-family="Ubuntu" font-size="10.00" fill="#000000">[...]</text>
<text text-anchor="start" x="332.9385" y="-252.3163" font-family="Ubuntu" font-size="10.00" fill="#000000">4</text>
<text text-anchor="start" x="342.5" y="-252.3163" font-family="Ubuntu" font-size="10.00" fill="#000000">titles</text>
<polygon fill="#a6cee3" stroke="transparent" points="400.5,-248.3163 400.5,-262.3163 525.5,-262.3163 525.5,-248.3163 400.5,-248.3163"/>
<text text-anchor="start" x="499.0469" y="-253.3163" font-family="Ubuntu" font-style="italic" font-size="10.00" fill="#000000">string</text>
<text text-anchor="start" x="310.0542" y="-238.3163" font-family="Ubuntu" font-size="10.00" fill="#000000">[...]</text>
<text text-anchor="start" x="332.9385" y="-238.3163" font-family="Ubuntu" font-size="10.00" fill="#000000">5</text>
<text text-anchor="start" x="342.5" y="-238.3163" font-family="Ubuntu" font-size="10.00" fill="#000000">files</text>
<polygon fill="#fb9a99" stroke="transparent" points="400.5,-234.3163 400.5,-248.3163 525.5,-248.3163 525.5,-234.3163 400.5,-234.3163"/>
<text text-anchor="start" x="507.3867" y="-239.3163" font-family="Ubuntu" font-weight="bold" font-size="10.00" fill="#000000">File</text>
<text text-anchor="start" x="332.9385" y="-224.3163" font-family="Ubuntu" font-size="10.00" fill="#000000">6</text>
<text text-anchor="start" x="342.5" y="-224.3163" font-family="Ubuntu" font-size="10.00" fill="#000000">description</text>
<polygon fill="#a6cee3" stroke="transparent" points="400.5,-220.3163 400.5,-234.3163 525.5,-234.3163 525.5,-220.3163 400.5,-220.3163"/>
<text text-anchor="start" x="499.0469" y="-225.3163" font-family="Ubuntu" font-style="italic" font-size="10.00" fill="#000000">string</text>
<text text-anchor="start" x="310.0542" y="-210.3163" font-family="Ubuntu" font-size="10.00" fill="#000000">[...]</text>
<text text-anchor="start" x="332.9385" y="-210.3163" font-family="Ubuntu" font-size="10.00" fill="#000000">7</text>
<text text-anchor="start" x="342.5" y="-210.3163" font-family="Ubuntu" font-size="10.00" fill="#000000">creators</text>
<polygon fill="#fb9a99" stroke="transparent" points="400.5,-206.3163 400.5,-220.3163 525.5,-220.3163 525.5,-206.3163 400.5,-206.3163"/>
<text text-anchor="start" x="498.4902" y="-211.3163" font-family="Ubuntu" font-weight="bold" font-size="10.00" fill="#000000">Entity</text>
<text text-anchor="start" x="332.9385" y="-196.3163" font-family="Ubuntu" font-size="10.00" fill="#000000">9</text>
<text text-anchor="start" x="342.1431" y="-196.3163" font-family="Ubuntu" font-size="10.00" fill="#000000">published_at</text>
<polygon fill="#fb9a99" stroke="transparent" points="400.5,-192.3163 400.5,-206.3163 525.5,-206.3163 525.5,-192.3163 400.5,-192.3163"/>
<text text-anchor="start" x="402.3164" y="-197.3163" font-family="Ubuntu" font-weight="bold" font-size="10.00" fill="#000000">google.protobuf.Timestamp</text>
<text text-anchor="start" x="327.4385" y="-182.3163" font-family="Ubuntu" font-size="10.00" fill="#000000">10</text>
<text text-anchor="start" x="342.5" y="-182.3163" font-family="Ubuntu" font-size="10.00" fill="#000000">created_at</text>
<polygon fill="#fb9a99" stroke="transparent" points="400.5,-178.3163 400.5,-192.3163 525.5,-192.3163 525.5,-178.3163 400.5,-178.3163"/>
<text text-anchor="start" x="402.3164" y="-183.3163" font-family="Ubuntu" font-weight="bold" font-size="10.00" fill="#000000">google.protobuf.Timestamp</text>
<text text-anchor="start" x="328.1143" y="-168.3163" font-family="Ubuntu" font-size="10.00" fill="#000000">11</text>
<text text-anchor="start" x="342.5" y="-168.3163" font-family="Ubuntu" font-size="10.00" fill="#000000">updated_at</text>
<polygon fill="#fb9a99" stroke="transparent" points="400.5,-164.3163 400.5,-178.3163 525.5,-178.3163 525.5,-164.3163 400.5,-164.3163"/>
<text text-anchor="start" x="402.3164" y="-169.3163" font-family="Ubuntu" font-weight="bold" font-size="10.00" fill="#000000">google.protobuf.Timestamp</text>
<polygon fill="none" stroke="#000000" points="307,-163.3163 307,-319.3163 526,-319.3163 526,-163.3163 307,-163.3163"/>
</a>
</g>
</g>
<!-- Node_Ja_105&#45;&gt;Node_Ja_101 -->
<g id="edge4" class="edge">
<title>Node_Ja_105:e&#45;&gt;Node_Ja_101:header</title>
<g id="a_edge4"><a xlink:title="Ja_105 &#45;&#45;&gt; Ja_101">
<path fill="none" stroke="#000000" d="M525.5,-241.3163C570.5213,-241.3163 543.9084,-295.6265 570,-332.3163 616.8081,-398.1377 628.537,-420.1053 698,-461.3163 805.0147,-524.8062 844.4093,-540.4733 964.203,-541.2826"/>
<polygon fill="#000000" stroke="#000000" points="964.4885,-544.7834 974.5,-541.3163 964.5116,-537.7835 964.4885,-544.7834"/>
</a>
</g>
</g>
<!-- Node_Ja_105&#45;&gt;Node_Ja_102 -->
<g id="edge9" class="edge">
<title>Node_Ja_105:e&#45;&gt;Node_Ja_102:header</title>
<g id="a_edge9"><a xlink:title="Ja_105 &#45;&#45;&gt; Ja_102">
<path fill="none" stroke="#000000" d="M525.5,-213.3163C595.0399,-213.3163 628.9439,-199.0284 678,-248.3163 729.0427,-299.6003 648.0889,-404.4141 705.5241,-414.5276"/>
<polygon fill="#000000" stroke="#000000" points="705.2552,-418.0171 715.5,-415.3163 705.807,-411.0389 705.2552,-418.0171"/>
</a>
</g>
</g>
<!-- Node_Ja_104 -->
<g id="node4" class="node">
<title>Node_Ja_104</title>
<g id="a_node4"><a xlink:title="magda.Source">
<polygon fill="#fffaf0" stroke="transparent" points="578,-261.3163 578,-319.3163 662,-319.3163 662,-261.3163 578,-261.3163"/>
<polygon fill="#e31a1c" stroke="transparent" points="579,-304.3163 579,-318.3163 661,-318.3163 661,-304.3163 579,-304.3163"/>
<text text-anchor="start" x="627.3154" y="-309.3163" font-family="Ubuntu" font-weight="bold" font-size="10.00" fill="#000000">Source</text>
<text text-anchor="start" x="597.7192" y="-294.3163" font-family="Ubuntu" font-size="10.00" fill="#000000">1</text>
<text text-anchor="start" x="606.5493" y="-294.3163" font-family="Ubuntu" font-size="10.00" fill="#000000">entity</text>
<polygon fill="#fb9a99" stroke="transparent" points="632,-290.3163 632,-304.3163 661,-304.3163 661,-290.3163 632,-290.3163"/>
<text text-anchor="start" x="633.9951" y="-295.3163" font-family="Ubuntu" font-weight="bold" font-size="10.00" fill="#000000">Entity</text>
<text text-anchor="start" x="597.7192" y="-280.3163" font-family="Ubuntu" font-size="10.00" fill="#000000">2</text>
<text text-anchor="start" x="607" y="-280.3163" font-family="Ubuntu" font-size="10.00" fill="#000000">url</text>
<polygon fill="#a6cee3" stroke="transparent" points="632,-276.3163 632,-290.3163 661,-290.3163 661,-276.3163 632,-276.3163"/>
<text text-anchor="start" x="634.5469" y="-281.3163" font-family="Ubuntu" font-style="italic" font-size="10.00" fill="#000000">string</text>
<text text-anchor="start" x="580.5542" y="-266.3163" font-family="Ubuntu" font-size="10.00" fill="#000000">[...]</text>
<text text-anchor="start" x="597.7192" y="-266.3163" font-family="Ubuntu" font-size="10.00" fill="#000000">4</text>
<text text-anchor="start" x="607" y="-266.3163" font-family="Ubuntu" font-size="10.00" fill="#000000">titles</text>
<polygon fill="#a6cee3" stroke="transparent" points="632,-262.3163 632,-276.3163 661,-276.3163 661,-262.3163 632,-262.3163"/>
<text text-anchor="start" x="634.5469" y="-267.3163" font-family="Ubuntu" font-style="italic" font-size="10.00" fill="#000000">string</text>
<polygon fill="none" stroke="#000000" points="578,-261.3163 578,-319.3163 662,-319.3163 662,-261.3163 578,-261.3163"/>
</a>
</g>
</g>
<!-- Node_Ja_105&#45;&gt;Node_Ja_104 -->
<g id="edge16" class="edge">
<title>Node_Ja_105:e&#45;&gt;Node_Ja_104:header</title>
<g id="a_edge16"><a xlink:title="Ja_105 &#45;&#45;&gt; Ja_104">
<path fill="none" stroke="#000000" d="M525.5,-269.3163C551.8328,-269.3163 549.9466,-301.1861 569.0042,-309.4026"/>
<polygon fill="#000000" stroke="#000000" points="568.5202,-312.8734 579,-311.3163 569.8366,-305.9983 568.5202,-312.8734"/>
</a>
</g>
</g>
<!-- Node_Ja_106 -->
<g id="node5" class="node">
<title>Node_Ja_106</title>
<g id="a_node5"><a xlink:title="Kind">
<polygon fill="#b2df8a" stroke="transparent" points="1047,-185.3163 1047,-229.3163 1100,-229.3163 1100,-185.3163 1047,-185.3163"/>
<polygon fill="#33a02c" stroke="transparent" points="1048.5,-214.3163 1048.5,-228.3163 1099.5,-228.3163 1099.5,-214.3163 1048.5,-214.3163"/>
<text text-anchor="start" x="1050.0962" y="-219.3163" font-family="Ubuntu" font-size="10.00" fill="#000000">enum </text>
<text text-anchor="start" x="1077.8892" y="-219.3163" font-family="Ubuntu" font-weight="bold" font-size="10.00" fill="#000000">Kind</text>
<polygon fill="#b2df8a" stroke="transparent" points="1048.5,-200.3163 1048.5,-214.3163 1088.5,-214.3163 1088.5,-200.3163 1048.5,-200.3163"/>
<text text-anchor="start" x="1050.5" y="-204.3163" font-family="Ubuntu" font-size="10.00" fill="#000000">QUOTE</text>
<polygon fill="#b2df8a" stroke="transparent" points="1088.5,-200.3163 1088.5,-214.3163 1099.5,-214.3163 1099.5,-200.3163 1088.5,-200.3163"/>
<text text-anchor="start" x="1090.5" y="-204.3163" font-family="Ubuntu" font-size="10.00" fill="#000000">0</text>
<polygon fill="#b2df8a" stroke="transparent" points="1048.5,-186.3163 1048.5,-200.3163 1088.5,-200.3163 1088.5,-186.3163 1048.5,-186.3163"/>
<text text-anchor="start" x="1050.5" y="-190.3163" font-family="Ubuntu" font-size="10.00" fill="#000000">IMAGE</text>
<polygon fill="#b2df8a" stroke="transparent" points="1088.5,-186.3163 1088.5,-200.3163 1099.5,-200.3163 1099.5,-186.3163 1088.5,-186.3163"/>
<text text-anchor="start" x="1090.5" y="-190.3163" font-family="Ubuntu" font-size="10.00" fill="#000000">1</text>
<polygon fill="none" stroke="#000000" points="1047,-185.3163 1047,-229.3163 1100,-229.3163 1100,-185.3163 1047,-185.3163"/>
</a>
</g>
</g>
<!-- Node_Ja_105&#45;&gt;Node_Ja_106 -->
<g id="edge15" class="edge">
<title>Node_Ja_105:e&#45;&gt;Node_Ja_106</title>
<g id="a_edge15"><a xlink:title="Ja_105 &#45;&#45;&gt; Ja_106">
<path fill="none" stroke="#008000" d="M525.5,-283.3163C550.6622,-283.3163 546.5759,-257.5058 570,-248.3163 729.2297,-185.8492 938.0706,-194.7649 1028.5181,-202.5553"/>
<polygon fill="#008000" stroke="#008000" points="1028.4209,-206.0606 1038.6944,-203.4708 1029.0483,-199.0887 1028.4209,-206.0606"/>
</a>
</g>
</g>
<!-- Node_Ja_105&#45;&gt;Node_Ja_100 -->
<g id="edge10" class="edge">
<title>Node_Ja_105:e&#45;&gt;Node_Ja_100:header</title>
<g id="a_edge10"><a xlink:title="Ja_105 &#45;&#45;&gt; Ja_100">
<path fill="none" stroke="#000000" d="M525.5,-199.3163C673.3171,-199.3163 1075.4153,-75.9341 1190,-169.3163 1251.1446,-219.1469 1154.3653,-339.809 1217.4974,-350.5492"/>
<polygon fill="#000000" stroke="#000000" points="1217.2616,-354.0413 1227.5,-351.3163 1217.797,-347.0618 1217.2616,-354.0413"/>
</a>
</g>
</g>
<!-- Node_Ja_105&#45;&gt;Node_Ja_100 -->
<g id="edge11" class="edge">
<title>Node_Ja_105:e&#45;&gt;Node_Ja_100:header</title>
<g id="a_edge11"><a xlink:title="Ja_105 &#45;&#45;&gt; Ja_100">
<path fill="none" stroke="#000000" d="M525.5,-185.3163C565.2897,-185.3163 658.6524,-143.2313 698,-137.3163 806.1295,-121.0618 1106.4645,-59.7613 1190,-130.3163 1225.0825,-159.9474 1185.0173,-322.7638 1217.5695,-348.023"/>
<polygon fill="#000000" stroke="#000000" points="1216.9066,-351.4906 1227.5,-351.3163 1219.1101,-344.8464 1216.9066,-351.4906"/>
</a>
</g>
</g>
<!-- Node_Ja_105&#45;&gt;Node_Ja_100 -->
<g id="edge12" class="edge">
<title>Node_Ja_105:e&#45;&gt;Node_Ja_100:header</title>
<g id="a_edge12"><a xlink:title="Ja_105 &#45;&#45;&gt; Ja_100">
<path fill="none" stroke="#000000" d="M525.5,-171.3163C550.3899,-171.3163 547.8553,-148.6793 570,-137.3163 622.9118,-110.1661 639.2835,-107.7593 698,-98.3163 913.9086,-63.5935 1024.6597,50.8088 1190,-92.3163 1231.0501,-127.8509 1177.4485,-322.7795 1217.4709,-348.5117"/>
<polygon fill="#000000" stroke="#000000" points="1216.9268,-351.9938 1227.5,-351.3163 1218.8121,-345.2524 1216.9268,-351.9938"/>
</a>
</g>
</g>
<!-- Node_Ja_104&#45;&gt;Node_Ja_102 -->
<g id="edge8" class="edge">
<title>Node_Ja_104:e&#45;&gt;Node_Ja_102:header</title>
<g id="a_edge8"><a xlink:title="Ja_104 &#45;&#45;&gt; Ja_102">
<path fill="none" stroke="#000000" d="M661,-297.3163C714.9318,-297.3163 665.3145,-400.1648 705.4937,-413.8244"/>
<polygon fill="#000000" stroke="#000000" points="705.0932,-417.3033 715.5,-415.3163 706.1255,-410.3798 705.0932,-417.3033"/>
</a>
</g>
</g>
<!-- Node_Ja_107 -->
<g id="node7" class="node">
<title>Node_Ja_107</title>
<g id="a_node7"><a xlink:title="MagdaService">
<polygon fill="#ffd700" stroke="transparent" points="8,-338.3163 8,-382.3163 129,-382.3163 129,-338.3163 8,-338.3163"/>
<polygon fill="#ff7f50" stroke="transparent" points="9.5,-367.3163 9.5,-381.3163 128.5,-381.3163 128.5,-367.3163 9.5,-367.3163"/>
<text text-anchor="start" x="62.5791" y="-372.3163" font-family="Ubuntu" font-weight="bold" font-size="10.00" fill="#000000">MagdaService</text>
<text text-anchor="start" x="11.271" y="-358.3163" font-family="Ubuntu" font-weight="bold" font-size="10.00" fill="#000000">GetEntry</text>
<text text-anchor="start" x="65.9141" y="-357.3163" font-family="Ubuntu" font-size="10.00" fill="#000000">EntryRequest</text>
<polygon fill="#ff7f50" stroke="transparent" points="52.5,-339.3163 52.5,-353.3163 56.5,-353.3163 56.5,-339.3163 52.5,-339.3163"/>
<polygon fill="#ff7f50" stroke="transparent" points="56.5,-339.3163 56.5,-353.3163 128.5,-353.3163 128.5,-339.3163 56.5,-339.3163"/>
<text text-anchor="start" x="58.3154" y="-343.3163" font-family="Ubuntu" font-size="10.00" fill="#000000">EntryResponse</text>
<polygon fill="none" stroke="#000000" points="8,-338.3163 8,-382.3163 129,-382.3163 129,-338.3163 8,-338.3163"/>
</a>
</g>
</g>
<!-- Node_Ja_109 -->
<g id="node8" class="node">
<title>Node_Ja_109</title>
<g id="a_node8"><a xlink:title="magda.EntryRequest">
<polygon fill="#fffaf0" stroke="transparent" points="185,-359.3163 185,-389.3163 251,-389.3163 251,-359.3163 185,-359.3163"/>
<polygon fill="#e31a1c" stroke="transparent" points="186,-374.3163 186,-388.3163 250,-388.3163 250,-374.3163 186,-374.3163"/>
<text text-anchor="start" x="187.707" y="-379.3163" font-family="Ubuntu" font-weight="bold" font-size="10.00" fill="#000000">EntryRequest</text>
<text text-anchor="start" x="200.4385" y="-364.3163" font-family="Ubuntu" font-size="10.00" fill="#000000">1</text>
<text text-anchor="start" x="210" y="-364.3163" font-family="Ubuntu" font-size="10.00" fill="#000000">id</text>
<polygon fill="#a6cee3" stroke="transparent" points="220,-360.3163 220,-374.3163 250,-374.3163 250,-360.3163 220,-360.3163"/>
<text text-anchor="start" x="223.5469" y="-365.3163" font-family="Ubuntu" font-style="italic" font-size="10.00" fill="#000000">string</text>
<polygon fill="none" stroke="#000000" points="185,-359.3163 185,-389.3163 251,-389.3163 251,-359.3163 185,-359.3163"/>
</a>
</g>
</g>
<!-- Node_Ja_107&#45;&gt;Node_Ja_109 -->
<g id="edge5" class="edge">
<title>Node_Ja_107:e&#45;&gt;Node_Ja_109:header</title>
<g id="a_edge5"><a xlink:title="Ja_107 &#45;&#45;&gt; Ja_109">
<path fill="none" stroke="#000000" d="M128.5,-360.3163C151.8806,-360.3163 157.4483,-375.8254 175.819,-380.1873"/>
<polygon fill="#000000" stroke="#000000" points="175.6751,-383.6927 186,-381.3163 176.4467,-376.7354 175.6751,-383.6927"/>
</a>
</g>
</g>
<!-- Node_Ja_110 -->
<g id="node9" class="node">
<title>Node_Ja_110</title>
<g id="a_node9"><a xlink:title="magda.EntryResponse">
<polygon fill="#fffaf0" stroke="transparent" points="181,-303.3163 181,-333.3163 255,-333.3163 255,-303.3163 181,-303.3163"/>
<polygon fill="#e31a1c" stroke="transparent" points="182,-318.3163 182,-332.3163 254,-332.3163 254,-318.3163 182,-318.3163"/>
<text text-anchor="start" x="183.8154" y="-323.3163" font-family="Ubuntu" font-weight="bold" font-size="10.00" fill="#000000">EntryResponse</text>
<text text-anchor="start" x="191.4385" y="-308.3163" font-family="Ubuntu" font-size="10.00" fill="#000000">1</text>
<text text-anchor="start" x="201" y="-308.3163" font-family="Ubuntu" font-size="10.00" fill="#000000">entry</text>
<polygon fill="#fb9a99" stroke="transparent" points="226,-304.3163 226,-318.3163 254,-318.3163 254,-304.3163 226,-304.3163"/>
<text text-anchor="start" x="228.6602" y="-309.3163" font-family="Ubuntu" font-weight="bold" font-size="10.00" fill="#000000">Entry</text>
<polygon fill="none" stroke="#000000" points="181,-303.3163 181,-333.3163 255,-333.3163 255,-303.3163 181,-303.3163"/>
</a>
</g>
</g>
<!-- Node_Ja_107&#45;&gt;Node_Ja_110 -->
<g id="edge6" class="edge">
<title>Node_Ja_107:e&#45;&gt;Node_Ja_110:header</title>
<g id="a_edge6"><a xlink:title="Ja_107 &#45;&#45;&gt; Ja_110">
<path fill="none" stroke="#000000" d="M128.5,-346.3163C150.2523,-346.3163 155.2303,-331.088 172.0027,-326.5671"/>
<polygon fill="#000000" stroke="#000000" points="172.5119,-330.0308 182,-325.3163 171.6428,-323.0849 172.5119,-330.0308"/>
</a>
</g>
</g>
<!-- Node_Ja_110&#45;&gt;Node_Ja_105 -->
<g id="edge17" class="edge">
<title>Node_Ja_110:e&#45;&gt;Node_Ja_105:header</title>
<g id="a_edge17"><a xlink:title="Ja_110 &#45;&#45;&gt; Ja_105">
<path fill="none" stroke="#000000" d="M254,-311.3163C274.4375,-311.3163 281.9419,-311.3163 298.3378,-311.3163"/>
<polygon fill="#000000" stroke="#000000" points="298.5,-314.8164 308.5,-311.3163 298.5,-307.8164 298.5,-314.8164"/>
</a>
</g>
</g>
</g>
</svg>
